{
.appVersion = "3151";
.formatVersion = 3;
classes = (
{
code = "zero one two three four five six seven eight nine A B C D E F G H I J K L M N O P Q R S T U V W X Y Z uni0410 uni0411 uni0412 uni0413 uni0414 uni0415 uni0416 uni0417 uni0418 uni0419 uni041A uni041B uni041C uni041D uni041E uni041F uni0420 uni0421 uni0422 uni0423 uni0424 uni0425 uni0426 uni0427 uni0428 uni0429 uni042A uni042B uni042C uni042D uni042E uni042F uni0401 K_alt W_alt Acircumflex Adieresis Ccedilla Ecircumflex Icircumflex Odieresis Udieresis Abreve Idotaccent Scedilla uni0162 uni0218 uni021A uni04C1";
name = calt1;
},
{
code = "o a c d e g q s u y t acircumflex adieresis ccedilla ecircumflex odieresis udieresis u_alt y_alt s_alt c_alt t_alt t2.alt g_alt a_alt abreve scedilla uni0163 uni0219 uni021B uni0430 uni0431 uni0435 uni0437 uni043E uni0441 uni0444 uni044D uni0451 space zero one three five six seven eight nine f v endash emdash uni00AD hyphen.uc uni00AD.uc endash.uc emdash.uc minus hyphen t0163.alt t021b.alt a2_alt a00E2.alt a00E4.alt a0103.alt";
name = calt2;
},
{
code = "uniE000 uniE001 uniE002 uniE003 uniE004 uniE005 uniE006 uniE007 uniE008 uniE009 uniE010 uniE011 uniE012 uniE013 uniE014 uniE015 uniE016 uniE017 uniE018 uniE019 uniE020 uniE021 uniE022";
name = tnum1;
},
{
code = "zero one two three four five six seven eight nine period comma colon semicolon quotesingle quotedbl quoteright quotedblright quoteleft quotedblleft quotesinglbase quotedblbase colon.uc";
name = pnum1;
}
);
customParameters = (
{
name = glyphOrder;
value = (
.notdef,
uni0000,
uni000D,
space,
B,
D,
E,
F,
H,
I,
L,
M,
N,
P,
R,
U,
V,
W,
X,
Y,
Z,
b,
d,
h,
i,
l,
m,
n,
p,
q,
u,
v,
w,
x,
z,
period,
comma,
A,
breve,
circumflex,
uni0326,
exclam,
quotedbl,
quotesingle,
numbersign,
percent,
asterisk,
plus,
slash,
colon,
semicolon,
less,
equal,
greater,
at,
bracketleft,
bracketright,
backslash,
asciicircum,
underscore,
braceleft,
bar,
braceright,
Euro,
quotedblbase,
quotesinglbase,
quotedblright,
quoteright,
quotedblleft,

glyphs = (
{
glyphname = .notdef;
layers = (
{
layerId = "C985D1D4-6D1D-43A7-B614-37C5E085729D";
shapes = (
{
closed = 1;
nodes = (
(20,960,l),
(520,960,l),
(520,-295,l),
(20,-295,l)
);
},
{
closed = 1;
nodes = (
(30,-285,l),
(510,-285,l),
(510,950,l),
(30,950,l)
);
}
);
width = 540;
}
);
},
{
glyphname = B;
kernLeft = _kern1;
layers = (
{
layerId = "C985D1D4-6D1D-43A7-B614-37C5E085729D";
shapes = (
{
closed = 1;
nodes = (
(92,707,l),
(331,707,ls),
(447,707,o),
(557,680,o),
(557,539,cs),
(557,447,o),
(500,390,o),
(419,369,c),
(523,361,o),
(596,294,o),
(596,190,cs),
(596,34,o),
(454,0,o),
(325,0,cs),
(92,0,l)
);
},
{
closed = 1;
nodes = (
(134,669,l),
(134,380,l),
(298,380,ls),
(397,380,o),
(518,415,o),
(518,535,cs),
(518,652,o),
(428,669,o),
(332,669,cs)
);
},
{
closed = 1;
nodes = (
(322,38,ls),
(427,38,o),
(554,50,o),
(554,190,cs),
(554,312,o),
(445,343,o),
(344,343,cs),
(134,343,l),
(134,38,l)
);
}
);
width = 651;
}
);
unicode = 66;
},
{
glyphname = D;
kernLeft = _kern1;
kernRight = _kern4;
layers = (
{
layerId = "C985D1D4-6D1D-43A7-B614-37C5E085729D";
shapes = (
{
closed = 1;
nodes = (
(93,707,l),
(336,707,ls),
(554,707,o),
(665,565,o),
(665,353,cs),
(665,145,o),
(552,0,o),
(336,0,cs),
(93,0,l)
);
},
{
closed = 1;
nodes = (
(135,669,l),
(135,38,l),
(328,38,ls),
(522,38,o),
(621,166,o),
(621,353,cs),
(621,535,o),
(528,669,o),
(335,669,cs)
);
}
);
width = 720;
}
);
unicode = 68;
},
{
glyphname = E;
kernLeft = _kern1;
layers = (
{
layerId = "C985D1D4-6D1D-43A7-B614-37C5E085729D";
shapes = (
{
closed = 1;
nodes = (
(93,707,l),
(549,707,l),
(549,669,l),
(135,669,l),
(135,370,l),
(507,370,l),
(507,332,l),
(135,332,l),
(135,38,l),
(549,38,l),
(549,0,l),
(93,0,l)
);
}
);
width = 603;
}
);
unicode = 69;
},
{
glyphname = F;
kernLeft = _kern1;
layers = (
{
layerId = "C985D1D4-6D1D-43A7-B614-37C5E085729D";
shapes = (
{
closed = 1;
nodes = (
(93,0,l),
(93,707,l),
(549,707,l),
(549,669,l),
(135,669,l),
(135,346,l),
(489,346,l),
(489,309,l),
(135,309,l),
(135,0,l)
);
}
);
width = 592;
}
);
unicode = 70;
},
{
glyphname = H;
kernLeft = _kern1;
kernRight = _kern2;
layers = (
{
layerId = "C985D1D4-6D1D-43A7-B614-37C5E085729D";
shapes = (
{
closed = 1;
nodes = (
(590,365,l),
(590,707,l),
(632,707,l),
(632,0,l),
(590,0,l),
(590,328,l),
(135,328,l),
(135,0,l),
(93,0,l),
(93,707,l),
(135,707,l),
(135,365,l)
);
}
);
width = 725;
}
);
unicode = 72;
},
{
glyphname = I;
kernLeft = _kern1;
kernRight = _kern2;
layers = (
{
layerId = "C985D1D4-6D1D-43A7-B614-37C5E085729D";
shapes = (
{
closed = 1;
nodes = (
(135,0,l),
(93,0,l),
(93,707,l),
(135,707,l)
);
}
);
width = 228;
}
);
unicode = 73;
},
{
glyphname = L;
layers = (
{
layerId = "C985D1D4-6D1D-43A7-B614-37C5E085729D";
shapes = (
{
closed = 1;
nodes = (
(93,0,l),
(93,707,l),
(135,707,l),
(135,38,l),
(549,38,l),
(549,0,l)
);
}
);
width = 568;
}
);
unicode = 76;
},
{
glyphname = M;
kernLeft = _kern1;
kernRight = _kern2;
layers = (
{
layerId = "C985D1D4-6D1D-43A7-B614-37C5E085729D";
shapes = (
{
closed = 1;
nodes = (
(742,707,l),
(742,0,l),
(700,0,l),
(700,657,l),
(431,195,l),
(409,195,l),
(135,657,l),
(135,0,l),
(93,0,l),
(93,707,l),
(153,707,l),
(421,255,l),
(683,707,l)
);
}
);
width = 835;
}
);
unicode = 77;
},
{
glyphname = N;
kernLeft = _kern1;
kernRight = _kern2;
layers = (
{
layerId = "C985D1D4-6D1D-43A7-B614-37C5E085729D";
shapes = (
{
closed = 1;
nodes = (
(93,707,l),
(154,707,l),
(609,49,l),
(609,707,l),
(651,707,l),
(651,0,l),
(593,0,l),
(135,659,l),
(135,0,l),
(93,0,l)
);
}
);
width = 744;
}
);
unicode = 78;
},
{
glyphname = P;
kernLeft = _kern1;
layers = (
{
layerId = "C985D1D4-6D1D-43A7-B614-37C5E085729D";
shapes = (
{
closed = 1;
nodes = (
(93,707,l),
(328,707,ls),
(479,707,o),
(569,636,o),
(569,480,cs),
(569,324,o),
(456,250,o),
(308,250,cs),
(135,250,l),
(135,0,l),
(93,0,l)
);
},
{
closed = 1;
nodes = (
(306,287,ls),
(437,287,o),
(525,346,o),
(525,484,cs),
(525,617,o),
(447,669,o),
(322,669,cs),
(135,669,l),
(135,287,l)
);
}
);
width = 624;
}
);
unicode = 80;
},
{
glyphname = R;
kernLeft = _kern1;
layers = (
{
layerId = "C985D1D4-6D1D-43A7-B614-37C5E085729D";
shapes = (
{
closed = 1;
nodes = (
(135,286,l),
(135,0,l),
(93,0,l),
(93,707,l),
(350,707,ls),
(496,707,o),
(595,652,o),
(595,495,cs),
(595,388,o),
(536,318,o),
(421,293,c),
(579,0,l),
(531,0,l),
(377,286,l)
);
},
{
closed = 1;
nodes = (
(322,323,ls),
(440,323,o),
(551,353,o),
(551,498,cs),
(551,634,o),
(460,669,o),
(340,669,cs),
(135,669,l),
(135,323,l)
);
}
);
width = 654;
}
);
unicode = 82;
},
{
glyphname = U;
layers = (
{
layerId = "C985D1D4-6D1D-43A7-B614-37C5E085729D";
shapes = (
{
closed = 1;
nodes = (
(630,707,l),
(630,299,ls),
(630,119,o),
(551,-8,o),
(359,-8,cs),
(168,-8,o),
(88,119,o),
(88,299,cs),
(88,707,l),
(131,707,l),
(131,303,ls),
(131,149,o),
(195,28,o),
(360,28,cs),
(528,28,o),
(588,151,o),
(588,303,cs),
(588,707,l)
);
}
);
width = 718;
}
);
unicode = 85;
},
{
glyphname = V;
layers = (
{
layerId = "C985D1D4-6D1D-43A7-B614-37C5E085729D";
shapes = (
{
closed = 1;
nodes = (
(581,707,l),
(628,707,l),
(352,0,l),
(299,0,l),
(20,707,l),
(68,707,l),
(325,47,l)
);
}
);
width = 648;
}
);
unicode = 86;
},
{
glyphname = W;
kernLeft = _kern19;
kernRight = _kern19;
layers = (
{
layerId = "C985D1D4-6D1D-43A7-B614-37C5E085729D";
shapes = (
{
closed = 1;
nodes = (
(219,0,l),
(20,707,l),
(66,707,l),
(250,44,l),
(437,707,l),
(498,707,l),
(688,44,l),
(871,707,l),
(917,707,l),
(718,0,l),
(657,0,l),
(467,663,l),
(284,0,l)
);
}
);
width = 937;
}
);
unicode = 87;
},
{
glyphname = X;
layers = (
{
layerId = "C985D1D4-6D1D-43A7-B614-37C5E085729D";
shapes = (
{
closed = 1;
nodes = (
(473,707,l),
(529,707,l),
(309,358,l),
(538,0,l),
(483,0,l),
(278,323,l),
(74,0,l),
(20,0,l),
(249,356,l),
(28,707,l),
(84,707,l),
(279,390,l)
);
}
);
width = 558;
}
);
unicode = 88;
},
{
glyphname = Y;
kernLeft = _kern31;
kernRight = _kern31;
layers = (
{
layerId = "C985D1D4-6D1D-43A7-B614-37C5E085729D";
shapes = (
{
closed = 1;
nodes = (
(514,707,l),
(563,707,l),
(314,267,l),
(314,0,l),
(272,0,l),
(272,267,l),
(20,707,l),
(72,707,l),
(293,310,l)
);
}
);
width = 583;
}
);
unicode = 89;
},
{
glyphname = Z;
layers = (
{
layerId = "C985D1D4-6D1D-43A7-B614-37C5E085729D";
shapes = (
{
closed = 1;
nodes = (
(65,669,l),
(65,707,l),
(543,707,l),
(543,668,l),
(100,38,l),
(538,38,l),
(538,0,l),
(50,0,l),
(50,40,l),
(487,669,l)
);
}
);
width = 593;
}
);
unicode = 90;
},
{
glyphname = b;
kernRight = _kern6;
layers = (
{
layerId = "C985D1D4-6D1D-43A7-B614-37C5E085729D";
shapes = (
{
closed = 1;
nodes = (
(113,0,l),
(73,0,l),
(73,707,l),
(115,707,l),
(115,419,l),
(166,506,o),
(243,534,o),
(327,534,cs),
(487,534,o),
(556,405,o),
(556,262,cs),
(556,105,o),
(471,-7,o),
(315,-7,cs),
(248,-7,o),
(161,9,o),
(113,105,c)
);
},
{
closed = 1;
nodes = (
(453,29,o),
(514,138,o),
(514,262,cs),
(514,389,o),
(459,498,o),
(315,498,cs),
(183,498,o),
(113,382,o),
(113,262,cs),
(113,134,o),
(180,29,o),
(316,29,cs)
);
}
);
width = 609;
}
);
unicode = 98;
},
{
glyphname = d;
kernLeft = _kern5;
layers = (
{
layerId = "C985D1D4-6D1D-43A7-B614-37C5E085729D";
shapes = (
{
closed = 1;
nodes = (
(494,707,l),
(536,707,l),
(536,0,l),
(494,0,l),
(494,113,l),
(446,23,o),
(358,-7,o),
(284,-7,cs),
(116,-7,o),
(53,118,o),
(53,262,cs),
(53,426,o),
(143,534,o),
(295,534,cs),
(364,534,o),
(449,506,o),
(494,426,c)
);
},
{
closed = 1;
nodes = (
(154,498,o),
(95,387,o),
(95,265,cs),
(95,151,o),
(133,29,o),
(288,29,cs),
(420,29,o),
(496,138,o),
(496,266,cs),
(496,393,o),
(429,498,o),
(293,498,cs)
);
}
);
width = 609;
}
);
unicode = 100;
},
{
glyphname = h;
layers = (
{
layerId = "C985D1D4-6D1D-43A7-B614-37C5E085729D";
shapes = (
{
closed = 1;
nodes = (
(73,0,l),
(73,707,l),
(115,707,l),
(115,423,l),
(162,502,o),
(233,534,o),
(316,534,cs),
(468,534,o),
(520,425,o),
(520,292,cs),
(520,0,l),
(478,0,l),
(478,267,ls),
(478,383,o),
(454,498,o),
(315,498,cs),
(182,498,o),
(115,390,o),
(115,268,cs),
(115,0,l)
);
}
);
width = 590;
}
);
unicode = 104;
},
{
glyphname = i;
layers = (
{
layerId = "C985D1D4-6D1D-43A7-B614-37C5E085729D";
shapes = (
{
closed = 1;
nodes = (
(129,726,o),
(145,710,o),
(145,687,cs),
(145,663,o),
(129,648,o),
(105,648,cs),
(82,648,o),
(65,663,o),
(65,687,cs),
(65,712,o),
(82,726,o),
(105,726,cs)
);
},
{
closed = 1;
nodes = (
(83,527,l),
(125,527,l),
(125,0,l),
(83,0,l)
);
}
);
width = 210;
}
);
unicode = 105;
},
{
glyphname = l;
layers = (
{
layerId = "C985D1D4-6D1D-43A7-B614-37C5E085729D";
shapes = (
{
closed = 1;
nodes = (
(75,0,l),
(75,707,l),
(117,707,l),
(117,0,l)
);
}
);
width = 192;
}
);
unicode = 108;
},
{
glyphname = m;
layers = (
{
layerId = "C985D1D4-6D1D-43A7-B614-37C5E085729D";
shapes = (
{
closed = 1;
nodes = (
(112,428,l),
(152,520,o),
(228,534,o),
(277,534,cs),
(356,534,o),
(413,488,o),
(432,401,c),
(443,460,o),
(498,534,o),
(601,534,cs),
(719,534,o),
(769,458,o),
(769,350,cs),
(769,0,l),
(727,0,l),
(727,322,ls),
(727,414,o),
(713,498,o),
(600,498,cs),
(488,498,o),
(448,384,o),
(448,286,cs),
(448,0,l),
(406,0,l),
(406,299,ls),
(406,386,o),
(387,498,o),
(274,498,cs),
(158,498,o),
(115,392,o),
(115,275,cs),
(115,0,l),
(73,0,l),
(73,527,l),
(112,527,l)
);
}
);
width = 839;
}
);
unicode = 109;
},
{
glyphname = n;
layers = (
{
layerId = "C985D1D4-6D1D-43A7-B614-37C5E085729D";
shapes = (
{
closed = 1;
nodes = (
(73,0,l),
(73,527,l),
(115,527,l),
(115,423,l),
(162,502,o),
(233,534,o),
(316,534,cs),
(468,534,o),
(520,425,o),
(520,292,cs),
(520,0,l),
(478,0,l),
(478,267,ls),
(478,383,o),
(454,498,o),
(315,498,cs),
(182,498,o),
(115,390,o),
(115,268,cs),
(115,0,l)
);
}
);
width = 590;
}
);
unicode = 110;
},
{
glyphname = p;
kernRight = _kern6;
layers = (
{
layerId = "C985D1D4-6D1D-43A7-B614-37C5E085729D";
shapes = (
{
closed = 1;
nodes = (
(115,-206,l),
(73,-206,l),
(73,527,l),
(115,527,l),
(115,423,l),
(167,502,o),
(232,534,o),
(323,534,cs),
(483,534,o),
(556,408,o),
(556,259,cs),
(556,98,o),
(475,-7,o),
(320,-7,cs),
(255,-7,o),
(166,10,o),
(115,98,c)
);
},
{
closed = 1;
nodes = (
(462,29,o),
(514,138,o),
(514,262,cs),
(514,389,o),
(459,498,o),
(315,498,cs),
(183,498,o),
(113,382,o),
(113,262,cs),
(113,130,o),
(184,29,o),
(323,29,cs)
);
}
);
width = 609;
}
);
unicode = 112;
},
{
glyphname = q;
kernLeft = _kern5;
layers = (
{
layerId = "C985D1D4-6D1D-43A7-B614-37C5E085729D";
shapes = (
{
closed = 1;
nodes = (
(494,527,l),
(536,527,l),
(536,-206,l),
(494,-206,l),
(494,107,l),
(454,35,o),
(387,-7,o),
(288,-7,cs),
(101,-7,o),
(53,144,o),
(53,264,cs),
(53,408,o),
(140,534,o),
(293,534,cs),
(389,534,o),
(450,492,o),
(493,429,c)
);
},
{
closed = 1;
nodes = (
(157,498,o),
(95,385,o),
(95,265,cs),
(95,136,o),
(151,29,o),
(296,29,cs),
(429,29,o),
(496,145,o),
(496,265,cs),
(496,393,o),
(431,498,o),
(295,498,cs)
);
}
);
width = 609;
}
);
unicode = 113;
},
{
glyphname = u;
layers = (
{
layerId = "C985D1D4-6D1D-43A7-B614-37C5E085729D";
shapes = (
{
closed = 1;
nodes = (
(412,29,o),
(456,108,o),
(456,226,cs),
(456,527,l),
(498,527,l),
(498,227,ls),
(498,79,o),
(436,-7,o),
(283,-7,cs),
(134,-7,o),
(71,78,o),
(71,227,cs),
(71,527,l),
(113,527,l),
(113,226,ls),
(113,113,o),
(158,29,o),
(283,29,cs)
);
}
);
width = 569;
}
);
unicode = 117;
},
{
glyphname = v;
layers = (
{
layerId = "C985D1D4-6D1D-43A7-B614-37C5E085729D";
shapes = (
{
closed = 1;
nodes = (
(13,527,l),
(61,527,l),
(254,36,l),
(448,527,l),
(495,527,l),
(282,0,l),
(223,0,l)
);
}
);
width = 508;
}
);
unicode = 118;
},
{
glyphname = w;
kernLeft = _kern20;
kernRight = _kern20;
layers = (
{
layerId = "C985D1D4-6D1D-43A7-B614-37C5E085729D";
shapes = (
{
closed = 1;
nodes = (
(591,36,l),
(737,527,l),
(783,527,l),
(622,0,l),
(559,0,l),
(402,492,l),
(244,0,l),
(178,0,l),
(19,527,l),
(64,527,l),
(212,36,l),
(367,527,l),
(436,527,l)
);
}
);
width = 802;
}
);
unicode = 119;
},
{
glyphname = x;
layers = (
{
layerId = "C985D1D4-6D1D-43A7-B614-37C5E085729D";
shapes = (
{
closed = 1;
nodes = (
(242,239,l),
(72,0,l),
(20,0,l),
(213,268,l),
(34,527,l),
(86,527,l),
(244,296,l),
(400,527,l),
(452,527,l),
(273,271,l),
(465,0,l),
(412,0,l)
);
}
);
width = 485;
}
);
unicode = 120;
},
{
glyphname = z;
layers = (
{
layerId = "C985D1D4-6D1D-43A7-B614-37C5E085729D";
shapes = (
{
closed = 1;
nodes = (
(469,485,l),
(97,36,l),
(469,36,l),
(469,0,l),
(53,0,l),
(53,43,l),
(422,492,l),
(58,492,l),
(58,527,l),
(469,527,l)
);
}
);
width = 522;
}
);
unicode = 122;
},
{
glyphname = period;
kernLeft = _kern14;
kernRight = _kern14;
layers = (
{
layerId = "C985D1D4-6D1D-43A7-B614-37C5E085729D";
shapes = (
{
closed = 1;
nodes = (
(137,73,o),
(153,57,o),
(153,33,cs),
(153,10,o),
(138,-8,o),
(113,-8,cs),
(88,-8,o),
(73,10,o),
(73,33,cs),
(73,57,o),
(89,73,o),
(113,73,cs)
);
}
);
width = 226;
}
);
unicode = 46;
},
{
glyphname = comma;
kernLeft = _kern14;
kernRight = _kern14;
layers = (
{
layerId = "C985D1D4-6D1D-43A7-B614-37C5E085729D";
shapes = (
{
closed = 1;
nodes = (
(147,73,o),
(158,45,o),
(158,18,cs),
(158,-37,o),
(128,-83,o),
(83,-108,c),
(68,-88,l),
(91,-75,o),
(118,-46,o),
(123,-6,c),
(106,-12,o),
(72,-3,o),
(72,33,cs),
(72,56,o),
(89,73,o),
(114,73,cs)
);
}
);
width = 230;
}
);
unicode = 44;
},
{
glyphname = A;
kernLeft = _kern30;
kernRight = _kern30;
layers = (
{
layerId = "C985D1D4-6D1D-43A7-B614-37C5E085729D";
shapes = (
{
closed = 1;
nodes = (
(294,707,l),
(341,707,l),
(622,0,l),
(573,0,l),
(509,163,l),
(127,163,l),
(64,0,l),
(16,0,l)
);
},
{
closed = 1;
nodes = (
(141,200,l),
(494,200,l),
(318,657,l)
);
}
);
width = 638;
}
);
unicode = 65;
},
{
glyphname = breve;
layers = (
{
layerId = "C985D1D4-6D1D-43A7-B614-37C5E085729D";
shapes = (
{
closed = 1;
nodes = (
(159,735,l),
(170,680,o),
(214,669,o),
(267,669,cs),
(319,669,o),
(364,680,o),
(375,735,c),
(414,735,l),
(403,658,o),
(338,636,o),
(266,636,cs),
(193,636,o),
(131,657,o),
(120,735,c)
);
}
);
width = 534;
}
);
unicode = 728;
},
{
glyphname = circumflex;
layers = (
{
layerId = "C985D1D4-6D1D-43A7-B614-37C5E085729D";
shapes = (
{
closed = 1;
nodes = (
(337,636,l),
(252,734,l),
(170,636,l),
(126,636,l),
(237,763,l),
(269,763,l),
(380,636,l)
);
}
);
width = 506;
}
);
unicode = 710;
},
{
glyphname = uni0326;
layers = (
{
layerId = "C985D1D4-6D1D-43A7-B614-37C5E085729D";
shapes = (
{
closed = 1;
nodes = (
(-256,-119,o),
(-240,-144,o),
(-240,-172,cs),
(-240,-229,o),
(-270,-275,o),
(-315,-300,c),
(-330,-280,l),
(-307,-267,o),
(-280,-238,o),
(-275,-198,c),
(-292,-204,o),
(-326,-195,o),
(-326,-159,cs),
(-326,-136,o),
(-309,-119,o),
(-285,-119,cs)
);
}
);
width = 0;
}
);
unicode = 806;
},
{
glyphname = exclam;
layers = (
{
layerId = "C985D1D4-6D1D-43A7-B614-37C5E085729D";
shapes = (
{
closed = 1;
nodes = (
(144,72,o),
(162,58,o),
(162,31,cs),
(162,7,o),
(146,-8,o),
(123,-8,cs),
(98,-8,o),
(82,8,o),
(82,32,cs),
(82,57,o),
(98,72,o),
(123,72,cs)
);
},
{
closed = 1;
nodes = (
(104,177,l),
(102,707,l),
(143,707,l),
(141,177,l)
);
}
);
width = 244;
}
);
unicode = 33;
},
{
glyphname = quotedbl;
layers = (
{
layerId = "C985D1D4-6D1D-43A7-B614-37C5E085729D";
shapes = (
{
closed = 1;
nodes = (
(104,503,l),
(69,503,l),
(63,707,l),
(109,707,l)
);
},
{
closed = 1;
nodes = (
(231,503,l),
(196,503,l),
(189,707,l),
(236,707,l)
);
}
);
width = 299;
}
);
unicode = 34;
},
{
glyphname = quotesingle;
layers = (
{
layerId = "C985D1D4-6D1D-43A7-B614-37C5E085729D";
shapes = (
{
closed = 1;
nodes = (
(104,503,l),
(69,503,l),
(63,707,l),
(109,707,l)
);
}
);
width = 172;
}
);
unicode = 39;
},
{
glyphname = numbersign;
layers = (
{
layerId = "C985D1D4-6D1D-43A7-B614-37C5E085729D";
shapes = (
{
closed = 1;
nodes = (
(65,229,l),
(173,229,l),
(200,479,l),
(96,479,l),
(96,514,l),
(203,514,l),
(223,707,l),
(265,707,l),
(245,514,l),
(440,514,l),
(460,707,l),
(501,707,l),
(480,514,l),
(585,514,l),
(585,479,l),
(476,479,l),
(449,229,l),
(554,229,l),
(554,194,l),
(446,194,l),
(425,0,l),
(385,0,l),
(405,194,l),
(210,194,l),
(188,0,l),
(147,0,l),
(169,194,l),
(65,194,l)
);
},
{
closed = 1;
nodes = (
(214,229,l),
(410,229,l),
(436,479,l),
(240,479,l)
);
}
);
width = 650;
}
);
unicode = 35;
},
{
glyphname = percent;
layers = (
{
layerId = "C985D1D4-6D1D-43A7-B614-37C5E085729D";
shapes = (
{
closed = 1;
nodes = (
(152,0,l),
(588,707,l),
(636,707,l),
(201,0,l)
);
},
{
closed = 1;
nodes = (
(110,429,o),
(65,489,o),
(65,572,cs),
(65,655,o),
(109,715,o),
(196,715,cs),
(281,715,o),
(324,647,o),
(324,572,cs),
(324,495,o),
(278,429,o),
(194,429,cs)
);
},
{
closed = 1;
nodes = (
(128,680,o),
(103,628,o),
(103,572,cs),
(103,516,o),
(128,464,o),
(196,464,cs),
(265,464,o),
(285,520,o),
(285,572,cs),
(285,622,o),
(265,680,o),
(196,680,cs)
);
},
{
closed = 1;
nodes = (
(509,-8,o),
(464,52,o),
(464,135,cs),
(464,218,o),
(508,278,o),
(595,278,cs),
(680,278,o),
(723,210,o),
(723,135,cs),
(723,58,o),
(677,-8,o),
(593,-8,cs)
);
},
{
closed = 1;
nodes = (
(527,243,o),
(502,191,o),
(502,135,cs),
(502,79,o),
(527,27,o),
(595,27,cs),
(664,27,o),
(684,83,o),
(684,135,cs),
(684,185,o),
(664,243,o),
(595,243,cs)
);
}
);
width = 789;
}
);
unicode = 37;
},
{
glyphname = asterisk;
layers = (
{
layerId = "C985D1D4-6D1D-43A7-B614-37C5E085729D";
shapes = (
{
closed = 1;
nodes = (
(218,629,l),
(321,663,l),
(331,635,l),
(227,602,l),
(292,513,l),
(267,497,l),
(202,586,l),
(137,497,l),
(112,513,l),
(178,603,l),
(73,635,l),
(82,663,l),
(187,629,l),
(187,739,l),
(218,739,l)
);
}
);
width = 404;
}
);
unicode = 42;
},
{
glyphname = plus;
layers = (
{
layerId = "C985D1D4-6D1D-43A7-B614-37C5E085729D";
shapes = (
{
closed = 1;
nodes = (
(274,536,l),
(274,374,l),
(428,374,l),
(428,336,l),
(274,336,l),
(274,171,l),
(231,171,l),
(231,336,l),
(80,336,l),
(80,374,l),
(231,374,l),
(231,536,l)
);
}
);
width = 508;
}
);
unicode = 43;
},
{
glyphname = slash;
layers = (
{
layerId = "C985D1D4-6D1D-43A7-B614-37C5E085729D";
shapes = (
{
closed = 1;
nodes = (
(354,807,l),
(401,807,l),
(86,-178,l),
(39,-178,l)
);
}
);
width = 440;
}
);
unicode = 47;
},
{
glyphname = colon;
kernLeft = _kern15;
layers = (
{
layerId = "C985D1D4-6D1D-43A7-B614-37C5E085729D";
shapes = (
{
closed = 1;
nodes = (
(138,450,o),
(153,433,o),
(153,409,cs),
(153,385,o),
(140,368,o),
(113,368,cs),
(86,368,o),
(73,385,o),
(73,409,cs),
(73,433,o),
(88,450,o),
(113,450,cs)
);
},
{
closed = 1;
nodes = (
(138,73,o),
(153,56,o),
(153,32,cs),
(153,9,o),
(138,-8,o),
(113,-8,cs),
(88,-8,o),
(73,9,o),
(73,32,cs),
(73,56,o),
(88,73,o),
(113,73,cs)
);
}
);
width = 226;
}
);
unicode = 58;
},
{
glyphname = semicolon;
kernLeft = _kern15;
layers = (
{
layerId = "C985D1D4-6D1D-43A7-B614-37C5E085729D";
shapes = (
{
closed = 1;
nodes = (
(140,450,o),
(157,433,o),
(157,409,cs),
(157,385,o),
(142,368,o),
(115,368,cs),
(91,368,o),
(75,385,o),
(75,409,cs),
(75,433,o),
(91,450,o),
(115,450,cs)
);
},
{
closed = 1;
nodes = (
(148,73,o),
(159,45,o),
(159,18,cs),
(159,-37,o),
(129,-83,o),
(84,-108,c),
(69,-88,l),
(92,-75,o),
(119,-46,o),
(124,-6,c),
(107,-12,o),
(73,-3,o),
(73,33,cs),
(73,56,o),
(90,73,o),
(115,73,cs)
);
}
);
width = 230;
}
);
unicode = 59;
},
{
glyphname = less;
layers = (
{
layerId = "C985D1D4-6D1D-43A7-B614-37C5E085729D";
shapes = (
{
closed = 1;
nodes = (
(45,361,l),
(354,575,l),
(354,532,l),
(91,351,l),
(354,170,l),
(354,126,l),
(45,339,l)
);
}
);
width = 429;
}
);
unicode = 60;
},
{
glyphname = equal;
layers = (
{
layerId = "C985D1D4-6D1D-43A7-B614-37C5E085729D";
shapes = (
{
closed = 1;
nodes = (
(75,240,l),
(454,240,l),
(454,203,l),
(75,203,l)
);
},
{
closed = 1;
nodes = (
(75,495,l),
(454,495,l),
(454,458,l),
(75,458,l)
);
}
);
width = 529;
}
);
unicode = 61;
},
{
glyphname = greater;
layers = (
{
layerId = "C985D1D4-6D1D-43A7-B614-37C5E085729D";
shapes = (
{
closed = 1;
nodes = (
(384,339,l),
(75,126,l),
(75,170,l),
(338,350,l),
(75,532,l),
(75,575,l),
(384,361,l)
);
}
);
width = 429;
}
);
unicode = 62;
},
{
glyphname = at;
layers = (
{
layerId = "C985D1D4-6D1D-43A7-B614-37C5E085729D";
shapes = (
{
closed = 1;
nodes = (
(596,59,o),
(529,41,o),
(472,41,cs),
(360,41,o),
(308,127,o),
(308,231,cs),
(308,355,o),
(375,471,o),
(509,471,cs),
(557,471,o),
(622,453,o),
(652,380,c),
(659,453,l),
(697,453,l),
(686,364,o),
(679,276,o),
(675,188,cs),
(672,128,o),
(684,69,o),
(760,69,cs),
(860,69,o),
(887,206,o),
(887,287,cs),
(887,500,o),
(771,679,o),
(531,679,cs),
(268,679,o),
(122,474,o),
(122,232,cs),
(122,7,o),
(271,-146,o),
(504,-149,c),
(535,-149,o),
(563,-149,o),
(592,-144,c),
(593,-184,l),
(560,-189,o),
(520,-189,o),
(492,-188,cs),
(244,-183,o),
(77,-22,o),
(76,231,cs),
(75,504,o),
(248,715,o),
(532,715,cs),
(781,715,o),
(925,534,o),
(925,294,cs),
(925,169,o),
(887,36,o),
(757,36,cs),
(698,36,o),
(646,61,o),
(641,139,c)
);
},
{
closed = 1;
nodes = (
(345,150,o),
(385,76,o),
(479,76,cs),
(578,76,o),
(644,176,o),
(644,267,cs),
(644,352,o),
(606,437,o),
(506,437,cs),
(395,437,o),
(345,329,o),
(345,233,cs)
);
}
);
width = 1000;
}
);
unicode = 64;
},
{
glyphname = bracketleft;
layers = (
{
layerId = "C985D1D4-6D1D-43A7-B614-37C5E085729D";
shapes = (
{
closed = 1;
nodes = (
(93,-197,l),
(93,796,l),
(259,796,l),
(259,762,l),
(135,762,l),
(135,-164,l),
(259,-164,l),
(259,-197,l)
);
}
);
width = 300;
}
);
unicode = 91;
},
{
glyphname = bracketright;
layers = (
{
layerId = "C985D1D4-6D1D-43A7-B614-37C5E085729D";
shapes = (
{
closed = 1;
nodes = (
(206,796,l),
(206,-197,l),
(41,-197,l),
(41,-164,l),
(164,-164,l),
(164,762,l),
(41,762,l),
(41,796,l)
);
}
);
width = 299;
}
);
unicode = 93;
},
{
glyphname = backslash;
layers = (
{
layerId = "C985D1D4-6D1D-43A7-B614-37C5E085729D";
shapes = (
{
closed = 1;
nodes = (
(86,807,l),
(401,-178,l),
(354,-178,l),
(39,807,l)
);
}
);
width = 440;
}
);
unicode = 92;
},
{
glyphname = asciicircum;
layers = (
{
layerId = "C985D1D4-6D1D-43A7-B614-37C5E085729D";
shapes = (
{
closed = 1;
nodes = (
(200,691,l),
(100,546,l),
(64,546,l),
(184,715,l),
(216,715,l),
(337,546,l),
(301,546,l)
);
}
);
width = 400;
}
);
unicode = 94;
},
{
glyphname = underscore;
layers = (
{
layerId = "C985D1D4-6D1D-43A7-B614-37C5E085729D";
shapes = (
{
closed = 1;
nodes = (
(3,-151,l),
(452,-151,l),
(452,-188,l),
(3,-188,l)
);
}
);
width = 455;
}
);
unicode = 95;
},
{
glyphname = braceleft;
layers = (
{
layerId = "C985D1D4-6D1D-43A7-B614-37C5E085729D";
shapes = (
{
closed = 1;
nodes = (
(182,-68,ls),
(182,-148,o),
(192,-162,o),
(256,-162,cs),
(306,-162,l),
(306,-197,l),
(248,-197,ls),
(181,-197,o),
(147,-177,o),
(147,-106,cs),
(147,127,ls),
(147,205,o),
(134,274,o),
(43,287,c),
(43,312,l),
(132,323,o),
(147,392,o),
(147,470,cs),
(147,706,ls),
(147,777,o),
(180,796,o),
(248,796,cs),
(306,796,l),
(306,761,l),
(247,761,ls),
(174,761,o),
(182,722,o),
(182,662,cs),
(182,455,ls),
(182,394,o),
(170,332,o),
(103,300,c),
(171,276,o),
(182,206,o),
(182,149,cs)
);
}
);
width = 371;
}
);
unicode = 123;
},
{
glyphname = bar;
layers = (
{
layerId = "C985D1D4-6D1D-43A7-B614-37C5E085729D";
shapes = (
{
closed = 1;
nodes = (
(93,-178,l),
(93,807,l),
(135,807,l),
(135,-178,l)
);
}
);
width = 228;
}
);
unicode = 124;
},
{
glyphname = braceright;
layers = (
{
layerId = "C985D1D4-6D1D-43A7-B614-37C5E085729D";
shapes = (
{
closed = 1;
nodes = (
(189,667,ls),
(189,747,o),
(179,761,o),
(115,761,cs),
(65,761,l),
(65,796,l),
(123,796,ls),
(190,796,o),
(224,776,o),
(224,705,cs),
(224,472,ls),
(224,396,o),
(237,323,o),
(328,312,c),
(328,287,l),
(239,276,o),
(224,207,o),
(224,129,cs),
(224,-107,ls),
(224,-178,o),
(191,-197,o),
(123,-197,cs),
(65,-197,l),
(65,-162,l),
(124,-162,ls),
(197,-162,o),
(189,-123,o),
(189,-63,cs),
(189,144,ls),
(189,205,o),
(201,267,o),
(268,299,c),
(200,323,o),
(189,393,o),
(189,450,cs)
);
}
);
width = 371;
}
);
unicode = 125;
},
{
glyphname = Euro;
layers = (
{
layerId = "C985D1D4-6D1D-43A7-B614-37C5E085729D";
shapes = (
{
closed = 1;
nodes = (
(282,-8,o),
(187,84,o),
(156,240,c),
(55,240,l),
(62,278,l),
(152,278,l),
(145,334,o),
(147,380,o),
(154,433,c),
(56,433,l),
(63,470,l),
(160,470,l),
(196,619,o),
(287,715,o),
(438,715,cs),
(504,715,o),
(561,698,o),
(608,665,c),
(589,633,l),
(541,666,o),
(495,679,o),
(435,679,cs),
(315,679,o),
(233,591,o),
(203,470,c),
(539,470,l),
(533,433,l),
(196,433,l),
(191,391,o),
(188,321,o),
(196,278,c),
(505,278,l),
(498,240,l),
(201,240,l),
(228,108,o),
(315,28,o),
(443,28,cs),
(504,28,o),
(551,43,o),
(598,79,c),
(621,48,l),
(572,8,o),
(503,-8,o),
(439,-8,cs)
);
}
);
width = 674;
}
);
unicode = 8364;
},
{
glyphname = quotedblbase;
kernLeft = _kern14;
kernRight = _kern14;
layers = (
{
layerId = "C985D1D4-6D1D-43A7-B614-37C5E085729D";
shapes = (
{
closed = 1;
nodes = (
(148,73,o),
(159,45,o),
(159,18,cs),
(159,-37,o),
(129,-83,o),
(84,-108,c),
(69,-88,l),
(92,-75,o),
(119,-46,o),
(124,-6,c),
(107,-12,o),
(73,-3,o),
(73,33,cs),
(73,56,o),
(90,73,o),
(115,73,cs)
);
},
{
closed = 1;
nodes = (
(298,73,o),
(309,45,o),
(309,18,cs),
(309,-37,o),
(279,-83,o),
(234,-108,c),
(219,-88,l),
(242,-75,o),
(269,-46,o),
(274,-6,c),
(257,-12,o),
(223,-3,o),
(223,33,cs),
(223,56,o),
(240,73,o),
(265,73,cs)
);
}
);
width = 383;
}
);
unicode = 8222;
},
{
glyphname = quotesinglbase;
layers = (
{
layerId = "C985D1D4-6D1D-43A7-B614-37C5E085729D";
shapes = (
{
closed = 1;
nodes = (
(148,73,o),
(159,45,o),
(159,18,cs),
(159,-37,o),
(129,-83,o),
(84,-108,c),
(69,-88,l),
(92,-75,o),
(119,-46,o),
(124,-6,c),
(107,-12,o),
(73,-3,o),
(73,33,cs),
(73,56,o),
(90,73,o),
(115,73,cs)
);
}
);
width = 231;
}
);
unicode = 8218;
},
{
glyphname = quotedblright;
layers = (
{
layerId = "C985D1D4-6D1D-43A7-B614-37C5E085729D";
shapes = (
{
closed = 1;
nodes = (
(148,732,o),
(159,704,o),
(159,677,cs),
(159,622,o),
(129,576,o),
(84,551,c),
(69,571,l),
(92,584,o),
(119,613,o),
(124,653,c),
(107,647,o),
(73,656,o),
(73,692,cs),
(73,715,o),
(90,732,o),
(115,732,cs)
);
},
{
closed = 1;
nodes = (
(298,732,o),
(309,704,o),
(309,677,cs),
(309,622,o),
(279,576,o),
(234,551,c),
(219,571,l),
(242,584,o),
(269,613,o),
(274,653,c),
(257,647,o),
(223,656,o),
(223,692,cs),
(223,715,o),
(240,732,o),
(265,732,cs)
);
}
);
width = 383;
}
);
unicode = 8221;
},
{
glyphname = quoteright;
layers = (
{
layerId = "C985D1D4-6D1D-43A7-B614-37C5E085729D";
shapes = (
{
closed = 1;
nodes = (
(142,732,o),
(159,712,o),
(159,677,cs),
(159,622,o),
(129,576,o),
(84,551,c),
(69,571,l),
(92,584,o),
(119,613,o),
(124,653,c),
(107,647,o),
(73,656,o),
(73,692,cs),
(73,715,o),
(90,732,o),
(115,732,cs)
);
}
);
width = 232;
}
);
unicode = 8217;
},
{
glyphname = quotedblleft;
layers = (
{
layerId = "C985D1D4-6D1D-43A7-B614-37C5E085729D";
shapes = (
{
closed = 1;
nodes = (
(234,551,o),
(223,579,o),
(223,606,cs),
(223,661,o),
(253,707,o),
(298,732,c),
(313,712,l),
(290,699,o),
(263,670,o),
(258,630,c),
(275,633,o),
(309,629,o),
(309,591,cs),
(309,568,o),
(292,551,o),
(267,551,cs)
);
},
{
closed = 1;
nodes = (
(84,551,o),
(73,579,o),
(73,606,cs),
(73,661,o),
(103,707,o),
(148,732,c),
(163,712,l),
(140,699,o),
(113,670,o),
(108,630,c),
(125,633,o),
(159,629,o),
(159,591,cs),
(159,568,o),
(142,551,o),
(117,551,cs)
);
}
);
width = 387;
}
);
unicode = 8220;
},
{
glyphname = quoteleft;
layers = (
{
layerId = "C985D1D4-6D1D-43A7-B614-37C5E085729D";
shapes = (
{
closed = 1;
nodes = (
(84,551,o),
(73,579,o),
(73,606,cs),
(73,661,o),
(103,707,o),
(148,732,c),
(163,712,l),
(140,699,o),
(113,670,o),
(108,630,c),
(125,633,o),
(159,629,o),
(159,591,cs),
(159,568,o),
(142,551,o),
(117,551,cs)
);
}
);
width = 233;
}
);
unicode = 8216;
},
{
glyphname = minus;
layers = (
{
layerId = "C985D1D4-6D1D-43A7-B614-37C5E085729D";
shapes = (
{
closed = 1;
nodes = (
(428,374,l),
(428,336,l),
(80,336,l),
(80,374,l)
);
}
);
width = 508;
}
);
unicode = 8722;
},
{
glyphname = hyphen;
layers = (
{
layerId = "C985D1D4-6D1D-43A7-B614-37C5E085729D";
shapes = (
{
closed = 1;
nodes = (
(80,297,l),
(360,297,l),
(360,260,l),
(80,260,l)
);
}
);
width = 440;
}
);
unicode = 45;
},
{
glyphname = endash;
layers = (
{
layerId = "C985D1D4-6D1D-43A7-B614-37C5E085729D";
shapes = (
{
closed = 1;
nodes = (
(488,260,l),
(80,260,l),
(80,297,l),
(488,297,l)
);
}
);
width = 568;
}
);
unicode = 8211;
},
{
glyphname = emdash;
layers = (
{
layerId = "C985D1D4-6D1D-43A7-B614-37C5E085729D";
shapes = (
{
closed = 1;
nodes = (
(681,260,l),
(80,260,l),
(80,297,l),
(681,297,l)
);
}
);
width = 761;
}
);
unicode = 8212;
},
{
glyphname = grave;
layers = (
{
layerId = "C985D1D4-6D1D-43A7-B614-37C5E085729D";
shapes = (
{
closed = 1;
nodes = (
(105,763,l),
(181,636,l),
(143,636,l),
(55,763,l)
);
}
);
width = 285;
}
);
unicode = 96;
},
{
glyphname = acute;
layers = (
{
layerId = "C985D1D4-6D1D-43A7-B614-37C5E085729D";
shapes = (
{
closed = 1;
nodes = (
(237,763,l),
(149,636,l),
(111,636,l),
(187,763,l)
);
}
);
width = 285;
}
);
unicode = 180;
},
{
glyphname = guillemotright;
layers = (
{
layerId = "C985D1D4-6D1D-43A7-B614-37C5E085729D";
shapes = (
{
closed = 1;
nodes = (
(62,419,l),
(103,419,l),
(211,259,l),
(103,97,l),
(63,97,l),
(170,258,l)
);
},
{
closed = 1;
nodes = (
(249,419,l),
(290,419,l),
(398,259,l),
(290,97,l),
(250,97,l),
(358,258,l)
);
}
);
width = 443;
}
);
unicode = 187;
},
{
glyphname = guilsinglright;
layers = (
{
layerId = "C985D1D4-6D1D-43A7-B614-37C5E085729D";
shapes = (
{
closed = 1;
nodes = (
(63,419,l),
(103,419,l),
(211,259,l),
(103,97,l),
(63,97,l),
(169,258,l)
);
}
);
width = 256;
}
);
unicode = 8250;
},
{
glyphname = guillemotleft;
layers = (
{
layerId = "C985D1D4-6D1D-43A7-B614-37C5E085729D";
shapes = (
{
closed = 1;
nodes = (
(380,97,l),
(340,97,l),
(232,257,l),
(340,419,l),
(381,419,l),
(273,258,l)
);
},
{
closed = 1;
nodes = (
(193,97,l),
(153,97,l),
(45,257,l),
(153,419,l),
(194,419,l),
(85,258,l)
);
}
);
width = 443;
}
);
unicode = 171;
},
{
glyphname = guilsinglleft;
layers = (
{
layerId = "C985D1D4-6D1D-43A7-B614-37C5E085729D";
shapes = (
{
closed = 1;
nodes = (
(193,97,l),
(153,97,l),
(45,257,l),
(153,419,l),
(193,419,l),
(86,258,l)
);
}
);
width = 256;
}
);
unicode = 8249;
},
{
glyphname = uni00AD;
layers = (
{
layerId = "C985D1D4-6D1D-43A7-B614-37C5E085729D";
shapes = (
{
closed = 1;
nodes = (
(80,297,l),
(360,297,l),
(360,260,l),
(80,260,l)
);
}
);
width = 440;
}
);
unicode = 173;
},
{
glyphname = ellipsis;
layers = (
{
layerId = "C985D1D4-6D1D-43A7-B614-37C5E085729D";
shapes = (
{
closed = 1;
nodes = (
(139,73,o),
(154,56,o),
(154,32,cs),
(154,9,o),
(139,-8,o),
(114,-8,cs),
(89,-8,o),
(74,9,o),
(74,32,cs),
(74,56,o),
(89,73,o),
(114,73,cs)
);
},
{
closed = 1;
nodes = (
(359,73,o),
(374,56,o),
(374,32,cs),
(374,9,o),
(359,-8,o),
(334,-8,cs),
(309,-8,o),
(294,9,o),
(294,32,cs),
(294,56,o),
(309,73,o),
(334,73,cs)
);
},
{
closed = 1;
nodes = (
(579,73,o),
(594,56,o),
(594,32,cs),
(594,9,o),
(579,-8,o),
(554,-8,cs),
(529,-8,o),
(514,9,o),
(514,32,cs),
(514,56,o),
(529,73,o),
(554,73,cs)
);
}
);
width = 668;
}
);
unicode = 8230;
},
{
glyphname = uni0445;
layers = (
{
layerId = "C985D1D4-6D1D-43A7-B614-37C5E085729D";
shapes = (
{
closed = 1;
nodes = (
(242,239,l),
(72,0,l),
(20,0,l),
(213,268,l),
(34,527,l),
(86,527,l),
(244,296,l),
(400,527,l),
(452,527,l),
(273,271,l),
(465,0,l),
(412,0,l)
);
}
);
width = 485;
}
);
unicode = 1093;
},
{
glyphname = uni0431;
kernRight = _kern10;
layers = (
{
layerId = "C985D1D4-6D1D-43A7-B614-37C5E085729D";
shapes = (
{
closed = 1;
nodes = (
(136,460,o),
(239,484,o),
(307,484,cs),
(448,484,o),
(527,380,o),
(527,245,cs),
(527,101,o),
(437,-7,o),
(288,-7,cs),
(75,-7,o),
(50,189,o),
(50,354,cs),
(50,517,o),
(74,660,o),
(251,695,cs),
(319,708,o),
(381,711,o),
(441,718,cs),
(461,721,o),
(485,726,o),
(508,730,c),
(508,691,l),
(483,684,o),
(454,683,o),
(429,680,cs),
(386,676,o),
(350,672,o),
(311,668,cs),
(234,659,o),
(165,640,o),
(128,573,cs),
(88,502,o),
(91,399,o),
(88,343,c)
);
},
{
closed = 1;
nodes = (
(415,29,o),
(485,127,o),
(485,243,cs),
(485,359,o),
(417,446,o),
(296,446,cs),
(184,446,o),
(101,350,o),
(101,241,cs),
(101,125,o),
(165,29,o),
(290,29,cs)
);
}
);
width = 576;
}
);
unicode = 1073;
},
{
glyphname = uni0432;
kernLeft = _kern11;
layers = (
{
layerId = "C985D1D4-6D1D-43A7-B614-37C5E085729D";
shapes = (
{
closed = 1;
nodes = (
(73,527,l),
(275,527,ls),
(353,527,o),
(454,510,o),
(460,407,cs),
(462,367,o),
(445,303,o),
(369,279,c),
(452,264,o),
(493,218,o),
(493,147,cs),
(493,39,o),
(405,0,o),
(311,0,cs),
(73,0,l)
);
},
{
closed = 1;
nodes = (
(115,493,l),
(115,287,l),
(258,287,ls),
(326,287,o),
(418,313,o),
(418,393,cs),
(418,483,o),
(334,493,o),
(264,493,cs)
);
},
{
closed = 1;
nodes = (
(115,34,l),
(293,34,ls),
(362,34,o),
(451,50,o),
(451,140,cs),
(451,244,o),
(350,253,o),
(273,253,cs),
(115,253,l)
);
}
);
width = 548;
}
);
unicode = 1074;
},
{
glyphname = uni0433;
kernLeft = _kern11;
kernRight = _kern24;
layers = (
{
layerId = "C985D1D4-6D1D-43A7-B614-37C5E085729D";
shapes = (
{
closed = 1;
nodes = (
(73,0,l),
(73,527,l),
(423,527,l),
(423,492,l),
(115,492,l),
(115,0,l)
);
}
);
width = 452;
}
);
unicode = 1075;
},
{
glyphname = uni0434;
kernRight = _kern13;
layers = (
{
layerId = "C985D1D4-6D1D-43A7-B614-37C5E085729D";
shapes = (
{
closed = 1;
nodes = (
(502,527,l),
(502,34,l),
(577,34,l),
(577,-176,l),
(535,-176,l),
(535,0,l),
(67,0,l),
(67,-176,l),
(25,-176,l),
(25,34,l),
(77,45,o),
(107,93,o),
(124,160,cs),
(140,227,o),
(141,302,o),
(141,343,cs),
(142,404,o),
(143,466,o),
(143,527,c)
);
},
{
closed = 1;
nodes = (
(460,493,l),
(184,493,l),
(183,437,o),
(182,381,o),
(181,325,cs),
(178,221,o),
(174,108,o),
(106,34,c),
(460,34,l)
);
}
);
width = 602;
}
);
unicode = 1076;
},
{
glyphname = uni0436;
layers = (
{
layerId = "C985D1D4-6D1D-43A7-B614-37C5E085729D";
shapes = (
{
closed = 1;
nodes = (
(349,0,l),
(349,247,l),
(220,247,l),
(68,0,l),
(20,0,l),
(189,277,l),
(36,527,l),
(84,527,l),
(232,282,l),
(349,282,l),
(349,527,l),
(391,527,l),
(391,282,l),
(508,282,l),
(657,527,l),
(705,527,l),
(551,277,l),
(721,0,l),
(673,0,l),
(521,247,l),
(391,247,l),
(391,0,l)
);
}
);
width = 741;
}
);
unicode = 1078;
},
{
glyphname = uni043A;
kernLeft = _kern11;
layers = (
{
layerId = "C985D1D4-6D1D-43A7-B614-37C5E085729D";
shapes = (
{
closed = 1;
nodes = (
(73,0,l),
(73,527,l),
(115,527,l),
(115,281,l),
(252,281,l),
(421,527,l),
(468,527,l),
(292,273,l),
(486,0,l),
(438,0,l),
(260,246,l),
(115,246,l),
(115,0,l)
);
}
);
width = 499;
}
);
unicode = 1082;
},
{
glyphname = uni0438;
kernLeft = _kern11;
layers = (
{
layerId = "C985D1D4-6D1D-43A7-B614-37C5E085729D";
shapes = (
{
closed = 1;
nodes = (
(140,0,l),
(73,0,l),
(73,527,l),
(115,527,l),
(115,36,l),
(442,527,l),
(508,527,l),
(508,0,l),
(466,0,l),
(466,492,l)
);
}
);
width = 581;
}
);
unicode = 1080;
},
{
glyphname = uni0439;
layers = (
{
layerId = "C985D1D4-6D1D-43A7-B614-37C5E085729D";
shapes = (
{
closed = 1;
nodes = (
(341,663,o),
(399,676,o),
(415,738,c),
(454,738,l),
(438,660,o),
(365,632,o),
(290,632,cs),
(215,632,o),
(146,660,o),
(132,738,c),
(170,738,l),
(186,676,o),
(242,663,o),
(292,663,cs)
);
},
{
closed = 1;
nodes = (
(140,0,l),
(73,0,l),
(73,527,l),
(115,527,l),
(115,36,l),
(442,527,l),
(508,527,l),
(508,0,l),
(466,0,l),
(466,492,l)
);
}
);
width = 581;
}
);
unicode = 1081;
},
{
glyphname = uni043B;
layers = (
{
layerId = "C985D1D4-6D1D-43A7-B614-37C5E085729D";
shapes = (
{
closed = 1;
nodes = (
(495,527,l),
(495,0,l),
(453,0,l),
(453,493,l),
(185,493,l),
(182,400,o),
(179,318,o),
(176,234,cs),
(171,125,o),
(151,4,o),
(25,-4,c),
(25,37,l),
(108,45,o),
(129,128,o),
(134,225,cs),
(139,317,o),
(141,434,o),
(144,527,c)
);
}
);
width = 568;
}
);
unicode = 1083;
},
{
glyphname = uni043C;
kernLeft = _kern11;
layers = (
{
layerId = "C985D1D4-6D1D-43A7-B614-37C5E085729D";
shapes = (
{
closed = 1;
nodes = (
(73,527,l),
(142,527,l),
(347,201,l),
(552,527,l),
(619,527,l),
(619,0,l),
(577,0,l),
(577,492,l),
(353,139,l),
(339,139,l),
(115,492,l),
(115,0,l),
(73,0,l)
);
}
);
width = 692;
}
);
unicode = 1084;
},
{
glyphname = uni043D;
kernLeft = _kern11;
layers = (
{
layerId = "C985D1D4-6D1D-43A7-B614-37C5E085729D";
shapes = (
{
closed = 1;
nodes = (
(73,0,l),
(73,527,l),
(115,527,l),
(115,276,l),
(457,276,l),
(457,527,l),
(499,527,l),
(499,0,l),
(457,0,l),
(457,241,l),
(115,241,l),
(115,0,l)
);
}
);
width = 572;
}
);
unicode = 1085;
},
{
glyphname = uni043F;
kernLeft = _kern11;
layers = (
{
layerId = "C985D1D4-6D1D-43A7-B614-37C5E085729D";
shapes = (
{
closed = 1;
nodes = (
(73,0,l),
(73,527,l),
(503,527,l),
(503,0,l),
(461,0,l),
(461,492,l),
(115,492,l),
(115,0,l)
);
}
);
width = 576;
}
);
unicode = 1087;
},
{
glyphname = uni0442;
layers = (
{
layerId = "C985D1D4-6D1D-43A7-B614-37C5E085729D";
shapes = (
{
closed = 1;
nodes = (
(445,527,l),
(445,492,l),
(246,492,l),
(246,0,l),
(204,0,l),
(204,492,l),
(4,492,l),
(4,527,l)
);
}
);
width = 449;
}
);
unicode = 1090;
},
{
glyphname = uni0444;
kernLeft = _kern9;
kernRight = _kern10;
layers = (
{
layerId = "C985D1D4-6D1D-43A7-B614-37C5E085729D";
shapes = (
{
closed = 1;
nodes = (
(351,704,l),
(393,704,l),
(393,534,l),
(580,531,o),
(695,444,o),
(695,259,cs),
(695,78,o),
(576,-3,o),
(393,-8,c),
(393,-206,l),
(351,-206,l),
(351,-8,l),
(188,-3,o),
(49,64,o),
(49,259,cs),
(49,446,o),
(166,531,o),
(351,534,c)
);
},
{
closed = 1;
nodes = (
(393,29,l),
(548,29,o),
(653,99,o),
(653,262,cs),
(653,422,o),
(558,498,o),
(393,498,c)
);
},
{
closed = 1;
nodes = (
(351,498,l),
(186,498,o),
(91,422,o),
(91,262,cs),
(91,100,o),
(198,32,o),
(351,29,c)
);
}
);
width = 744;
}
);
unicode = 1092;
},
{
glyphname = uni0446;
kernLeft = _kern11;
kernRight = _kern13;
layers = (
{
layerId = "C985D1D4-6D1D-43A7-B614-37C5E085729D";
shapes = (
{
closed = 1;
nodes = (
(448,36,l),
(448,527,l),
(490,527,l),
(490,36,l),
(565,36,l),
(565,-176,l),
(526,-176,l),
(526,0,l),
(73,0,l),
(73,527,l),
(115,527,l),
(115,36,l)
);
}
);
width = 593;
}
);
unicode = 1094;
},
{
glyphname = uni0447;
kernLeft = _kern11;
layers = (
{
layerId = "C985D1D4-6D1D-43A7-B614-37C5E085729D";
shapes = (
{
closed = 1;
nodes = (
(50,527,l),
(92,527,l),
(92,421,ls),
(92,296,o),
(127,241,o),
(263,241,cs),
(310,241,o),
(352,242,o),
(415,249,c),
(415,527,l),
(457,527,l),
(457,0,l),
(415,0,l),
(415,210,l),
(359,205,o),
(292,202,o),
(258,202,cs),
(111,202,o),
(50,262,o),
(50,411,cs)
);
}
);
width = 530;
}
);
unicode = 1095;
},
{
glyphname = uni0448;
kernLeft = _kern11;
layers = (
{
layerId = "C985D1D4-6D1D-43A7-B614-37C5E085729D";
shapes = (
{
closed = 1;
nodes = (
(73,527,l),
(115,527,l),
(115,36,l),
(383,36,l),
(383,527,l),
(425,527,l),
(425,36,l),
(696,36,l),
(696,527,l),
(738,527,l),
(738,0,l),
(73,0,l)
);
}
);
width = 811;
}
);
unicode = 1096;
},
{
glyphname = uni0449;
kernLeft = _kern11;
kernRight = _kern13;
layers = (
{
layerId = "C985D1D4-6D1D-43A7-B614-37C5E085729D";
shapes = (
{
closed = 1;
nodes = (
(73,527,l),
(115,527,l),
(115,36,l),
(383,36,l),
(383,527,l),
(425,527,l),
(425,36,l),
(696,36,l),
(696,527,l),
(738,527,l),
(738,36,l),
(813,36,l),
(813,-176,l),
(774,-176,l),
(774,0,l),
(73,0,l)
);
}
);
width = 841;
}
);
unicode = 1097;
},
{
glyphname = uni044A;
layers = (
{
layerId = "C985D1D4-6D1D-43A7-B614-37C5E085729D";
shapes = (
{
closed = 1;
nodes = (
(161,493,l),
(20,493,l),
(20,527,l),
(203,527,l),
(203,309,l),
(340,309,ls),
(448,309,o),
(558,282,o),
(558,163,cs),
(558,41,o),
(466,0,o),
(355,0,cs),
(161,0,l)
);
},
{
closed = 1;
nodes = (
(324,34,ls),
(416,34,o),
(516,43,o),
(516,161,cs),
(516,262,o),
(415,274,o),
(334,274,cs),
(203,274,l),
(203,34,l)
);
}
);
width = 604;
}
);
unicode = 1098;
},
{
glyphname = uni044B;
kernLeft = _kern11;
layers = (
{
layerId = "C985D1D4-6D1D-43A7-B614-37C5E085729D";
shapes = (
{
closed = 1;
nodes = (
(554,0,l),
(554,527,l),
(596,527,l),
(596,0,l)
);
},
{
closed = 1;
nodes = (
(73,527,l),
(115,527,l),
(115,309,l),
(228,309,ls),
(334,309,o),
(447,291,o),
(447,164,cs),
(447,42,o),
(358,0,o),
(246,0,cs),
(73,0,l)
);
},
{
closed = 1;
nodes = (
(209,34,ls),
(301,34,o),
(405,43,o),
(405,161,cs),
(405,262,o),
(308,274,o),
(227,274,cs),
(115,274,l),
(115,34,l)
);
}
);
width = 669;
}
);
unicode = 1099;
},
{
glyphname = uni044C;
kernLeft = _kern11;
layers = (
{
layerId = "C985D1D4-6D1D-43A7-B614-37C5E085729D";
shapes = (
{
closed = 1;
nodes = (
(73,527,l),
(115,527,l),
(115,309,l),
(251,309,ls),
(358,309,o),
(470,288,o),
(470,164,cs),
(470,42,o),
(379,0,o),
(269,0,cs),
(73,0,l)
);
},
{
closed = 1;
nodes = (
(234,34,ls),
(326,34,o),
(428,43,o),
(428,161,cs),
(428,262,o),
(329,274,o),
(249,274,cs),
(115,274,l),
(115,34,l)
);
}
);
width = 520;
}
);
unicode = 1100;
},
{
glyphname = uni044E;
kernLeft = _kern11;
kernRight = _kern10;
layers = (
{
layerId = "C985D1D4-6D1D-43A7-B614-37C5E085729D";
shapes = (
{
closed = 1;
nodes = (
(676,534,o),
(758,418,o),
(758,263,cs),
(758,106,o),
(673,-7,o),
(510,-7,cs),
(358,-7,o),
(279,92,o),
(268,246,c),
(115,246,l),
(115,0,l),
(73,0,l),
(73,527,l),
(115,527,l),
(115,281,l),
(268,281,l),
(279,432,o),
(359,534,o),
(511,534,cs)
);
},
{
closed = 1;
nodes = (
(654,29,o),
(716,134,o),
(716,263,cs),
(716,393,o),
(654,498,o),
(511,498,cs),
(366,498,o),
(310,390,o),
(310,263,cs),
(310,134,o),
(370,29,o),
(511,29,cs)
);
}
);
width = 807;
}
);
unicode = 1102;
},
{
glyphname = uni044F;
kernLeft = _kern11;
layers = (
{
layerId = "C985D1D4-6D1D-43A7-B614-37C5E085729D";
shapes = (
{
closed = 1;
nodes = (
(448,0,l),
(406,0,l),
(406,213,l),
(237,213,l),
(94,0,l),
(44,0,l),
(192,218,l),
(104,231,o),
(40,278,o),
(40,371,cs),
(40,499,o),
(132,527,o),
(241,527,cs),
(448,527,l)
);
},
{
closed = 1;
nodes = (
(406,492,l),
(254,492,ls),
(169,492,o),
(82,484,o),
(82,376,cs),
(82,259,o),
(188,248,o),
(268,248,cs),
(406,248,l)
);
}
);
width = 521;
}
);
unicode = 1103;
},
{
glyphname = uni0410;
kernLeft = _kern30;
kernRight = _kern30;
layers = (
{
layerId = "C985D1D4-6D1D-43A7-B614-37C5E085729D";
shapes = (
{
closed = 1;
nodes = (
(294,707,l),
(341,707,l),
(622,0,l),
(573,0,l),
(509,163,l),
(127,163,l),
(64,0,l),
(16,0,l)
);
},
{
closed = 1;
nodes = (
(141,200,l),
(494,200,l),
(318,657,l)
);
}
);
width = 638;
}
);
unicode = 1040;
},
{
glyphname = uni0415;
layers = (
{
layerId = "C985D1D4-6D1D-43A7-B614-37C5E085729D";
shapes = (
{
closed = 1;
nodes = (
(93,707,l),
(549,707,l),
(549,669,l),
(135,669,l),
(135,370,l),
(507,370,l),
(507,332,l),
(135,332,l),
(135,38,l),
(549,38,l),
(549,0,l),
(93,0,l)
);
}
);
width = 603;
}
);
unicode = 1045;
},
{
glyphname = uni041C;
layers = (
{
layerId = "C985D1D4-6D1D-43A7-B614-37C5E085729D";
shapes = (
{
closed = 1;
nodes = (
(742,707,l),
(742,0,l),
(700,0,l),
(700,657,l),
(431,195,l),
(409,195,l),
(135,657,l),
(135,0,l),
(93,0,l),
(93,707,l),
(153,707,l),
(421,255,l),
(683,707,l)
);
}
);
width = 835;
}
);
unicode = 1052;
},
{
glyphname = uni041D;
layers = (
{
layerId = "C985D1D4-6D1D-43A7-B614-37C5E085729D";
shapes = (
{
closed = 1;
nodes = (
(135,365,l),
(590,365,l),
(590,707,l),
(632,707,l),
(632,0,l),
(590,0,l),
(590,328,l),
(135,328,l),
(135,0,l),
(93,0,l),
(93,707,l),
(135,707,l)
);
}
);
width = 725;
}
);
unicode = 1053;
},
{
glyphname = uni0420;
layers = (
{
layerId = "C985D1D4-6D1D-43A7-B614-37C5E085729D";
shapes = (
{
closed = 1;
nodes = (
(93,707,l),
(328,707,ls),
(479,707,o),
(569,636,o),
(569,480,cs),
(569,324,o),
(456,250,o),
(308,250,cs),
(135,250,l),
(135,0,l),
(93,0,l)
);
},
{
closed = 1;
nodes = (
(306,287,ls),
(437,287,o),
(525,346,o),
(525,484,cs),
(525,617,o),
(447,669,o),
(322,669,cs),
(135,669,l),
(135,287,l)
);
}
);
width = 619;
}
);
unicode = 1056;
},
{
glyphname = uni0422;
kernLeft = _kern28;
kernRight = _kern28;
layers = (
{
layerId = "C985D1D4-6D1D-43A7-B614-37C5E085729D";
shapes = (
{
closed = 1;
nodes = (
(546,669,l),
(304,669,l),
(304,0,l),
(262,0,l),
(262,669,l),
(20,669,l),
(20,707,l),
(546,707,l)
);
}
);
width = 566;
}
);
unicode = 1058;
},
{
glyphname = uni0425;
layers = (
{
layerId = "C985D1D4-6D1D-43A7-B614-37C5E085729D";
shapes = (
{
closed = 1;
nodes = (
(473,707,l),
(529,707,l),
(309,358,l),
(538,0,l),
(483,0,l),
(278,323,l),
(74,0,l),
(20,0,l),
(249,356,l),
(28,707,l),
(84,707,l),
(279,390,l)
);
}
);
width = 558;
}
);
unicode = 1061;
},
{
glyphname = T;
kernLeft = _kern28;
kernRight = _kern28;
layers = (
{
layerId = "C985D1D4-6D1D-43A7-B614-37C5E085729D";
shapes = (
{
closed = 1;
nodes = (
(546,669,l),
(304,669,l),
(304,0,l),
(262,0,l),
(262,669,l),
(20,669,l),
(20,707,l),
(546,707,l)
);
}
);
width = 566;
}
);
unicode = 84;
},
{
glyphname = uni0412;
layers = (
{
layerId = "C985D1D4-6D1D-43A7-B614-37C5E085729D";
shapes = (
{
closed = 1;
nodes = (
(92,707,l),
(331,707,ls),
(447,707,o),
(557,680,o),
(557,539,cs),
(557,447,o),
(500,390,o),
(419,369,c),
(523,361,o),
(596,291,o),
(596,187,cs),
(596,35,o),
(454,0,o),
(325,0,cs),
(92,0,l)
);
},
{
closed = 1;
nodes = (
(134,669,l),
(134,380,l),
(298,380,ls),
(397,380,o),
(518,415,o),
(518,535,cs),
(518,652,o),
(428,669,o),
(332,669,cs)
);
},
{
closed = 1;
nodes = (
(322,38,ls),
(427,38,o),
(554,50,o),
(554,190,cs),
(554,312,o),
(445,343,o),
(344,343,cs),
(134,343,l),
(134,38,l)
);
}
);
width = 651;
}
);
unicode = 1042;
},
{
glyphname = uni041F;
layers = (
{
layerId = "C985D1D4-6D1D-43A7-B614-37C5E085729D";
shapes = (
{
closed = 1;
nodes = (
(635,0,l),
(593,0,l),
(593,669,l),
(135,669,l),
(135,0,l),
(93,0,l),
(93,707,l),
(635,707,l)
);
}
);
width = 728;
}
);
unicode = 1055;
},
{
glyphname = uni0413;
kernLeft = _kern23;
kernRight = _kern23;
layers = (
{
layerId = "C985D1D4-6D1D-43A7-B614-37C5E085729D";
shapes = (
{
closed = 1;
nodes = (
(93,0,l),
(93,707,l),
(528,707,l),
(528,669,l),
(135,669,l),
(135,0,l)
);
}
);
width = 561;
}
);
unicode = 1043;
},
{
glyphname = uni041B;
layers = (
{
layerId = "C985D1D4-6D1D-43A7-B614-37C5E085729D";
shapes = (
{
closed = 1;
nodes = (
(553,0,l),
(553,669,l),
(186,669,l),
(183,617,o),
(183,553,o),
(183,501,cs),
(183,449,o),
(180,395,o),
(180,344,cs),
(179,292,o),
(176,179,o),
(158,116,cs),
(135,39,o),
(93,-1,o),
(14,-6,c),
(14,38,l),
(53,42,o),
(83,61,o),
(101,95,cs),
(131,152,o),
(134,268,o),
(136,342,cs),
(138,410,o),
(140,475,o),
(140,543,cs),
(140,599,o),
(141,651,o),
(142,707,c),
(595,707,l),
(595,0,l)
);
}
);
width = 688;
}
);
unicode = 1051;
},
{
glyphname = uni0414;
kernRight = _kern12;
layers = (
{
layerId = "C985D1D4-6D1D-43A7-B614-37C5E085729D";
shapes = (
{
closed = 1;
nodes = (
(29,-207,l),
(29,38,l),
(82,49,o),
(113,94,o),
(131,141,cs),
(158,212,o),
(159,327,o),
(162,419,cs),
(165,526,o),
(165,619,o),
(168,707,c),
(600,707,l),
(600,38,l),
(690,38,l),
(690,-207,l),
(648,-207,l),
(648,0,l),
(72,0,l),
(72,-207,l)
);
},
{
closed = 1;
nodes = (
(558,38,l),
(558,669,l),
(211,669,l),
(200,314,ls),
(198,246,o),
(196,103,o),
(113,38,c)
);
}
);
width = 718;
}
);
unicode = 1044;
},
{
glyphname = uni0411;
layers = (
{
layerId = "C985D1D4-6D1D-43A7-B614-37C5E085729D";
shapes = (
{
closed = 1;
nodes = (
(93,707,l),
(555,707,l),
(555,669,l),
(135,669,l),
(135,396,l),
(334,396,ls),
(457,396,o),
(588,369,o),
(588,207,cs),
(588,49,o),
(470,0,o),
(328,0,cs),
(93,0,l)
);
},
{
closed = 1;
nodes = (
(135,38,l),
(316,38,ls),
(434,38,o),
(544,67,o),
(544,204,cs),
(544,347,o),
(430,358,o),
(318,358,cs),
(135,358,l)
);
}
);
width = 649;
}
);
unicode = 1041;
},
{
glyphname = uni0416;
layers = (
{
layerId = "C985D1D4-6D1D-43A7-B614-37C5E085729D";
shapes = (
{
closed = 1;
nodes = (
(403,0,l),
(403,328,l),
(246,328,l),
(70,0,l),
(20,0,l),
(213,357,l),
(21,707,l),
(68,707,l),
(255,365,l),
(403,365,l),
(403,707,l),
(445,707,l),
(445,365,l),
(597,365,l),
(782,707,l),
(827,707,l),
(636,357,l),
(829,0,l),
(780,0,l),
(604,328,l),
(445,328,l),
(445,0,l)
);
}
);
width = 849;
}
);
unicode = 1046;
},
{
glyphname = uni0417;
kernLeft = _kern7;
kernRight = _kern8;
layers = (
{
layerId = "C985D1D4-6D1D-43A7-B614-37C5E085729D";
shapes = (
{
closed = 1;
nodes = (
(95,146,l),
(114,52,o),
(225,28,o),
(305,28,cs),
(408,28,o),
(525,60,o),
(525,188,cs),
(525,320,o),
(414,342,o),
(309,342,cs),
(215,342,l),
(215,379,l),
(279,379,ls),
(370,379,o),
(494,423,o),
(494,532,cs),
(494,641,o),
(405,679,o),
(310,679,cs),
(232,679,o),
(132,653,o),
(113,565,c),
(69,565,l),
(80,682,o),
(218,715,o),
(314,715,cs),
(425,715,o),
(534,671,o),
(534,539,cs),
(534,466,o),
(492,396,o),
(391,369,c),
(511,356,o),
(567,282,o),
(567,188,cs),
(567,41,o),
(436,-8,o),
(311,-8,cs),
(203,-8,o),
(69,24,o),
(50,146,c)
);
}
);
width = 622;
}
);
unicode = 1047;
},
{
glyphname = uni0418;
layers = (
{
layerId = "C985D1D4-6D1D-43A7-B614-37C5E085729D";
shapes = (
{
closed = 1;
nodes = (
(93,0,l),
(93,707,l),
(135,707,l),
(135,37,l),
(577,707,l),
(641,707,l),
(641,0,l),
(598,0,l),
(598,665,l),
(156,0,l)
);
}
);
width = 734;
}
);
unicode = 1048;
},
{
glyphname = uni0419;
layers = (
{
layerId = "C985D1D4-6D1D-43A7-B614-37C5E085729D";
shapes = (
{
closed = 1;
nodes = (
(430,850,o),
(484,870,o),
(500,931,c),
(538,931,l),
(525,851,o),
(449,818,o),
(368,818,cs),
(288,818,o),
(209,848,o),
(198,931,c),
(236,931,l),
(252,870,o),
(307,850,o),
(369,850,cs)
);
},
{
closed = 1;
nodes = (
(93,0,l),
(93,707,l),
(135,707,l),
(135,37,l),
(577,707,l),
(641,707,l),
(641,0,l),
(598,0,l),
(598,665,l),
(156,0,l)
);
}
);
width = 734;
}
);
unicode = 1049;
},
{
glyphname = uni041A;
layers = (
{
layerId = "C985D1D4-6D1D-43A7-B614-37C5E085729D";
shapes = (
{
closed = 1;
nodes = (
(93,0,l),
(93,707,l),
(135,707,l),
(135,360,l),
(280,360,l),
(528,707,l),
(576,707,l),
(324,355,l),
(579,0,l),
(528,0,l),
(293,323,l),
(135,323,l),
(135,0,l)
);
}
);
width = 599;
}
);
unicode = 1050;
},
{
glyphname = uni0423;
layers = (
{
layerId = "C985D1D4-6D1D-43A7-B614-37C5E085729D";
shapes = (
{
closed = 1;
nodes = (
(109,42,l),
(221,42,o),
(266,106,o),
(295,165,c),
(26,707,l),
(77,707,l),
(318,214,l),
(526,707,l),
(573,707,l),
(338,155,ls),
(306,80,o),
(242,2,o),
(109,-1,c)
);
}
);
width = 578;
}
);
unicode = 1059;
},
{
glyphname = uni0424;
kernLeft = _kern7;
kernRight = _kern8;
layers = (
{
layerId = "C985D1D4-6D1D-43A7-B614-37C5E085729D";
shapes = (
{
closed = 1;
nodes = (
(435,741,l),
(435,631,l),
(520,631,ls),
(672,631,o),
(774,527,o),
(774,374,cs),
(774,225,o),
(687,104,o),
(532,104,cs),
(435,104,l),
(435,-16,l),
(393,-16,l),
(393,104,l),
(295,104,ls),
(136,104,o),
(54,221,o),
(54,374,cs),
(54,527,o),
(157,631,o),
(310,631,cs),
(393,631,l),
(393,741,l)
);
},
{
closed = 1;
nodes = (
(393,136,l),
(393,598,l),
(316,598,ls),
(182,598,o),
(96,507,o),
(96,376,cs),
(96,237,o),
(167,136,o),
(316,136,cs)
);
},
{
closed = 1;
nodes = (
(435,136,l),
(513,136,ls),
(663,136,o),
(732,237,o),
(732,376,cs),
(732,507,o),
(644,598,o),
(512,598,cs),
(435,598,l)
);
}
);
width = 828;
}
);
unicode = 1060;
},
{
glyphname = uni0426;
kernRight = _kern12;
layers = (
{
layerId = "C985D1D4-6D1D-43A7-B614-37C5E085729D";
shapes = (
{
closed = 1;
nodes = (
(93,0,l),
(93,707,l),
(135,707,l),
(135,38,l),
(568,38,l),
(568,707,l),
(611,707,l),
(611,38,l),
(702,38,l),
(702,-207,l),
(659,-207,l),
(659,0,l)
);
}
);
width = 727;
}
);
unicode = 1062;
},
{
glyphname = uni0427;
layers = (
{
layerId = "C985D1D4-6D1D-43A7-B614-37C5E085729D";
shapes = (
{
closed = 1;
nodes = (
(392,301,o),
(439,304,o),
(506,313,c),
(506,707,l),
(549,707,l),
(549,0,l),
(506,0,l),
(506,276,l),
(445,268,o),
(392,265,o),
(341,265,cs),
(172,265,o),
(70,307,o),
(70,497,cs),
(70,707,l),
(112,707,l),
(112,509,ls),
(112,352,o),
(177,301,o),
(332,301,cs)
);
}
);
width = 642;
}
);
unicode = 1063;
},
{
glyphname = uni0428;
layers = (
{
layerId = "C985D1D4-6D1D-43A7-B614-37C5E085729D";
shapes = (
{
closed = 1;
nodes = (
(93,707,l),
(135,707,l),
(135,38,l),
(468,38,l),
(468,707,l),
(510,707,l),
(510,38,l),
(843,38,l),
(843,707,l),
(886,707,l),
(886,0,l),
(93,0,l)
);
}
);
width = 979;
}
);
unicode = 1064;
},
{
glyphname = uni0429;
kernRight = _kern12;
layers = (
{
layerId = "C985D1D4-6D1D-43A7-B614-37C5E085729D";
shapes = (
{
closed = 1;
nodes = (
(93,707,l),
(135,707,l),
(135,38,l),
(468,38,l),
(468,707,l),
(510,707,l),
(510,38,l),
(843,38,l),
(843,707,l),
(886,707,l),
(886,38,l),
(977,38,l),
(977,-207,l),
(934,-207,l),
(934,0,l),
(93,0,l)
);
}
);
width = 1002;
}
);
unicode = 1065;
},
{
glyphname = uni042A;
layers = (
{
layerId = "C985D1D4-6D1D-43A7-B614-37C5E085729D";
shapes = (
{
closed = 1;
nodes = (
(192,669,l),
(20,669,l),
(20,707,l),
(234,707,l),
(234,396,l),
(398,396,ls),
(525,396,o),
(672,374,o),
(672,208,cs),
(672,52,o),
(548,0,o),
(409,0,cs),
(192,0,l)
);
},
{
closed = 1;
nodes = (
(234,38,l),
(387,38,ls),
(500,38,o),
(630,59,o),
(630,203,cs),
(630,346,o),
(506,359,o),
(396,359,cs),
(234,359,l)
);
}
);
width = 728;
}
);
unicode = 1066;
},
{
glyphname = uni042B;
layers = (
{
layerId = "C985D1D4-6D1D-43A7-B614-37C5E085729D";
shapes = (
{
closed = 1;
nodes = (
(93,707,l),
(135,707,l),
(135,396,l),
(264,396,ls),
(402,396,o),
(550,379,o),
(550,209,cs),
(550,50,o),
(429,0,o),
(287,0,cs),
(93,0,l)
);
},
{
closed = 1;
nodes = (
(135,38,l),
(274,38,ls),
(386,38,o),
(508,59,o),
(508,203,cs),
(508,346,o),
(390,359,o),
(281,359,cs),
(135,359,l)
);
},
{
closed = 1;
nodes = (
(685,0,l),
(685,707,l),
(727,707,l),
(727,0,l)
);
}
);
width = 820;
}
);
unicode = 1067;
},
{
glyphname = uni042C;
layers = (
{
layerId = "C985D1D4-6D1D-43A7-B614-37C5E085729D";
shapes = (
{
closed = 1;
nodes = (
(92,707,l),
(134,707,l),
(134,396,l),
(286,396,ls),
(418,396,o),
(571,375,o),
(571,207,cs),
(571,48,o),
(450,0,o),
(309,0,cs),
(92,0,l)
);
},
{
closed = 1;
nodes = (
(134,38,l),
(295,38,ls),
(407,38,o),
(530,59,o),
(530,203,cs),
(530,346,o),
(408,359,o),
(297,359,cs),
(134,359,l)
);
}
);
width = 627;
}
);
unicode = 1068;
},
{
glyphname = uni042D;
kernLeft = _kern7;
kernRight = _kern8;
layers = (
{
layerId = "C985D1D4-6D1D-43A7-B614-37C5E085729D";
shapes = (
{
closed = 1;
nodes = (
(245,679,o),
(141,646,o),
(101,558,c),
(55,558,l),
(103,679,o),
(228,715,o),
(330,715,cs),
(546,715,o),
(643,538,o),
(643,348,cs),
(643,144,o),
(540,-8,o),
(322,-8,cs),
(208,-8,o),
(93,37,o),
(48,149,c),
(99,149,l),
(136,65,o),
(236,28,o),
(323,28,cs),
(507,28,o),
(596,156,o),
(601,335,c),
(224,335,l),
(224,373,l),
(601,373,l),
(593,536,o),
(503,679,o),
(332,679,cs)
);
}
);
width = 697;
}
);
unicode = 1069;
},
{
glyphname = uni042E;
kernRight = _kern8;
layers = (
{
layerId = "C985D1D4-6D1D-43A7-B614-37C5E085729D";
shapes = (
{
closed = 1;
nodes = (
(93,0,l),
(93,707,l),
(135,707,l),
(135,373,l),
(284,373,l),
(292,570,o),
(399,715,o),
(602,715,cs),
(820,715,o),
(932,561,o),
(932,353,cs),
(932,145,o),
(820,-8,o),
(602,-8,cs),
(397,-8,o),
(292,137,o),
(284,335,c),
(135,335,l),
(135,0,l)
);
},
{
closed = 1;
nodes = (
(410,679,o),
(325,528,o),
(325,353,cs),
(325,181,o),
(412,28,o),
(602,28,cs),
(797,28,o),
(890,173,o),
(890,353,cs),
(890,531,o),
(797,679,o),
(602,679,cs)
);
}
);
width = 986;
}
);
unicode = 1070;
},
{
glyphname = uni042F;
layers = (
{
layerId = "C985D1D4-6D1D-43A7-B614-37C5E085729D";
shapes = (
{
closed = 1;
nodes = (
(130,0,l),
(81,0,l),
(240,290,l),
(124,313,o),
(61,381,o),
(61,493,cs),
(61,649,o),
(171,707,o),
(317,707,cs),
(564,707,l),
(564,0,l),
(522,0,l),
(522,284,l),
(282,284,l)
);
},
{
closed = 1;
nodes = (
(522,321,l),
(522,669,l),
(322,669,ls),
(199,669,o),
(103,632,o),
(103,496,cs),
(103,365,o),
(203,321,o),
(317,321,cs)
);
}
);
width = 657;
}
);
unicode = 1071;
},
{
glyphname = uni0440;
kernLeft = _kern11;
kernRight = _kern10;
layers = (
{
layerId = "C985D1D4-6D1D-43A7-B614-37C5E085729D";
shapes = (
{
closed = 1;
nodes = (
(115,-206,l),
(73,-206,l),
(73,527,l),
(115,527,l),
(115,423,l),
(167,502,o),
(232,534,o),
(323,534,cs),
(483,534,o),
(556,408,o),
(556,259,cs),
(556,98,o),
(475,-7,o),
(320,-7,cs),
(255,-7,o),
(166,10,o),
(115,98,c)
);
},
{
closed = 1;
nodes = (
(462,29,o),
(514,138,o),
(514,262,cs),
(514,389,o),
(459,498,o),
(315,498,cs),
(183,498,o),
(113,382,o),
(113,262,cs),
(113,130,o),
(184,29,o),
(323,29,cs)
);
}
);
width = 609;
}
);
unicode = 1088;
},
{
glyphname = O;
kernLeft = _kern3;
kernRight = _kern4;
layers = (
{
layerId = "C985D1D4-6D1D-43A7-B614-37C5E085729D";
shapes = (
{
closed = 1;
nodes = (
(166,-8,o),
(54,145,o),
(54,353,cs),
(54,561,o),
(166,715,o),
(384,715,cs),
(601,715,o),
(713,560,o),
(713,353,cs),
(713,146,o),
(601,-8,o),
(384,-8,cs)
);
},
{
closed = 1;
nodes = (
(191,679,o),
(98,531,o),
(98,353,cs),
(98,174,o),
(195,28,o),
(384,28,cs),
(576,28,o),
(668,173,o),
(668,353,cs),
(668,531,o),
(577,679,o),
(384,679,cs)
);
}
);
width = 767;
}
);
unicode = 79;
},
{
glyphname = a;
kernLeft = _kern27;
kernRight = _kern27;
layers = (
{
layerId = "C985D1D4-6D1D-43A7-B614-37C5E085729D";
shapes = (
{
closed = 1;
nodes = (
(440,81,l),
(397,24,o),
(330,-6,o),
(239,-7,cs),
(161,-7,o),
(53,25,o),
(53,142,cs),
(53,258,o),
(146,291,o),
(248,291,cs),
(440,291,l),
(440,404,o),
(398,495,o),
(278,498,c),
(227,498,o),
(163,486,o),
(133,432,c),
(86,432,l),
(120,524,o),
(226,534,o),
(276,534,cs),
(340,534,o),
(389,513,o),
(421,481,cs),
(466,436,o),
(482,367,o),
(482,287,cs),
(482,0,l),
(440,0,l)
);
},
{
closed = 1;
nodes = (
(273,256,ls),
(196,256,o),
(95,249,o),
(95,147,cs),
(95,64,o),
(165,29,o),
(237,29,cs),
(334,29,o),
(440,77,o),
(440,187,cs),
(440,256,l)
);
}
);
width = 552;
}
);
unicode = 97;
},
{
glyphname = c;
kernLeft = _kern5;
kernRight = _kern6;
layers = (
{
layerId = "C985D1D4-6D1D-43A7-B614-37C5E085729D";
shapes = (
{
closed = 1;
nodes = (
(136,-7,o),
(53,106,o),
(53,262,cs),
(53,418,o),
(139,534,o),
(304,534,cs),
(393,534,o),
(466,492,o),
(497,408,c),
(451,408,l),
(428,471,o),
(367,498,o),
(300,498,cs),
(161,498,o),
(95,393,o),
(95,262,cs),
(95,135,o),
(160,29,o),
(303,29,cs),
(374,29,o),
(433,55,o),
(460,118,c),
(506,118,l),
(471,33,o),
(389,-7,o),
(300,-7,cs)
);
}
);
width = 551;
}
);
unicode = 99;
},
{
glyphname = e;
kernLeft = _kern5;
kernRight = _kern6;
layers = (
{
layerId = "C985D1D4-6D1D-43A7-B614-37C5E085729D";
shapes = (
{
closed = 1;
nodes = (
(95,252,l),
(100,121,o),
(161,29,o),
(304,29,cs),
(362,29,o),
(432,49,o),
(462,106,c),
(509,106,l),
(474,26,o),
(381,-7,o),
(299,-7,cs),
(132,-7,o),
(53,106,o),
(53,263,cs),
(53,412,o),
(137,534,o),
(298,534,cs),
(458,534,o),
(524,401,o),
(524,252,c)
);
},
{
closed = 1;
nodes = (
(482,287,l),
(477,400,o),
(418,498,o),
(294,498,cs),
(172,498,o),
(101,396,o),
(96,287,c)
);
}
);
width = 578;
}
);
unicode = 101;
},
{
glyphname = f;
layers = (
{
layerId = "C985D1D4-6D1D-43A7-B614-37C5E085729D";
shapes = (
{
closed = 1;
nodes = (
(131,492,l),
(38,492,l),
(38,527,l),
(131,527,l),
(131,594,ls),
(131,710,o),
(157,773,o),
(289,773,cs),
(331,773,l),
(331,738,l),
(294,738,ls),
(183,738,o),
(173,687,o),
(173,589,cs),
(173,527,l),
(331,527,l),
(331,492,l),
(173,492,l),
(173,0,l),
(131,0,l)
);
}
);
width = 359;
}
);
unicode = 102;
},
{
glyphname = g;
kernLeft = _kern5;
layers = (
{
layerId = "C985D1D4-6D1D-43A7-B614-37C5E085729D";
shapes = (
{
closed = 1;
nodes = (
(497,527,l),
(536,527,l),
(536,6,ls),
(536,-162,o),
(473,-257,o),
(303,-257,cs),
(205,-257,o),
(124,-221,o),
(92,-133,c),
(139,-133,l),
(165,-199,o),
(243,-221,o),
(307,-221,cs),
(458,-221,o),
(494,-125,o),
(494,7,cs),
(494,109,l),
(452,22,o),
(367,-7,o),
(288,-7,cs),
(116,-7,o),
(53,116,o),
(53,265,cs),
(53,425,o),
(140,534,o),
(295,534,cs),
(368,534,o),
(449,506,o),
(497,420,c)
);
},
{
closed = 1;
nodes = (
(154,498,o),
(95,387,o),
(95,265,cs),
(95,136,o),
(149,29,o),
(294,29,cs),
(426,29,o),
(496,141,o),
(496,265,cs),
(496,392,o),
(430,498,o),
(293,498,cs)
);
}
);
width = 609;
}
);
unicode = 103;
},
{
glyphname = j;
layers = (
{
layerId = "C985D1D4-6D1D-43A7-B614-37C5E085729D";
shapes = (
{
closed = 1;
nodes = (
(164,726,o),
(179,710,o),
(179,687,cs),
(179,663,o),
(163,648,o),
(138,648,cs),
(115,648,o),
(99,663,o),
(99,687,cs),
(99,712,o),
(116,726,o),
(139,726,cs)
);
},
{
closed = 1;
nodes = (
(158,-12,ls),
(158,-124,o),
(137,-196,o),
(1,-196,cs),
(-18,-196,l),
(-18,-161,l),
(0,-161,ls),
(107,-161,o),
(116,-96,o),
(116,-8,cs),
(116,527,l),
(158,527,l)
);
}
);
width = 240;
}
);
unicode = 106;
},
{
glyphname = o;
kernLeft = _kern5;
kernRight = _kern6;
layers = (
{
layerId = "C985D1D4-6D1D-43A7-B614-37C5E085729D";
shapes = (
{
closed = 1;
nodes = (
(445,29,o),
(510,131,o),
(510,263,cs),
(510,393,o),
(445,498,o),
(302,498,cs),
(158,498,o),
(95,393,o),
(95,263,cs),
(95,131,o),
(158,29,o),
(302,29,cs)
);
},
{
closed = 1;
nodes = (
(466,534,o),
(552,421,o),
(552,263,cs),
(552,106,o),
(466,-7,o),
(302,-7,cs),
(137,-7,o),
(53,106,o),
(53,263,cs),
(53,421,o),
(137,534,o),
(302,534,cs)
);
}
);
width = 605;
}
);
unicode = 111;
},
{
glyphname = r;
kernLeft = _kern29;
kernRight = _kern29;
layers = (
{
layerId = "C985D1D4-6D1D-43A7-B614-37C5E085729D";
shapes = (
{
closed = 1;
nodes = (
(73,0,l),
(73,527,l),
(113,527,l),
(113,409,l),
(156,510,o),
(249,530,o),
(324,530,cs),
(334,530,l),
(334,494,l),
(327,494,ls),
(179,494,o),
(115,393,o),
(115,253,cs),
(115,0,l)
);
}
);
width = 357;
}
);
unicode = 114;
},
{
glyphname = t;
kernLeft = _kern21;
kernRight = _kern21;
layers = (
{
layerId = "C985D1D4-6D1D-43A7-B614-37C5E085729D";
shapes = (
{
closed = 1;
nodes = (
(166,527,l),
(322,527,l),
(322,492,l),
(166,492,l),
(166,171,ls),
(166,80,o),
(199,36,o),
(292,36,cs),
(319,36,l),
(319,0,l),
(284,0,ls),
(175,0,o),
(124,50,o),
(124,167,cs),
(124,492,l),
(31,492,l),
(31,527,l),
(124,527,l),
(124,685,l),
(166,685,l)
);
}
);
width = 359;
}
);
unicode = 116;
},
{
glyphname = y2_alt;
layers = (
{
layerId = "C985D1D4-6D1D-43A7-B614-37C5E085729D";
shapes = (
{
closed = 1;
nodes = (
(472,527,l),
(521,527,l),
(340,20,ls),
(318,-41,o),
(276,-153,o),
(229,-196,cs),
(187,-234,o),
(149,-245,o),
(86,-245,c),
(86,-204,l),
(187,-204,o),
(228,-149,o),
(268,-48,c),
(27,527,l),
(78,527,l),
(292,6,l)
);
}
);
width = 539;
}
);
},
{
glyphname = uni0443;
layers = (
{
layerId = "C985D1D4-6D1D-43A7-B614-37C5E085729D";
shapes = (
{
closed = 1;
nodes = (
(472,527,l),
(521,527,l),
(340,20,ls),
(318,-41,o),
(276,-153,o),
(229,-196,cs),
(187,-234,o),
(149,-245,o),
(86,-245,c),
(86,-204,l),
(187,-204,o),
(228,-149,o),
(268,-48,c),
(27,527,l),
(78,527,l),
(292,6,l)
);
}
);
width = 539;
}
);
unicode = 1091;
},
{
glyphname = uni0451;
kernLeft = _kern9;
kernRight = _kern10;
layers = (
{
layerId = "C985D1D4-6D1D-43A7-B614-37C5E085729D";
shapes = (
{
closed = 1;
nodes = (
(441,714,o),
(456,698,o),
(456,675,cs),
(456,652,o),
(441,636,o),
(416,636,cs),
(392,636,o),
(376,654,o),
(376,675,cs),
(376,696,o),
(392,714,o),
(416,714,cs)
);
},
{
closed = 1;
nodes = (
(95,252,l),
(100,121,o),
(161,29,o),
(304,29,cs),
(362,29,o),
(432,49,o),
(462,106,c),
(509,106,l),
(474,26,o),
(381,-7,o),
(299,-7,cs),
(132,-7,o),
(53,106,o),
(53,263,cs),
(53,419,o),
(146,534,o),
(298,534,cs),
(458,534,o),
(524,401,o),
(524,252,c)
);
},
{
closed = 1;
nodes = (
(482,287,l),
(477,400,o),
(418,498,o),
(294,498,cs),
(172,498,o),
(101,396,o),
(96,287,c)
);
},
{
closed = 1;
nodes = (
(200,714,o),
(215,698,o),
(215,675,cs),
(215,652,o),
(200,636,o),
(175,636,cs),
(151,636,o),
(135,654,o),
(135,675,cs),
(135,696,o),
(151,714,o),
(175,714,cs)
);
}
);
width = 578;
}
);
unicode = 1105;
},
{
glyphname = uni0437;
kernLeft = _kern9;
kernRight = _kern10;
layers = (
{
layerId = "C985D1D4-6D1D-43A7-B614-37C5E085729D";
shapes = (
{
closed = 1;
nodes = (
(430,263,o),
(467,203,o),
(467,142,cs),
(467,26,o),
(356,-7,o),
(258,-7,cs),
(174,-7,o),
(72,13,o),
(45,107,c),
(91,107,l),
(115,42,o),
(200,29,o),
(255,29,cs),
(330,29,o),
(425,49,o),
(425,142,cs),
(425,235,o),
(340,248,o),
(265,248,cs),
(178,248,l),
(178,283,l),
(230,283,ls),
(301,283,o),
(402,303,o),
(402,395,cs),
(402,473,o),
(323,498,o),
(259,498,cs),
(205,498,o),
(127,488,o),
(108,424,c),
(65,424,l),
(81,511,o),
(181,534,o),
(258,534,cs),
(343,534,o),
(438,503,o),
(443,403,cs),
(446,348,o),
(421,299,o),
(346,274,c)
);
}
);
width = 516;
}
);
unicode = 1079;
},
{
glyphname = uni044D;
kernLeft = _kern9;
kernRight = _kern10;
layers = (
{
layerId = "C985D1D4-6D1D-43A7-B614-37C5E085729D";
shapes = (
{
closed = 1;
nodes = (
(456,279,l),
(448,398,o),
(389,498,o),
(263,498,cs),
(199,498,o),
(121,476,o),
(94,409,c),
(51,409,l),
(83,494,o),
(169,534,o),
(259,534,cs),
(420,534,o),
(498,412,o),
(498,263,cs),
(498,106,o),
(421,-7,o),
(256,-7,cs),
(164,-7,o),
(77,33,o),
(45,118,c),
(91,118,l),
(118,51,o),
(198,29,o),
(261,29,cs),
(389,29,o),
(452,120,o),
(455,244,c),
(179,244,l),
(179,279,l)
);
}
);
width = 547;
}
);
unicode = 1101;
},
{
glyphname = C;
kernLeft = _kern3;
kernRight = _kern4;
layers = (
{
layerId = "C985D1D4-6D1D-43A7-B614-37C5E085729D";
shapes = (
{
closed = 1;
nodes = (
(187,679,o),
(96,530,o),
(96,355,cs),
(96,178,o),
(184,28,o),
(378,28,cs),
(465,28,o),
(565,64,o),
(602,149,c),
(651,149,l),
(606,40,o),
(491,-8,o),
(376,-8,cs),
(155,-8,o),
(54,146,o),
(54,353,cs),
(54,557,o),
(160,715,o),
(379,715,cs),
(495,715,o),
(598,670,o),
(638,558,c),
(594,558,l),
(555,641,o),
(475,679,o),
(383,679,cs)
);
}
);
width = 699;
}
);
unicode = 67;
},
{
glyphname = S;
kernLeft = _kern3;
kernRight = _kern4;
layers = (
{
layerId = "C985D1D4-6D1D-43A7-B614-37C5E085729D";
shapes = (
{
closed = 1;
nodes = (
(237,679,o),
(129,646,o),
(129,535,cs),
(129,444,o),
(193,414,o),
(271,392,cs),
(327,377,o),
(382,363,o),
(433,347,cs),
(514,323,o),
(579,272,o),
(579,187,cs),
(579,44,o),
(457,-8,o),
(335,-8,cs),
(217,-8,o),
(103,33,o),
(63,149,c),
(110,149,l),
(153,61,o),
(245,28,o),
(332,28,cs),
(432,28,o),
(534,72,o),
(534,176,cs),
(534,262,o),
(477,291,o),
(401,313,cs),
(361,325,o),
(321,336,o),
(288,344,cs),
(189,368,o),
(83,401,o),
(83,528,cs),
(83,666,o),
(201,715,o),
(324,715,cs),
(433,715,o),
(532,674,o),
(556,562,c),
(511,562,l),
(487,648,o),
(402,679,o),
(323,679,cs)
);
}
);
width = 643;
}
);
unicode = 83;
},
{
glyphname = uni0421;
kernLeft = _kern7;
kernRight = _kern8;
layers = (
{
layerId = "C985D1D4-6D1D-43A7-B614-37C5E085729D";
shapes = (
{
closed = 1;
nodes = (
(187,679,o),
(96,530,o),
(96,355,cs),
(96,178,o),
(185,28,o),
(379,28,cs),
(466,28,o),
(565,63,o),
(602,149,c),
(651,149,l),
(606,40,o),
(492,-8,o),
(378,-8,cs),
(157,-8,o),
(54,146,o),
(54,353,cs),
(54,560,o),
(164,715,o),
(379,715,cs),
(492,715,o),
(598,670,o),
(638,558,c),
(594,558,l),
(555,641,o),
(475,679,o),
(383,679,cs)
);
}
);
width = 699;
}
);
unicode = 1057;
},
{
glyphname = G;
kernLeft = _kern3;
kernRight = _kern4;
layers = (
{
layerId = "C985D1D4-6D1D-43A7-B614-37C5E085729D";
shapes = (
{
closed = 1;
nodes = (
(179,679,o),
(99,524,o),
(99,349,cs),
(99,175,o),
(183,28,o),
(376,28,cs),
(538,28,o),
(629,135,o),
(632,296,c),
(384,296,l),
(384,333,l),
(670,333,l),
(670,294,ls),
(670,115,o),
(555,-8,o),
(375,-8,cs),
(161,-8,o),
(57,145,o),
(54,344,cs),
(51,548,o),
(157,715,o),
(373,715,cs),
(493,715,o),
(595,672,o),
(643,558,c),
(593,558,l),
(556,640,o),
(460,679,o),
(375,679,cs)
);
}
);
width = 724;
}
);
unicode = 71;
},
{
glyphname = uni041E;
kernLeft = _kern7;
kernRight = _kern8;
layers = (
{
layerId = "C985D1D4-6D1D-43A7-B614-37C5E085729D";
shapes = (
{
closed = 1;
nodes = (
(166,-8,o),
(54,145,o),
(54,353,cs),
(54,561,o),
(166,715,o),
(384,715,cs),
(601,715,o),
(713,560,o),
(713,353,cs),
(713,146,o),
(601,-8,o),
(384,-8,cs)
);
},
{
closed = 1;
nodes = (
(191,679,o),
(98,531,o),
(98,353,cs),
(98,174,o),
(195,28,o),
(384,28,cs),
(576,28,o),
(668,173,o),
(668,353,cs),
(668,531,o),
(577,679,o),
(384,679,cs)
);
}
);
width = 767;
}
);
unicode = 1054;
},
{
glyphname = Q;
kernLeft = _kern3;
kernRight = _kern4;
layers = (
{
layerId = "C985D1D4-6D1D-43A7-B614-37C5E085729D";
shapes = (
{
closed = 1;
nodes = (
(166,-8,o),
(54,145,o),
(54,353,cs),
(54,561,o),
(166,715,o),
(384,715,cs),
(601,715,o),
(713,560,o),
(713,353,cs),
(713,226,o),
(670,119,o),
(583,50,c),
(694,-104,l),
(657,-129,l),
(545,27,l),
(494,4,o),
(441,-8,o),
(384,-8,cs)
);
},
{
closed = 1;
nodes = (
(191,679,o),
(98,531,o),
(98,353,cs),
(98,174,o),
(193,28,o),
(384,28,cs),
(579,28,o),
(668,173,o),
(668,353,cs),
(668,531,o),
(577,679,o),
(384,679,cs)
);
}
);
width = 767;
}
);
unicode = 81;
},
{
glyphname = J;
layers = (
{
layerId = "C985D1D4-6D1D-43A7-B614-37C5E085729D";
shapes = (
{
closed = 1;
nodes = (
(95,161,l),
(110,69,o),
(164,28,o),
(257,28,cs),
(391,28,o),
(417,128,o),
(417,243,cs),
(417,707,l),
(460,707,l),
(460,235,ls),
(460,115,o),
(428,-8,o),
(254,-8,cs),
(139,-8,o),
(65,41,o),
(48,161,c)
);
}
);
width = 548;
}
);
unicode = 74;
},
{
glyphname = K_alt;
kernLeft = _kern16;
kernRight = _kern16;
layers = (
{
layerId = "C985D1D4-6D1D-43A7-B614-37C5E085729D";
shapes = (
{
closed = 1;
nodes = (
(93,0,l),
(93,707,l),
(135,707,l),
(135,284,l),
(533,707,l),
(583,707,l),
(289,392,l),
(579,0,l),
(529,0,l),
(259,364,l),
(135,231,l),
(135,0,l)
);
}
);
width = 599;
}
);
},
{
glyphname = K;
kernLeft = _kern1;
kernRight = _kern16;
layers = (
{
layerId = "C985D1D4-6D1D-43A7-B614-37C5E085729D";
shapes = (
{
closed = 1;
nodes = (
(93,0,l),
(93,707,l),
(135,707,l),
(135,360,l),
(280,360,l),
(528,707,l),
(576,707,l),
(324,355,l),
(579,0,l),
(528,0,l),
(293,323,l),
(135,323,l),
(135,0,l)
);
}
);
width = 599;
}
);
unicode = 75;
},
{
glyphname = k_alt;
kernLeft = _kern17;
kernRight = _kern17;
layers = (
{
layerId = "C985D1D4-6D1D-43A7-B614-37C5E085729D";
shapes = (
{
closed = 1;
nodes = (
(73,0,l),
(73,707,l),
(115,707,l),
(115,216,l),
(418,527,l),
(467,527,l),
(257,310,l),
(487,0,l),
(440,0,l),
(228,283,l),
(115,165,l),
(115,0,l)
);
}
);
width = 507;
}
);
},
{
glyphname = k;
kernLeft = _kern17;
kernRight = _kern17;
layers = (
{
layerId = "C985D1D4-6D1D-43A7-B614-37C5E085729D";
shapes = (
{
closed = 1;
nodes = (
(73,0,l),
(73,707,l),
(115,707,l),
(115,281,l),
(252,281,l),
(421,527,l),
(468,527,l),
(292,273,l),
(486,0,l),
(438,0,l),
(260,246,l),
(115,246,l),
(115,0,l)
);
}
);
width = 499;
}
);
unicode = 107;
},
{
glyphname = i_alt;
layers = (
{
layerId = "C985D1D4-6D1D-43A7-B614-37C5E085729D";
shapes = (
{
closed = 1;
nodes = (
(111,0,l),
(111,492,l),
(18,492,l),
(18,527,l),
(153,527,l),
(153,0,l)
);
},
{
closed = 1;
nodes = (
(154,726,o),
(170,710,o),
(170,687,cs),
(170,663,o),
(154,648,o),
(130,648,cs),
(107,648,o),
(90,663,o),
(90,687,cs),
(90,712,o),
(107,726,o),
(130,726,cs)
);
}
);
width = 236;
}
);
},
{
glyphname = j_alt;
layers = (
{
layerId = "C985D1D4-6D1D-43A7-B614-37C5E085729D";
shapes = (
{
closed = 1;
nodes = (
(171,-32,ls),
(171,-145,o),
(125,-196,o),
(12,-196,cs),
(-12,-196,l),
(-12,-161,l),
(88,-166,o),
(129,-132,o),
(129,-26,cs),
(129,492,l),
(25,492,l),
(25,527,l),
(171,527,l)
);
},
{
closed = 1;
nodes = (
(168,726,o),
(184,710,o),
(184,687,cs),
(184,663,o),
(168,648,o),
(144,648,cs),
(121,648,o),
(103,663,o),
(103,687,cs),
(103,712,o),
(121,726,o),
(144,726,cs)
);
}
);
width = 250;
}
);
},
{
glyphname = s_alt;
kernLeft = _kern5;
kernRight = _kern6;
layers = (
{
layerId = "C985D1D4-6D1D-43A7-B614-37C5E085729D";
shapes = (
{
closed = 1;
nodes = (
(189,498,o),
(96,478,o),
(96,395,cs),
(96,323,o),
(158,299,o),
(210,289,cs),
(256,281,o),
(322,272,o),
(366,263,cs),
(437,249,o),
(483,212,o),
(483,137,cs),
(483,24,o),
(366,-7,o),
(268,-7,cs),
(181,-7,o),
(72,26,o),
(43,109,c),
(90,109,l),
(125,48,o),
(205,29,o),
(268,29,cs),
(334,29,o),
(441,42,o),
(441,134,cs),
(441,201,o),
(391,218,o),
(338,231,cs),
(319,235,o),
(295,239,o),
(271,242,cs),
(176,256,o),
(54,269,o),
(54,393,cs),
(54,501,o),
(167,534,o),
(260,534,cs),
(339,534,o),
(436,503,o),
(460,426,c),
(418,426,l),
(393,478,o),
(313,498,o),
(258,498,cs)
);
}
);
width = 528;
}
);
},
{
glyphname = s;
kernLeft = _kern5;
kernRight = _kern6;
layers = (
{
layerId = "C985D1D4-6D1D-43A7-B614-37C5E085729D";
shapes = (
{
closed = 1;
nodes = (
(194,498,o),
(99,488,o),
(99,394,cs),
(99,326,o),
(157,301,o),
(212,288,cs),
(253,279,o),
(299,273,o),
(342,262,cs),
(411,245,o),
(459,211,o),
(459,139,cs),
(459,25,o),
(353,-7,o),
(256,-7,cs),
(171,-7,o),
(70,26,o),
(43,109,c),
(90,109,l),
(122,47,o),
(197,29,o),
(257,29,cs),
(326,29,o),
(418,49,o),
(418,134,cs),
(418,200,o),
(359,220,o),
(311,231,cs),
(292,235,o),
(271,239,o),
(248,243,cs),
(168,257,o),
(58,280,o),
(58,393,cs),
(58,502,o),
(154,534,o),
(251,534,cs),
(329,534,o),
(413,502,o),
(437,425,c),
(395,425,l),
(371,477,o),
(305,498,o),
(250,498,cs)
);
}
);
width = 504;
}
);
unicode = 115;
},
{
glyphname = c_alt;
kernLeft = _kern5;
kernRight = _kern6;
layers = (
{
layerId = "C985D1D4-6D1D-43A7-B614-37C5E085729D";
shapes = (
{
closed = 1;
nodes = (
(132,-7,o),
(49,106,o),
(49,263,cs),
(49,423,o),
(135,534,o),
(299,534,cs),
(380,534,o),
(450,508,o),
(487,429,c),
(441,429,l),
(414,476,o),
(359,498,o),
(303,498,cs),
(161,498,o),
(91,396,o),
(91,263,cs),
(91,135,o),
(158,29,o),
(300,29,cs),
(355,29,o),
(414,43,o),
(446,90,c),
(494,90,l),
(455,21,o),
(377,-7,o),
(297,-7,cs)
);
}
);
width = 540;
}
);
},
{
glyphname = copyright;
layers = (
{
layerId = "C985D1D4-6D1D-43A7-B614-37C5E085729D";
shapes = (
{
closed = 1;
nodes = (
(720,715,o),
(877,539,o),
(877,292,cs),
(877,45,o),
(725,-129,o),
(471,-129,cs),
(217,-129,o),
(65,45,o),
(65,292,cs),
(65,539,o),
(222,715,o),
(471,715,cs)
);
},
{
closed = 1;
nodes = (
(244,677,o),
(107,513,o),
(107,292,cs),
(107,72,o),
(242,-92,o),
(471,-92,cs),
(701,-92,o),
(835,74,o),
(835,292,cs),
(835,511,o),
(699,677,o),
(471,677,cs)
);
},
{
closed = 1;
nodes = (
(359,87,o),
(298,175,o),
(298,293,cs),
(298,408,o),
(359,499,o),
(484,499,cs),
(556,499,o),
(610,472,o),
(634,401,c),
(595,401,l),
(576,448,o),
(538,467,o),
(487,467,cs),
(375,467,o),
(336,386,o),
(336,293,cs),
(336,200,o),
(380,119,o),
(484,119,cs),
(535,119,o),
(584,137,o),
(604,184,c),
(643,184,l),
(618,116,o),
(558,87,o),
(483,87,cs)
);
}
);
width = 942;
}
);
unicode = 169;
},
{
glyphname = ampersand;
layers = (
{
layerId = "C985D1D4-6D1D-43A7-B614-37C5E085729D";
shapes = (
{
closed = 1;
nodes = (
(495,76,l),
(427,12,o),
(358,-8,o),
(278,-8,cs),
(165,-8,o),
(73,53,o),
(73,172,cs),
(73,269,o),
(147,336,o),
(235,381,c),
(188,428,o),
(146,487,o),
(146,554,cs),
(146,658,o),
(213,715,o),
(317,715,cs),
(403,715,o),
(469,660,o),
(469,572,cs),
(469,481,o),
(393,418,o),
(294,370,c),
(494,137,l),
(531,188,o),
(552,234,o),
(561,285,c),
(602,285,l),
(591,222,o),
(559,154,o),
(523,109,c),
(620,0,l),
(564,0,l)
);
},
{
closed = 1;
nodes = (
(336,432,o),
(432,484,o),
(432,568,cs),
(432,635,o),
(379,679,o),
(315,679,c),
(236,680,o),
(187,635,o),
(187,558,cs),
(187,493,o),
(234,436,o),
(271,397,c)
);
},
{
closed = 1;
nodes = (
(259,352,l),
(186,314,o),
(119,257,o),
(119,174,cs),
(119,77,o),
(194,29,o),
(281,29,cs),
(348,29,o),
(422,54,o),
(469,106,c)
);
}
);
width = 650;
}
);
unicode = 38;
},
{
glyphname = dollar;
layers = (
{
layerId = "C985D1D4-6D1D-43A7-B614-37C5E085729D";
shapes = (
{
closed = 1;
nodes = (
(313,852,l),
(356,852,l),
(356,714,l),
(459,711,o),
(539,659,o),
(558,562,c),
(515,562,l),
(494,650,o),
(411,679,o),
(326,679,cs),
(234,679,o),
(131,649,o),
(131,536,cs),
(131,446,o),
(191,413,o),
(268,392,cs),
(324,377,o),
(379,366,o),
(434,350,cs),
(513,326,o),
(581,272,o),
(581,186,cs),
(581,46,o),
(474,-3,o),
(350,-8,c),
(350,-146,l),
(308,-146,l),
(308,-8,l),
(197,0,o),
(100,44,o),
(65,149,c),
(112,149,l),
(152,56,o),
(245,32,o),
(338,32,cs),
(430,32,o),
(536,69,o),
(536,176,cs),
(536,261,o),
(471,298,o),
(397,317,cs),
(341,331,o),
(296,343,o),
(240,357,cs),
(152,379,o),
(85,436,o),
(85,530,cs),
(85,659,o),
(192,718,o),
(313,715,c)
);
}
);
width = 647;
}
);
unicode = 36;
},
{
glyphname = parenleft;
layers = (
{
layerId = "C985D1D4-6D1D-43A7-B614-37C5E085729D";
shapes = (
{
closed = 1;
nodes = (
(243,-225,l),
(130,-64,o),
(71,111,o),
(71,300,cs),
(71,395,o),
(86,488,o),
(117,579,cs),
(148,670,o),
(191,751,o),
(247,824,c),
(292,824,l),
(178,667,o),
(113,505,o),
(113,300,cs),
(113,97,o),
(181,-64,o),
(293,-225,c)
);
}
);
width = 267;
}
);
unicode = 40;
},
{
glyphname = parenright;
layers = (
{
layerId = "C985D1D4-6D1D-43A7-B614-37C5E085729D";
shapes = (
{
closed = 1;
nodes = (
(24,824,l),
(137,663,o),
(195,488,o),
(196,299,cs),
(196,205,o),
(181,112,o),
(151,21,cs),
(120,-71,o),
(77,-152,o),
(21,-225,c),
(-26,-225,l),
(89,-67,o),
(154,93,o),
(154,299,cs),
(154,500,o),
(88,664,o),
(-25,824,c)
);
}
);
width = 267;
}
);
unicode = 41;
},
{
glyphname = cent;
layers = (
{
layerId = "C985D1D4-6D1D-43A7-B614-37C5E085729D";
shapes = (
{
closed = 1;
nodes = (
(273,682,l),
(315,682,l),
(315,534,l),
(399,530,o),
(467,488,o),
(496,408,c),
(451,408,l),
(428,469,o),
(367,498,o),
(300,498,cs),
(161,498,o),
(95,393,o),
(95,262,cs),
(95,135,o),
(158,29,o),
(302,29,cs),
(373,29,o),
(434,55,o),
(461,118,c),
(506,118,l),
(474,38,o),
(399,-2,o),
(315,-6,c),
(315,-163,l),
(273,-163,l),
(273,-5,l),
(127,6,o),
(53,116,o),
(53,262,cs),
(53,409,o),
(128,519,o),
(273,532,c)
);
}
);
width = 576;
}
);
unicode = 162;
},
{
glyphname = section;
layers = (
{
layerId = "C985D1D4-6D1D-43A7-B614-37C5E085729D";
shapes = (
{
closed = 1;
nodes = (
(200,684,o),
(118,668,o),
(118,584,cs),
(118,536,o),
(160,508,o),
(200,497,cs),
(253,482,o),
(311,473,o),
(363,459,cs),
(427,442,o),
(467,411,o),
(467,343,cs),
(467,298,o),
(443,261,o),
(396,233,c),
(444,214,o),
(469,177,o),
(469,130,cs),
(469,23,o),
(372,-8,o),
(281,-8,cs),
(193,-8,o),
(97,17,o),
(65,103,c),
(110,103,l),
(139,47,o),
(222,27,o),
(277,27,cs),
(364,27,o),
(429,54,o),
(429,122,cs),
(429,186,o),
(383,206,o),
(333,216,cs),
(289,224,o),
(236,234,o),
(196,242,cs),
(124,257,o),
(71,294,o),
(71,363,cs),
(71,412,o),
(99,457,o),
(144,485,c),
(101,506,o),
(81,545,o),
(81,581,cs),
(81,686,o),
(178,715,o),
(270,715,cs),
(346,715,o),
(425,687,o),
(447,611,c),
(410,611,l),
(389,664,o),
(321,684,o),
(267,684,cs)
);
},
{
closed = 1;
nodes = (
(136,445,o),
(109,407,o),
(109,371,cs),
(109,292,o),
(184,280,o),
(239,269,cs),
(280,261,o),
(315,255,o),
(358,246,c),
(389,256,o),
(431,293,o),
(431,337,cs),
(431,393,o),
(401,414,o),
(360,427,cs),
(298,446,o),
(242,449,o),
(175,470,c)
);
}
);
width = 535;
}
);
unicode = 167;
},
{
glyphname = uni04C1;
layers = (
{
layerId = "C985D1D4-6D1D-43A7-B614-37C5E085729D";
shapes = (
{
closed = 1;
nodes = (
(403,0,l),
(403,328,l),
(246,328,l),
(70,0,l),
(20,0,l),
(213,357,l),
(21,707,l),
(68,707,l),
(255,365,l),
(403,365,l),
(403,707,l),
(445,707,l),
(445,365,l),
(597,365,l),
(782,707,l),
(827,707,l),
(636,357,l),
(829,0,l),
(780,0,l),
(604,328,l),
(445,328,l),
(445,0,l)
);
},
{
closed = 1;
nodes = (
(485,848,o),
(539,868,o),
(555,929,c),
(593,929,l),
(580,849,o),
(504,816,o),
(423,816,cs),
(343,816,o),
(264,846,o),
(253,929,c),
(291,929,l),
(307,868,o),
(362,848,o),
(424,848,cs)
);
}
);
width = 849;
}
);
unicode = 1217;
},
{
glyphname = uni04C2;
layers = (
{
layerId = "C985D1D4-6D1D-43A7-B614-37C5E085729D";
shapes = (
{
closed = 1;
nodes = (
(349,0,l),
(349,247,l),
(220,247,l),
(68,0,l),
(20,0,l),
(189,277,l),
(36,527,l),
(84,527,l),
(232,282,l),
(349,282,l),
(349,527,l),
(391,527,l),
(391,282,l),
(508,282,l),
(657,527,l),
(705,527,l),
(551,277,l),
(721,0,l),
(673,0,l),
(521,247,l),
(391,247,l),
(391,0,l)
);
},
{
closed = 1;
nodes = (
(418,663,o),
(476,676,o),
(492,738,c),
(531,738,l),
(515,660,o),
(444,632,o),
(368,632,cs),
(293,632,o),
(223,660,o),
(209,738,c),
(247,738,l),
(263,676,o),
(319,663,o),
(369,663,cs)
);
}
);
width = 741;
}
);
unicode = 1218;
},
{
glyphname = w_alt;
kernLeft = _kern20;
kernRight = _kern20;
layers = (
{
layerId = "C985D1D4-6D1D-43A7-B614-37C5E085729D";
shapes = (
{
closed = 1;
nodes = (
(523,36,l),
(669,527,l),
(715,527,l),
(554,0,l),
(495,0,l),
(368,361,l),
(240,0,l),
(178,0,l),
(19,527,l),
(64,527,l),
(212,36,l),
(337,396,l),
(398,396,l)
);
}
);
width = 734;
}
);
},
{
glyphname = W_alt;
kernLeft = _kern19;
kernRight = _kern19;
layers = (
{
layerId = "C985D1D4-6D1D-43A7-B614-37C5E085729D";
shapes = (
{
closed = 1;
nodes = (
(221,0,l),
(20,707,l),
(69,707,l),
(257,44,l),
(425,530,l),
(463,530,l),
(634,44,l),
(821,707,l),
(868,707,l),
(667,0,l),
(603,0,l),
(444,454,l),
(290,0,l)
);
}
);
width = 888;
}
);
},
{
glyphname = zero;
layers = (
{
layerId = "C985D1D4-6D1D-43A7-B614-37C5E085729D";
shapes = (
{
closed = 1;
nodes = (
(601,173,o),
(539,-8,o),
(331,-8,cs),
(123,-8,o),
(63,172,o),
(63,353,cs),
(63,532,o),
(124,715,o),
(331,715,cs),
(539,715,o),
(601,532,o),
(601,353,cs)
);
},
{
closed = 1;
nodes = (
(107,202,o),
(145,28,o),
(331,28,cs),
(518,28,o),
(556,202,o),
(556,353,cs),
(556,501,o),
(518,679,o),
(331,679,cs),
(145,679,o),
(107,501,o),
(107,353,cs)
);
}
);
width = 663;
}
);
unicode = 48;
},
{
glyphname = one;
layers = (
{
layerId = "C985D1D4-6D1D-43A7-B614-37C5E085729D";
shapes = (
{
closed = 1;
nodes = (
(215,0,l),
(172,0,l),
(172,602,l),
(29,602,l),
(29,631,l),
(124,631,o),
(173,634,o),
(183,707,c),
(215,707,l)
);
}
);
width = 328;
}
);
unicode = 49;
},
{
glyphname = two;
layers = (
{
layerId = "C985D1D4-6D1D-43A7-B614-37C5E085729D";
shapes = (
{
closed = 1;
nodes = (
(452,624,o),
(377,679,o),
(278,679,cs),
(210,679,o),
(138,656,o),
(111,591,c),
(62,591,l),
(95,676,o),
(174,715,o),
(282,715,cs),
(406,715,o),
(496,648,o),
(496,520,cs),
(496,394,o),
(408,317,o),
(317,234,cs),
(100,38,l),
(504,38,l),
(504,0,l),
(36,0,l),
(36,35,l),
(267,243,ls),
(348,316,o),
(452,404,o),
(452,518,cs)
);
}
);
width = 560;
}
);
unicode = 50;
},
{
glyphname = three;
layers = (
{
layerId = "C985D1D4-6D1D-43A7-B614-37C5E085729D";
shapes = (
{
closed = 1;
nodes = (
(85,121,l),
(114,46,o),
(207,28,o),
(279,28,cs),
(377,28,o),
(481,69,o),
(481,188,cs),
(481,320,o),
(368,342,o),
(262,342,cs),
(191,342,l),
(191,379,l),
(242,379,ls),
(333,379,o),
(452,422,o),
(452,537,cs),
(452,641,o),
(369,679,o),
(278,679,cs),
(206,679,o),
(129,660,o),
(105,588,c),
(59,588,l),
(83,697,o),
(196,715,o),
(279,715,cs),
(388,715,o),
(493,670,o),
(493,545,cs),
(493,472,o),
(455,392,o),
(354,368,c),
(468,360,o),
(526,280,o),
(526,188,cs),
(526,44,o),
(405,-8,o),
(278,-8,cs),
(178,-8,o),
(66,21,o),
(39,121,c)
);
}
);
width = 589;
}
);
unicode = 51;
},
{
glyphname = four;
layers = (
{
layerId = "C985D1D4-6D1D-43A7-B614-37C5E085729D";
shapes = (
{
closed = 1;
nodes = (
(415,707,l),
(479,707,l),
(479,189,l),
(570,189,l),
(570,151,l),
(479,151,l),
(479,0,l),
(437,0,l),
(437,151,l),
(43,151,l),
(43,190,l)
);
},
{
closed = 1;
nodes = (
(437,189,l),
(437,671,l),
(90,189,l)
);
}
);
width = 613;
}
);
unicode = 52;
},
{
glyphname = seven;
layers = (
{
layerId = "C985D1D4-6D1D-43A7-B614-37C5E085729D";
shapes = (
{
closed = 1;
nodes = (
(121,0,l),
(424,669,l),
(18,669,l),
(18,707,l),
(470,707,l),
(470,665,l),
(169,0,l)
);
}
);
width = 498;
}
);
unicode = 55;
},
{
glyphname = eight;
layers = (
{
layerId = "C985D1D4-6D1D-43A7-B614-37C5E085729D";
shapes = (
{
closed = 1;
nodes = (
(547,46,o),
(430,-8,o),
(303,-8,cs),
(176,-8,o),
(61,44,o),
(61,187,cs),
(61,270,o),
(118,353,o),
(216,364,c),
(132,385,o),
(89,452,o),
(89,535,cs),
(90,660,o),
(193,715,o),
(305,715,cs),
(415,715,o),
(520,656,o),
(520,535,cs),
(520,452,o),
(478,390,o),
(387,366,c),
(494,353,o),
(547,270,o),
(547,187,cs)
);
},
{
closed = 1;
nodes = (
(217,679,o),
(128,638,o),
(128,531,cs),
(128,426,o),
(218,381,o),
(306,381,cs),
(383,381,o),
(481,428,o),
(481,527,cs),
(481,636,o),
(394,679,o),
(305,679,cs)
);
},
{
closed = 1;
nodes = (
(208,346,o),
(102,301,o),
(102,185,cs),
(102,68,o),
(205,28,o),
(305,28,cs),
(403,28,o),
(505,68,o),
(505,185,cs),
(505,301,o),
(400,346,o),
(305,346,cs)
);
}
);
width = 608;
}
);
unicode = 56;
},
{
glyphname = nine;
layers = (
{
layerId = "C985D1D4-6D1D-43A7-B614-37C5E085729D";
shapes = (
{
closed = 1;
nodes = (
(161,273,o),
(64,351,o),
(64,489,cs),
(64,628,o),
(159,715,o),
(295,715,cs),
(504,715,o),
(553,507,o),
(553,339,cs),
(553,159,o),
(499,-8,o),
(290,-8,cs),
(205,-8,o),
(115,25,o),
(80,108,c),
(128,108,l),
(160,52,o),
(228,28,o),
(291,28,cs),
(480,28,o),
(512,211,o),
(512,354,cs),
(512,371,o),
(511,391,o),
(507,426,c),
(478,319,o),
(389,273,o),
(282,273,cs)
);
},
{
closed = 1;
nodes = (
(105,382,o),
(176,312,o),
(292,312,cs),
(392,312,o),
(481,382,o),
(481,487,cs),
(481,596,o),
(404,679,o),
(293,679,cs),
(190,679,o),
(105,603,o),
(105,498,cs)
);
}
);
width = 617;
}
);
unicode = 57;
},
{
glyphname = uni0430;
kernLeft = _kern27;
kernRight = _kern27;
layers = (
{
layerId = "C985D1D4-6D1D-43A7-B614-37C5E085729D";
shapes = (
{
closed = 1;
nodes = (
(440,81,l),
(397,24,o),
(329,-6,o),
(234,-7,c),
(165,-7,o),
(53,25,o),
(53,142,cs),
(53,258,o),
(146,291,o),
(248,291,cs),
(440,291,l),
(440,404,o),
(398,498,o),
(278,498,cs),
(227,498,o),
(163,486,o),
(133,432,c),
(86,432,l),
(120,524,o),
(226,534,o),
(276,534,cs),
(340,534,o),
(390,514,o),
(422,482,cs),
(467,437,o),
(482,367,o),
(482,287,cs),
(482,0,l),
(440,0,l)
);
},
{
closed = 1;
nodes = (
(273,256,ls),
(196,256,o),
(95,249,o),
(95,147,cs),
(95,64,o),
(164,29,o),
(237,29,cs),
(335,29,o),
(440,79,o),
(440,187,cs),
(440,256,l)
);
}
);
width = 552;
}
);
unicode = 1072;
},
{
glyphname = uni0435;
kernLeft = _kern9;
kernRight = _kern10;
layers = (
{
layerId = "C985D1D4-6D1D-43A7-B614-37C5E085729D";
shapes = (
{
closed = 1;
nodes = (
(95,252,l),
(100,121,o),
(161,29,o),
(304,29,cs),
(362,29,o),
(432,49,o),
(462,106,c),
(509,106,l),
(474,26,o),
(381,-7,o),
(299,-7,cs),
(132,-7,o),
(53,106,o),
(53,263,cs),
(53,412,o),
(137,534,o),
(298,534,cs),
(458,534,o),
(524,401,o),
(524,252,c)
);
},
{
closed = 1;
nodes = (
(482,287,l),
(477,400,o),
(418,498,o),
(294,498,cs),
(172,498,o),
(101,396,o),
(96,287,c)
);
}
);
width = 578;
}
);
unicode = 1077;
},
{
glyphname = uni043E;
kernLeft = _kern9;
kernRight = _kern10;
layers = (
{
layerId = "C985D1D4-6D1D-43A7-B614-37C5E085729D";
shapes = (
{
closed = 1;
nodes = (
(445,29,o),
(510,131,o),
(510,263,cs),
(510,393,o),
(445,498,o),
(302,498,cs),
(158,498,o),
(95,393,o),
(95,263,cs),
(95,131,o),
(158,29,o),
(302,29,cs)
);
},
{
closed = 1;
nodes = (
(466,534,o),
(552,421,o),
(552,263,cs),
(552,106,o),
(466,-7,o),
(302,-7,cs),
(137,-7,o),
(53,106,o),
(53,263,cs),
(53,421,o),
(137,534,o),
(302,534,cs)
);
}
);
width = 605;
}
);
unicode = 1086;
},
{
glyphname = uni0441;
kernLeft = _kern9;
kernRight = _kern10;
layers = (
{
layerId = "C985D1D4-6D1D-43A7-B614-37C5E085729D";
shapes = (
{
closed = 1;
nodes = (
(136,-7,o),
(53,106,o),
(53,262,cs),
(53,418,o),
(139,534,o),
(304,534,cs),
(393,534,o),
(466,492,o),
(497,408,c),
(451,408,l),
(428,471,o),
(367,498,o),
(300,498,cs),
(161,498,o),
(95,393,o),
(95,262,cs),
(95,135,o),
(160,29,o),
(303,29,cs),
(374,29,o),
(433,55,o),
(460,118,c),
(506,118,l),
(471,33,o),
(389,-7,o),
(300,-7,cs)
);
}
);
width = 551;
}
);
unicode = 1089;
},
{
glyphname = uni0218;
layers = (
{
layerId = "C985D1D4-6D1D-43A7-B614-37C5E085729D";
shapes = (
{
closed = 1;
nodes = (
(237,679,o),
(129,646,o),
(129,535,cs),
(129,444,o),
(193,414,o),
(271,392,cs),
(327,377,o),
(382,363,o),
(433,347,cs),
(514,323,o),
(579,272,o),
(579,187,cs),
(579,44,o),
(457,-8,o),
(335,-8,cs),
(217,-8,o),
(103,33,o),
(63,149,c),
(110,149,l),
(153,61,o),
(236,28,o),
(333,28,cs),
(432,28,o),
(534,72,o),
(534,176,cs),
(534,262,o),
(477,291,o),
(401,313,cs),
(361,325,o),
(323,336,o),
(288,344,cs),
(189,368,o),
(83,401,o),
(83,528,cs),
(83,666,o),
(201,715,o),
(324,715,cs),
(433,715,o),
(532,674,o),
(556,562,c),
(511,562,l),
(487,648,o),
(402,679,o),
(323,679,cs)
);
},
{
closed = 1;
nodes = (
(363,-119,o),
(374,-147,o),
(374,-174,cs),
(374,-229,o),
(344,-275,o),
(299,-300,c),
(284,-280,l),
(307,-267,o),
(334,-238,o),
(339,-198,c),
(322,-204,o),
(288,-195,o),
(288,-159,cs),
(288,-136,o),
(305,-119,o),
(330,-119,cs)
);
}
);
width = 643;
}
);
unicode = 536;
},
{
glyphname = uni0219;
kernLeft = _kern5;
kernRight = _kern6;
layers = (
{
layerId = "C985D1D4-6D1D-43A7-B614-37C5E085729D";
shapes = (
{
closed = 1;
nodes = (
(194,498,o),
(99,488,o),
(99,394,cs),
(99,327,o),
(158,301,o),
(211,289,cs),
(254,279,o),
(299,273,o),
(342,262,cs),
(411,245,o),
(459,211,o),
(459,139,cs),
(459,25,o),
(353,-7,o),
(256,-7,cs),
(171,-7,o),
(70,26,o),
(43,109,c),
(90,109,l),
(122,48,o),
(199,29,o),
(258,29,cs),
(326,29,o),
(418,49,o),
(418,134,cs),
(418,202,o),
(360,218,o),
(309,231,cs),
(290,236,o),
(271,239,o),
(252,242,cs),
(164,258,o),
(58,279,o),
(58,393,cs),
(58,502,o),
(154,534,o),
(251,534,cs),
(329,534,o),
(413,502,o),
(437,425,c),
(395,425,l),
(371,477,o),
(305,498,o),
(250,498,cs)
);
},
{
closed = 1;
nodes = (
(288,-119,o),
(299,-147,o),
(299,-174,cs),
(299,-229,o),
(269,-275,o),
(224,-300,c),
(209,-280,l),
(232,-267,o),
(259,-238,o),
(264,-198,c),
(247,-204,o),
(213,-195,o),
(213,-159,cs),
(213,-136,o),
(230,-119,o),
(255,-119,cs)
);
}
);
width = 513;
}
);
unicode = 537;
},
{
glyphname = uni021A;
kernLeft = _kern28;
kernRight = _kern28;
layers = (
{
layerId = "C985D1D4-6D1D-43A7-B614-37C5E085729D";
shapes = (
{
closed = 1;
nodes = (
(546,669,l),
(304,669,l),
(304,0,l),
(262,0,l),
(262,669,l),
(20,669,l),
(20,707,l),
(546,707,l)
);
},
{
closed = 1;
nodes = (
(318,-119,o),
(329,-147,o),
(329,-174,cs),
(329,-229,o),
(299,-275,o),
(254,-300,c),
(239,-280,l),
(262,-267,o),
(289,-238,o),
(294,-198,c),
(277,-204,o),
(243,-195,o),
(243,-159,cs),
(243,-136,o),
(260,-119,o),
(285,-119,cs)
);
}
);
width = 566;
}
);
unicode = 538;
},
{
glyphname = uni021B;
kernLeft = _kern21;
kernRight = _kern21;
layers = (
{
layerId = "C985D1D4-6D1D-43A7-B614-37C5E085729D";
shapes = (
{
closed = 1;
nodes = (
(166,527,l),
(322,527,l),
(322,492,l),
(166,492,l),
(166,171,ls),
(166,80,o),
(199,36,o),
(292,36,cs),
(319,36,l),
(319,0,l),
(284,0,ls),
(175,0,o),
(124,50,o),
(124,167,cs),
(124,492,l),
(31,492,l),
(31,527,l),
(124,527,l),
(124,685,l),
(166,685,l)
);
},
{
closed = 1;
nodes = (
(247,-119,o),
(258,-147,o),
(258,-174,cs),
(258,-229,o),
(228,-275,o),
(183,-300,c),
(168,-280,l),
(191,-267,o),
(218,-238,o),
(223,-198,c),
(206,-204,o),
(172,-195,o),
(172,-159,cs),
(172,-136,o),
(189,-119,o),
(214,-119,cs)
);
}
);
width = 359;
}
);
unicode = 539;
},
{
glyphname = question;
layers = (
{
layerId = "C985D1D4-6D1D-43A7-B614-37C5E085729D";
shapes = (
{
closed = 1;
nodes = (
(247,204,l),
(199,204,l),
(199,219,ls),
(199,287,o),
(248,337,o),
(295,381,cs),
(340,423,o),
(395,481,o),
(395,546,cs),
(395,634,o),
(324,679,o),
(244,679,cs),
(182,679,o),
(112,655,o),
(91,594,c),
(43,594,l),
(75,689,o),
(171,715,o),
(246,715,cs),
(350,715,o),
(437,660,o),
(437,549,cs),
(437,473,o),
(395,421,o),
(330,360,cs),
(285,318,o),
(247,283,o),
(247,219,cs)
);
},
{
closed = 1;
nodes = (
(246,73,o),
(264,59,o),
(264,32,cs),
(264,8,o),
(248,-7,o),
(225,-7,cs),
(200,-7,o),
(184,9,o),
(184,33,cs),
(184,58,o),
(200,73,o),
(225,73,cs)
);
}
);
width = 498;
}
);
unicode = 63;
},
{
glyphname = uni2116;
layers = (
{
layerId = "C985D1D4-6D1D-43A7-B614-37C5E085729D";
shapes = (
{
closed = 1;
nodes = (
(1001,292,l),
(752,292,l),
(752,329,l),
(1001,329,l)
);
},
{
closed = 1;
nodes = (
(789,429,o),
(744,489,o),
(744,572,cs),
(744,655,o),
(788,715,o),
(875,715,cs),
(960,715,o),
(1003,644,o),
(1003,572,cs),
(1003,491,o),
(957,429,o),
(873,429,cs)
);
},
{
closed = 1;
nodes = (
(807,680,o),
(782,628,o),
(782,572,cs),
(782,516,o),
(807,464,o),
(875,464,cs),
(944,464,o),
(966,521,o),
(966,573,cs),
(966,617,o),
(944,680,o),
(875,680,cs)
);
},
{
closed = 1;
nodes = (
(93,707,l),
(154,707,l),
(609,49,l),
(609,707,l),
(651,707,l),
(651,0,l),
(593,0,l),
(135,659,l),
(135,0,l),
(93,0,l)
);
}
);
width = 1073;
}
);
unicode = 8470;
},
{
glyphname = uni0401;
layers = (
{
layerId = "C985D1D4-6D1D-43A7-B614-37C5E085729D";
shapes = (
{
closed = 1;
nodes = (
(223,924,o),
(239,912,o),
(239,889,cs),
(239,868,o),
(226,851,o),
(202,851,cs),
(177,851,o),
(164,864,o),
(164,889,cs),
(164,912,o),
(182,924,o),
(202,924,cs)
);
},
{
closed = 1;
nodes = (
(470,924,o),
(486,912,o),
(486,889,cs),
(486,868,o),
(473,851,o),
(449,851,cs),
(424,851,o),
(412,864,o),
(412,889,cs),
(412,912,o),
(429,924,o),
(449,924,cs)
);
},
{
closed = 1;
nodes = (
(93,707,l),
(549,707,l),
(549,669,l),
(135,669,l),
(135,370,l),
(507,370,l),
(507,332,l),
(135,332,l),
(135,38,l),
(549,38,l),
(549,0,l),
(93,0,l)
);
}
);
width = 603;
}
);
unicode = 1025;
},
{
glyphname = asciitilde;
layers = (
{
layerId = "C985D1D4-6D1D-43A7-B614-37C5E085729D";
shapes = (
{
closed = 1;
nodes = (
(93,288,l),
(96,362,o),
(122,431,o),
(211,431,cs),
(258,431,o),
(296,397,o),
(329,366,cs),
(359,336,o),
(389,309,o),
(428,309,cs),
(492,309,o),
(505,368,o),
(505,422,c),
(542,422,l),
(537,346,o),
(517,280,o),
(425,280,cs),
(373,280,o),
(336,316,o),
(305,345,cs),
(278,370,o),
(244,401,o),
(208,401,cs),
(147,401,o),
(130,340,o),
(130,288,c)
);
}
);
width = 635;
}
);
unicode = 126;
},
{
glyphname = trademark;
layers = (
{
layerId = "C985D1D4-6D1D-43A7-B614-37C5E085729D";
shapes = (
{
closed = 1;
nodes = (
(154,681,l),
(64,681,l),
(64,707,l),
(271,707,l),
(271,681,l),
(181,681,l),
(181,468,l),
(154,468,l)
);
},
{
closed = 1;
nodes = (
(419,540,l),
(344,670,l),
(344,468,l),
(317,468,l),
(317,707,l),
(353,707,l),
(429,577,l),
(507,707,l),
(540,707,l),
(540,468,l),
(512,468,l),
(512,665,l),
(439,540,l)
);
}
);
width = 609;
}
);
unicode = 8482;
},
{
glyphname = registered;
layers = (
{
layerId = "C985D1D4-6D1D-43A7-B614-37C5E085729D";
shapes = (
{
closed = 1;
nodes = (
(347,745,o),
(415,670,o),
(415,562,cs),
(415,451,o),
(347,386,o),
(235,386,cs),
(126,386,o),
(54,450,o),
(54,562,cs),
(54,617,o),
(70,662,o),
(103,695,cs),
(136,728,o),
(180,745,o),
(235,745,cs)
);
},
{
closed = 1;
nodes = (
(138,725,o),
(76,659,o),
(76,562,cs),
(76,465,o),
(138,406,o),
(235,406,cs),
(334,406,o),
(393,465,o),
(393,562,cs),
(393,659,o),
(335,725,o),
(235,725,cs)
);
},
{
closed = 1;
nodes = (
(286,480,l),
(239,551,l),
(192,551,l),
(192,480,l),
(174,480,l),
(174,655,l),
(246,655,ls),
(282,655,o),
(306,638,o),
(306,603,cs),
(306,578,o),
(294,555,o),
(259,552,c),
(274,529,o),
(294,503,o),
(307,480,c)
);
},
{
closed = 1;
nodes = (
(192,638,l),
(192,568,l),
(248,568,ls),
(271,568,o),
(289,576,o),
(289,603,cs),
(289,630,o),
(268,638,o),
(248,638,cs)
);
}
);
width = 472;
}
);
unicode = 174;
},
{
glyphname = degree;
layers = (
{
layerId = "C985D1D4-6D1D-43A7-B614-37C5E085729D";
shapes = (
{
closed = 1;
nodes = (
(226,616,o),
(257,652,o),
(257,703,cs),
(257,754,o),
(226,789,o),
(174,789,cs),
(122,789,o),
(90,754,o),
(90,703,cs),
(90,651,o),
(122,616,o),
(174,616,cs)
);
},
{
closed = 1;
nodes = (
(98,585,o),
(55,635,o),
(55,703,cs),
(55,774,o),
(103,820,o),
(175,820,cs),
(250,820,o),
(291,766,o),
(291,703,cs),
(291,635,o),
(249,585,o),
(174,585,cs)
);
}
);
width = 352;
}
);
unicode = 176;
},
{
glyphname = bullet;
layers = (
{
layerId = "C985D1D4-6D1D-43A7-B614-37C5E085729D";
shapes = (
{
closed = 1;
nodes = (
(208,455,o),
(242,416,o),
(242,365,cs),
(242,314,o),
(209,275,o),
(153,275,cs),
(97,275,o),
(64,314,o),
(64,365,cs),
(64,416,o),
(98,455,o),
(153,455,cs)
);
}
);
width = 306;
}
);
unicode = 8226;
},
{
glyphname = uni27F5;
layers = (
{
layerId = "C985D1D4-6D1D-43A7-B614-37C5E085729D";
shapes = (
{
closed = 1;
nodes = (
(1321,243,l),
(137,243,l),
(395,-13,l),
(367,-43,l),
(65,262,l),
(367,568,l),
(395,538,l),
(137,281,l),
(1321,281,l)
);
}
);
width = 1386;
}
);
unicode = 10229;
},
{
glyphname = uni27F6;
layers = (
{
layerId = "C985D1D4-6D1D-43A7-B614-37C5E085729D";
shapes = (
{
closed = 1;
nodes = (
(65,281,l),
(1249,281,l),
(991,538,l),
(1019,568,l),
(1321,262,l),
(1019,-43,l),
(991,-13,l),
(1249,243,l),
(65,243,l)
);
}
);
width = 1386;
}
);
unicode = 10230;
},
{
glyphname = arrowup;
layers = (
{
layerId = "C985D1D4-6D1D-43A7-B614-37C5E085729D";
shapes = (
{
closed = 1;
nodes = (
(366,0,l),
(331,0,l),
(331,590,l),
(92,313,l),
(65,335,l),
(348,663,l),
(632,335,l),
(605,312,l),
(366,590,l)
);
}
);
width = 697;
}
);
unicode = 8593;
},
{
glyphname = arrowdown;
layers = (
{
layerId = "C985D1D4-6D1D-43A7-B614-37C5E085729D";
shapes = (
{
closed = 1;
nodes = (
(331,663,l),
(366,663,l),
(366,73,l),
(605,350,l),
(632,328,l),
(349,0,l),
(65,328,l),
(92,351,l),
(331,73,l)
);
}
);
width = 697;
}
);
unicode = 8595;
},
{
glyphname = uni21BA;
layers = (
{
layerId = "C985D1D4-6D1D-43A7-B614-37C5E085729D";
shapes = (
{
closed = 1;
nodes = (
(586,733,l),
(742,634,o),
(817,494,o),
(817,327,cs),
(817,112,o),
(670,-52,o),
(440,-52,cs),
(212,-52,o),
(65,107,o),
(65,334,cs),
(65,451,o),
(103,558,o),
(186,645,c),
(216,616,l),
(147,536,o),
(109,439,o),
(109,334,cs),
(109,142,o),
(240,-11,o),
(440,-11,cs),
(640,-11,o),
(773,135,o),
(773,330,cs),
(773,465,o),
(698,609,o),
(567,700,c),
(561,439,l),
(519,439,l),
(528,775,l),
(865,764,l),
(864,723,l)
);
}
);
width = 930;
}
);
unicode = 8634;
},
{
glyphname = uni21BB;
layers = (
{
layerId = "C985D1D4-6D1D-43A7-B614-37C5E085729D";
shapes = (
{
closed = 1;
nodes = (
(66,723,l),
(65,764,l),
(402,775,l),
(411,439,l),
(369,439,l),
(363,700,l),
(231,610,o),
(157,464,o),
(157,330,cs),
(157,135,o),
(290,-11,o),
(490,-11,cs),
(690,-11,o),
(821,142,o),
(821,334,cs),
(821,439,o),
(783,536,o),
(714,616,c),
(744,645,l),
(827,558,o),
(865,451,o),
(865,334,cs),
(865,107,o),
(718,-52,o),
(490,-52,cs),
(260,-52,o),
(113,112,o),
(113,327,cs),
(113,494,o),
(188,634,o),
(344,733,c)
);
}
);
width = 930;
}
);
unicode = 8635;
},
{
glyphname = uni21B7;
layers = (
{
layerId = "C985D1D4-6D1D-43A7-B614-37C5E085729D";
shapes = (
{
closed = 1;
nodes = (
(945,124,l),
(960,83,l),
(642,-25,l),
(543,298,l),
(582,308,l),
(659,48,l),
(748,161,o),
(765,270,o),
(765,351,cs),
(765,546,o),
(641,696,o),
(437,696,cs),
(261,696,o),
(138,569,o),
(111,402,c),
(65,402,l),
(92,597,o),
(230,738,o),
(437,738,cs),
(669,738,o),
(805,574,o),
(808,351,c),
(808,252,o),
(784,119,o),
(687,27,c)
);
}
);
width = 1025;
}
);
unicode = 8631;
},
{
glyphname = uni21B6;
layers = (
{
layerId = "C985D1D4-6D1D-43A7-B614-37C5E085729D";
shapes = (
{
closed = 1;
nodes = (
(338,27,l),
(241,119,o),
(216,252,o),
(217,351,cs),
(219,574,o),
(356,738,o),
(588,738,cs),
(795,738,o),
(933,597,o),
(960,402,c),
(914,402,l),
(887,569,o),
(764,696,o),
(588,696,cs),
(384,696,o),
(260,546,o),
(260,351,cs),
(260,270,o),
(277,161,o),
(366,48,c),
(443,308,l),
(482,298,l),
(383,-25,l),
(65,83,l),
(80,124,l)
);
}
);
width = 1025;
}
);
unicode = 8630;
},
{
glyphname = five;
layers = (
{
layerId = "C985D1D4-6D1D-43A7-B614-37C5E085729D";
shapes = (
{
closed = 1;
nodes = (
(82,316,l),
(116,707,l),
(518,707,l),
(518,669,l),
(154,669,l),
(126,357,l),
(182,417,o),
(252,437,o),
(321,437,cs),
(452,437,o),
(545,351,o),
(545,220,cs),
(545,66,o),
(433,-8,o),
(299,-8,cs),
(228,-8,o),
(103,14,o),
(68,123,c),
(115,123,l),
(147,53,o),
(229,28,o),
(296,28,cs),
(412,28,o),
(500,89,o),
(500,214,cs),
(500,335,o),
(431,400,o),
(314,400,cs),
(240,400,o),
(173,358,o),
(138,316,c)
);
}
);
width = 605;
}
);
unicode = 53;
},
{
glyphname = six;
layers = (
{
layerId = "C985D1D4-6D1D-43A7-B614-37C5E085729D";
shapes = (
{
closed = 1;
nodes = (
(460,436,o),
(560,347,o),
(560,219,cs),
(560,70,o),
(457,-8,o),
(328,-8,cs),
(129,-8,o),
(66,166,o),
(66,334,cs),
(66,522,o),
(131,715,o),
(343,715,cs),
(430,715,o),
(503,675,o),
(542,599,c),
(496,599,l),
(463,652,o),
(401,679,o),
(341,679,cs),
(132,679,o),
(105,444,o),
(109,295,c),
(157,405,o),
(249,436,o),
(335,436,cs)
);
},
{
closed = 1;
nodes = (
(518,322,o),
(442,398,o),
(331,398,cs),
(234,398,o),
(131,332,o),
(133,212,cs),
(134,103,o),
(224,28,o),
(327,28,cs),
(444,28,o),
(518,108,o),
(518,210,cs)
);
}
);
width = 620;
}
);
unicode = 54;
},
{
glyphname = dieresis;
layers = (
{
layerId = "C985D1D4-6D1D-43A7-B614-37C5E085729D";
shapes = (
{
closed = 1;
nodes = (
(374,714,o),
(390,698,o),
(390,675,cs),
(390,652,o),
(374,636,o),
(349,636,cs),
(325,636,o),
(310,654,o),
(310,675,cs),
(310,696,o),
(325,714,o),
(349,714,cs)
);
},
{
closed = 1;
nodes = (
(163,714,o),
(179,698,o),
(179,675,cs),
(179,652,o),
(163,636,o),
(138,636,cs),
(114,636,o),
(99,654,o),
(99,675,cs),
(99,696,o),
(114,714,o),
(138,714,cs)
);
}
);
width = 489;
}
);
unicode = 168;
},
{
glyphname = cedilla;
layers = (
{
layerId = "C985D1D4-6D1D-43A7-B614-37C5E085729D";
shapes = (
{
closed = 1;
nodes = (
(280,-78,l),
(295,-75,o),
(303,-75,o),
(315,-75,c),
(358,-76,o),
(389,-102,o),
(389,-153,cs),
(389,-233,o),
(307,-256,o),
(241,-248,c),
(241,-221,l),
(280,-226,o),
(359,-219,o),
(359,-151,cs),
(359,-118,o),
(336,-100,o),
(300,-100,cs),
(284,-100,o),
(259,-105,o),
(244,-109,c),
(284,18,l),
(310,18,l)
);
}
);
width = 576;
}
);
unicode = 184;
},
{
glyphname = dotlessi;
layers = (
{
layerId = "C985D1D4-6D1D-43A7-B614-37C5E085729D";
shapes = (
{
closed = 1;
nodes = (
(73,527,l),
(115,527,l),
(115,0,l),
(73,0,l)
);
}
);
width = 188;
}
);
unicode = 305;
},
{
glyphname = ccedilla;
kernLeft = _kern5;
kernRight = _kern6;
layers = (
{
layerId = "C985D1D4-6D1D-43A7-B614-37C5E085729D";
shapes = (
{
closed = 1;
nodes = (
(280,-79,l),
(295,-76,o),
(300,-76,o),
(315,-76,c),
(355,-77,o),
(389,-101,o),
(389,-153,cs),
(389,-232,o),
(309,-256,o),
(241,-248,c),
(241,-222,l),
(280,-225,o),
(359,-220,o),
(359,-151,cs),
(359,-112,o),
(335,-100,o),
(299,-100,cs),
(284,-100,o),
(260,-103,o),
(245,-108,c),
(276,-6,l),
(128,5,o),
(53,114,o),
(53,262,cs),
(53,418,o),
(139,534,o),
(304,534,cs),
(393,534,o),
(466,492,o),
(497,408,c),
(451,408,l),
(428,471,o),
(367,498,o),
(300,498,cs),
(161,498,o),
(95,393,o),
(95,262,cs),
(95,135,o),
(160,29,o),
(303,29,cs),
(374,29,o),
(433,55,o),
(460,118,c),
(506,118,l),
(472,35,o),
(389,-7,o),
(302,-7,c)
);
}
);
width = 551;
}
);
unicode = 231;
},
{
glyphname = uni0162;
kernLeft = _kern28;
kernRight = _kern28;
layers = (
{
layerId = "C985D1D4-6D1D-43A7-B614-37C5E085729D";
shapes = (
{
closed = 1;
nodes = (
(271,-79,l),
(286,-76,o),
(291,-76,o),
(306,-76,cs),
(346,-77,o),
(380,-101,o),
(380,-153,cs),
(380,-232,o),
(300,-256,o),
(232,-248,c),
(232,-222,l),
(271,-225,o),
(350,-220,o),
(350,-151,cs),
(350,-112,o),
(326,-100,o),
(290,-100,cs),
(275,-100,o),
(249,-103,o),
(234,-108,c),
(269,0,l),
(262,0,l),
(262,669,l),
(20,669,l),
(20,707,l),
(546,707,l),
(546,669,l),
(304,669,l),
(304,0,l),
(295,0,l)
);
}
);
width = 566;
}
);
unicode = 354;
},
{
glyphname = uni0163;
kernLeft = _kern21;
kernRight = _kern21;
layers = (
{
layerId = "C985D1D4-6D1D-43A7-B614-37C5E085729D";
shapes = (
{
closed = 1;
nodes = (
(196,-79,l),
(211,-76,o),
(216,-76,o),
(231,-76,cs),
(271,-77,o),
(305,-101,o),
(305,-153,cs),
(305,-232,o),
(225,-256,o),
(157,-248,c),
(157,-222,l),
(196,-225,o),
(275,-220,o),
(275,-151,cs),
(275,-112,o),
(251,-100,o),
(215,-100,cs),
(200,-100,o),
(174,-103,o),
(159,-108,c),
(199,15,l),
(149,36,o),
(124,87,o),
(124,167,cs),
(124,492,l),
(31,492,l),
(31,527,l),
(124,527,l),
(124,685,l),
(166,685,l),
(166,527,l),
(322,527,l),
(322,492,l),
(166,492,l),
(166,171,ls),
(166,80,o),
(199,36,o),
(292,36,cs),
(319,36,l),
(319,0,l),
(284,0,ls),
(260,0,o),
(240,2,o),
(223,7,c)
);
}
);
width = 359;
}
);
unicode = 355;
},
{
glyphname = Ccedilla;
kernLeft = _kern3;
kernRight = _kern4;
layers = (
{
layerId = "C985D1D4-6D1D-43A7-B614-37C5E085729D";
shapes = (
{
closed = 1;
nodes = (
(187,679,o),
(96,530,o),
(96,355,cs),
(96,178,o),
(184,28,o),
(378,28,cs),
(465,28,o),
(565,64,o),
(602,149,c),
(651,149,l),
(606,41,o),
(490,-8,o),
(377,-8,c),
(355,-79,l),
(370,-76,o),
(376,-76,o),
(391,-76,cs),
(431,-77,o),
(465,-101,o),
(465,-153,cs),
(465,-232,o),
(383,-256,o),
(316,-248,c),
(316,-222,l),
(355,-225,o),
(434,-220,o),
(434,-151,cs),
(434,-112,o),
(410,-100,o),
(374,-100,cs),
(359,-100,o),
(334,-103,o),
(319,-108,c),
(351,-7,l),
(147,4,o),
(54,154,o),
(54,353,cs),
(54,557,o),
(160,715,o),
(379,715,cs),
(495,715,o),
(598,670,o),
(638,558,c),
(594,558,l),
(555,641,o),
(475,679,o),
(383,679,cs)
);
}
);
width = 699;
}
);
unicode = 199;
},
{
glyphname = scedilla;
kernLeft = _kern5;
kernRight = _kern6;
layers = (
{
layerId = "C985D1D4-6D1D-43A7-B614-37C5E085729D";
shapes = (
{
closed = 1;
nodes = (
(242,-79,l),
(253,-76,o),
(266,-76,o),
(275,-76,cs),
(318,-77,o),
(351,-101,o),
(351,-153,cs),
(351,-232,o),
(271,-256,o),
(203,-248,c),
(203,-222,l),
(242,-225,o),
(321,-220,o),
(321,-151,cs),
(321,-112,o),
(297,-100,o),
(261,-100,cs),
(246,-100,o),
(221,-103,o),
(206,-108,c),
(238,-6,l),
(156,-3,o),
(69,33,o),
(43,109,c),
(90,109,l),
(122,47,o),
(197,29,o),
(257,29,cs),
(326,29,o),
(418,49,o),
(418,134,cs),
(418,202,o),
(361,221,o),
(309,231,cs),
(252,242,ls),
(164,259,o),
(58,279,o),
(58,393,cs),
(58,502,o),
(154,534,o),
(251,534,cs),
(329,534,o),
(413,502,o),
(437,425,c),
(395,425,l),
(371,477,o),
(305,498,o),
(250,498,cs),
(194,498,o),
(99,488,o),
(99,394,cs),
(99,327,o),
(158,301,o),
(211,289,cs),
(254,279,o),
(299,273,o),
(342,262,cs),
(411,245,o),
(459,211,o),
(459,139,cs),
(459,27,o),
(359,-4,o),
(264,-7,c)
);
}
);
width = 504;
}
);
unicode = 351;
},
{
glyphname = uni21A9;
layers = (
{
layerId = "C985D1D4-6D1D-43A7-B614-37C5E085729D";
shapes = (
{
closed = 1;
nodes = (
(766,38,ls),
(946,38,o),
(1052,168,o),
(1052,340,cs),
(1052,510,o),
(945,639,o),
(766,639,cs),
(202,639,l),
(202,677,l),
(769,677,ls),
(973,677,o),
(1094,534,o),
(1094,340,cs),
(1094,143,o),
(975,0,o),
(772,0,cs),
(137,0,l),
(395,-256,l),
(367,-287,l),
(65,19,l),
(367,324,l),
(395,294,l),
(137,38,l)
);
}
);
width = 1159;
}
);
unicode = 8617;
},
{
glyphname = uni2713;
layers = (
{
layerId = "C985D1D4-6D1D-43A7-B614-37C5E085729D";
shapes = (
{
closed = 1;
nodes = (
(953,807,l),
(994,774,l),
(373,2,l),
(65,355,l),
(105,389,l),
(371,77,l)
);
}
);
width = 1059;
}
);
unicode = 10003;
},
{
glyphname = divide;
layers = (
{
layerId = "C985D1D4-6D1D-43A7-B614-37C5E085729D";
shapes = (
{
closed = 1;
nodes = (
(254,215,o),
(269,199,o),
(269,175,cs),
(269,151,o),
(256,134,o),
(229,134,cs),
(204,134,o),
(189,151,o),
(189,175,cs),
(189,199,o),
(204,215,o),
(229,215,cs)
);
},
{
closed = 1;
nodes = (
(254,583,o),
(269,567,o),
(269,543,cs),
(269,519,o),
(256,502,o),
(229,502,cs),
(204,502,o),
(189,519,o),
(189,543,cs),
(189,567,o),
(204,583,o),
(229,583,cs)
);
},
{
closed = 1;
nodes = (
(394,340,l),
(65,340,l),
(65,377,l),
(394,377,l)
);
}
);
width = 459;
}
);
unicode = 247;
},
{
glyphname = multiply;
layers = (
{
layerId = "C985D1D4-6D1D-43A7-B614-37C5E085729D";
shapes = (
{
closed = 1;
nodes = (
(221,331,l),
(73,182,l),
(50,205,l),
(200,353,l),
(50,502,l),
(74,525,l),
(222,374,l),
(369,525,l),
(392,502,l),
(244,353,l),
(392,205,l),
(369,182,l)
);
}
);
width = 442;
}
);
unicode = 215;
},
{
glyphname = yen;
layers = (
{
layerId = "C985D1D4-6D1D-43A7-B614-37C5E085729D";
shapes = (
{
closed = 1;
nodes = (
(538,707,l),
(589,707,l),
(357,298,l),
(491,298,l),
(491,262,l),
(338,262,l),
(338,138,l),
(491,138,l),
(491,103,l),
(338,103,l),
(338,0,l),
(295,0,l),
(295,103,l),
(141,103,l),
(141,138,l),
(295,138,l),
(295,262,l),
(141,262,l),
(141,298,l),
(277,298,l),
(45,707,l),
(96,707,l),
(318,305,l)
);
}
);
width = 634;
}
);
unicode = 165;
},
{
glyphname = uni20BD;
layers = (
{
layerId = "C985D1D4-6D1D-43A7-B614-37C5E085729D";
shapes = (
{
closed = 1;
nodes = (
(169,707,l),
(401,707,ls),
(552,707,o),
(646,645,o),
(646,488,cs),
(646,331,o),
(532,266,o),
(384,266,cs),
(211,266,l),
(211,135,l),
(521,135,l),
(521,98,l),
(211,98,l),
(211,0,l),
(169,0,l),
(169,98,l),
(65,98,l),
(65,135,l),
(169,135,l),
(169,266,l),
(65,266,l),
(65,303,l),
(169,303,l)
);
},
{
closed = 1;
nodes = (
(381,303,ls),
(513,303,o),
(604,353,o),
(604,492,cs),
(604,622,o),
(523,669,o),
(397,669,cs),
(211,669,l),
(211,303,l)
);
}
);
width = 701;
}
);
unicode = 8381;
},
{
glyphname = uni20B4;
layers = (
{
layerId = "C985D1D4-6D1D-43A7-B614-37C5E085729D";
shapes = (
{
closed = 1;
nodes = (
(403,715,o),
(499,678,o),
(499,570,cs),
(499,501,o),
(446,454,o),
(429,437,c),
(532,437,l),
(531,401,l),
(397,401,l),
(221,264,l),
(531,264,l),
(531,228,l),
(181,228,l),
(158,208,o),
(145,169,o),
(145,140,cs),
(145,58,o),
(221,28,o),
(285,28,cs),
(342,28,o),
(420,38,o),
(449,99,c),
(496,99,l),
(467,19,o),
(370,-8,o),
(287,-8,cs),
(236,-8,o),
(104,6,o),
(102,131,cs),
(102,154,o),
(107,195,o),
(134,228,c),
(53,228,l),
(53,264,l),
(167,264,l),
(339,401,l),
(53,401,l),
(53,437,l),
(379,437,l),
(422,468,o),
(457,517,o),
(457,568,cs),
(457,643,o),
(391,679,o),
(315,679,cs),
(269,679,o),
(188,665,o),
(164,600,c),
(114,600,l),
(143,688,o),
(234,715,o),
(316,715,cs)
);
}
);
width = 585;
}
);
unicode = 8372;
},
{
glyphname = sterling;
layers = (
{
layerId = "C985D1D4-6D1D-43A7-B614-37C5E085729D";
shapes = (
{
closed = 1;
nodes = (
(414,318,l),
(193,318,l),
(193,38,l),
(511,38,l),
(511,0,l),
(65,0,l),
(65,38,l),
(153,38,l),
(153,318,l),
(65,318,l),
(65,355,l),
(153,355,l),
(153,531,ls),
(153,654,o),
(222,715,o),
(342,715,cs),
(419,715,o),
(487,679,o),
(505,605,c),
(463,605,l),
(444,657,o),
(395,679,o),
(344,679,cs),
(240,679,o),
(193,628,o),
(193,524,cs),
(193,355,l),
(414,355,l)
);
}
);
width = 576;
}
);
unicode = 163;
},
{
glyphname = Scedilla;
kernLeft = _kern3;
kernRight = _kern4;
layers = (
{
layerId = "C985D1D4-6D1D-43A7-B614-37C5E085729D";
shapes = (
{
closed = 1;
nodes = (
(320,-79,l),
(332,-76,o),
(343,-76,o),
(352,-76,cs),
(397,-77,o),
(429,-101,o),
(429,-153,cs),
(429,-232,o),
(349,-256,o),
(281,-248,c),
(281,-222,l),
(320,-225,o),
(399,-220,o),
(399,-151,cs),
(399,-112,o),
(375,-100,o),
(339,-100,cs),
(324,-100,o),
(300,-103,o),
(285,-108,c),
(316,-7,l),
(204,-4,o),
(100,41,o),
(63,149,c),
(110,149,l),
(153,61,o),
(245,28,o),
(332,28,cs),
(432,28,o),
(534,72,o),
(534,176,cs),
(534,262,o),
(477,291,o),
(401,313,cs),
(361,325,o),
(323,335,o),
(288,344,cs),
(189,368,o),
(83,401,o),
(83,528,cs),
(83,666,o),
(201,715,o),
(324,715,cs),
(433,715,o),
(532,674,o),
(556,562,c),
(511,562,l),
(487,648,o),
(402,679,o),
(323,679,cs),
(237,679,o),
(129,646,o),
(129,535,cs),
(129,444,o),
(193,414,o),
(271,392,cs),
(327,377,o),
(382,363,o),
(433,347,cs),
(514,323,o),
(579,272,o),
(579,187,cs),
(579,46,o),
(461,-5,o),
(342,-8,c)
);
}
);
width = 643;
}
);
unicode = 350;
},
{
glyphname = t_alt;
kernLeft = _kern21;
kernRight = _kern21;
layers = (
{
layerId = "C985D1D4-6D1D-43A7-B614-37C5E085729D";
shapes = (
{
closed = 1;
nodes = (
(170,527,l),
(328,527,l),
(328,492,l),
(170,492,l),
(170,171,ls),
(170,80,o),
(200,36,o),
(293,36,cs),
(323,36,l),
(323,0,l),
(286,0,ls),
(168,0,o),
(128,59,o),
(128,167,cs),
(128,492,l),
(35,492,l),
(35,527,l),
(129,527,l),
(129,685,l),
(170,685,l)
);
}
);
width = 373;
}
);
},
{
glyphname = alt_1;
layers = (
{
layerId = "C985D1D4-6D1D-43A7-B614-37C5E085729D";
shapes = (
{
closed = 1;
nodes = (
(466,0,l),
(53,0,l),
(53,39,l),
(255,39,l),
(255,602,l),
(106,602,l),
(106,631,l),
(200,631,o),
(258,631,o),
(269,707,c),
(298,707,l),
(298,39,l),
(466,39,l)
);
}
);
width = 491;
}
);
},
{
glyphname = uni2117;
layers = (
{
layerId = "C985D1D4-6D1D-43A7-B614-37C5E085729D";
shapes = (
{
closed = 1;
nodes = (
(720,715,o),
(877,539,o),
(877,292,cs),
(877,45,o),
(725,-129,o),
(471,-129,cs),
(217,-129,o),
(65,45,o),
(65,292,cs),
(65,539,o),
(222,715,o),
(471,715,cs)
);
},
{
closed = 1;
nodes = (
(244,677,o),
(106,513,o),
(106,292,cs),
(106,72,o),
(243,-92,o),
(471,-92,cs),
(701,-92,o),
(836,74,o),
(836,292,cs),
(836,511,o),
(699,677,o),
(471,677,cs)
);
},
{
closed = 1;
nodes = (
(396,78,l),
(356,78,l),
(356,493,l),
(496,493,ls),
(584,493,o),
(650,451,o),
(650,359,cs),
(651,266,o),
(579,221,o),
(482,221,cs),
(396,221,l)
);
},
{
closed = 1;
nodes = (
(480,257,ls),
(553,257,o),
(610,279,o),
(610,359,cs),
(610,433,o),
(559,457,o),
(491,457,cs),
(396,457,l),
(396,257,l)
);
}
);
width = 942;
}
);
unicode = 8471;
},
{
glyphname = colon.uc;
layers = (
{
layerId = "C985D1D4-6D1D-43A7-B614-37C5E085729D";
shapes = (
{
closed = 1;
nodes = (
(138,572,o),
(153,556,o),
(153,532,cs),
(153,508,o),
(138,490,o),
(113,490,cs),
(88,490,o),
(73,508,o),
(73,532,cs),
(73,556,o),
(88,572,o),
(113,572,cs)
);
},
{
closed = 1;
nodes = (
(138,195,o),
(153,179,o),
(153,155,cs),
(153,132,o),
(138,114,o),
(113,114,cs),
(88,114,o),
(73,132,o),
(73,155,cs),
(73,179,o),
(88,195,o),
(113,195,cs)
);
}
);
width = 226;
}
);
},
{
glyphname = y_alt;
layers = (
{
layerId = "C985D1D4-6D1D-43A7-B614-37C5E085729D";
shapes = (
{
closed = 1;
nodes = (
(524,527,l),
(524,-17,ls),
(524,-170,o),
(442,-257,o),
(289,-257,cs),
(195,-257,o),
(111,-218,o),
(79,-133,c),
(127,-133,l),
(157,-198,o),
(228,-221,o),
(292,-221,cs),
(473,-221,o),
(482,-69,o),
(482,-12,cs),
(482,107,l),
(429,3,o),
(337,-8,o),
(272,-8,cs),
(120,-8,o),
(70,103,o),
(70,243,cs),
(70,527,l),
(112,527,l),
(112,266,ls),
(112,151,o),
(135,28,o),
(281,28,cs),
(433,28,o),
(482,155,o),
(482,272,cs),
(482,527,l)
);
}
);
width = 597;
}
);
},
{
glyphname = u_alt;
layers = (
{
layerId = "C985D1D4-6D1D-43A7-B614-37C5E085729D";
shapes = (
{
closed = 1;
nodes = (
(524,527,l),
(524,0,l),
(482,0,l),
(482,107,l),
(431,8,o),
(345,-8,o),
(274,-8,cs),
(116,-8,o),
(70,107,o),
(70,241,cs),
(70,527,l),
(112,527,l),
(112,267,ls),
(112,147,o),
(133,29,o),
(282,29,cs),
(430,29,o),
(482,153,o),
(482,280,cs),
(482,527,l)
);
}
);
width = 597;
}
);
},
{
glyphname = be_alt;
layers = (
{
layerId = "C985D1D4-6D1D-43A7-B614-37C5E085729D";
shapes = (
{
closed = 1;
nodes = (
(50,506,o),
(74,597,o),
(182,658,cs),
(214,677,o),
(288,700,o),
(349,718,cs),
(396,732,o),
(462,754,o),
(494,783,c),
(519,751,l),
(480,715,o),
(410,696,o),
(352,679,cs),
(303,665,o),
(262,652,o),
(227,636,cs),
(134,593,o),
(93,531,o),
(90,349,c),
(141,464,o),
(242,484,o),
(311,484,cs),
(450,483,o),
(526,379,o),
(526,246,cs),
(526,99,o),
(439,-7,o),
(288,-7,cs),
(99,-7,o),
(50,142,o),
(50,311,cs)
);
},
{
closed = 1;
nodes = (
(416,29,o),
(485,129,o),
(485,243,cs),
(485,352,o),
(420,446,o),
(300,446,cs),
(175,446,o),
(101,346,o),
(101,234,cs),
(101,123,o),
(170,29,o),
(288,29,cs)
);
}
);
width = 575;
}
);
},
{
glyphname = g_alt;
layers = (
{
layerId = "C985D1D4-6D1D-43A7-B614-37C5E085729D";
shapes = (
{
closed = 1;
nodes = (
(495,527,l),
(537,527,l),
(537,6,ls),
(537,-158,o),
(471,-257,o),
(300,-257,cs),
(208,-257,o),
(146,-227,o),
(99,-195,c),
(118,-160,l),
(178,-204,o),
(241,-221,o),
(304,-221,cs),
(453,-221,o),
(495,-125,o),
(495,7,cs),
(495,125,l),
(452,21,o),
(357,-7,o),
(287,-7,cs),
(115,-7,o),
(53,122,o),
(53,264,cs),
(53,408,o),
(133,534,o),
(294,534,cs),
(364,534,o),
(440,512,o),
(494,421,c)
);
},
{
closed = 1;
nodes = (
(155,498,o),
(95,381,o),
(95,265,cs),
(95,136,o),
(149,29,o),
(293,29,cs),
(420,29,o),
(493,145,o),
(493,265,cs),
(493,396,o),
(427,498,o),
(290,498,cs)
);
}
);
width = 610;
}
);
},
{
glyphname = y;
layers = (
{
layerId = "C985D1D4-6D1D-43A7-B614-37C5E085729D";
shapes = (
{
closed = 1;
nodes = (
(524,527,l),
(524,-6,ls),
(524,-165,o),
(457,-258,o),
(294,-258,cs),
(223,-258,o),
(148,-239,o),
(92,-196,c),
(111,-160,l),
(166,-199,o),
(228,-220,o),
(293,-220,cs),
(432,-220,o),
(482,-141,o),
(482,-11,cs),
(482,107,l),
(431,8,o),
(345,-8,o),
(274,-8,cs),
(116,-8,o),
(70,107,o),
(70,241,cs),
(70,527,l),
(112,527,l),
(112,267,ls),
(112,147,o),
(133,29,o),
(282,29,cs),
(430,29,o),
(482,146,o),
(482,274,cs),
(482,527,l)
);
}
);
width = 597;
}
);
unicode = 121;
},
{
glyphname = t2.alt;
layers = (
{
layerId = "C985D1D4-6D1D-43A7-B614-37C5E085729D";
shapes = (
{
closed = 1;
nodes = (
(166,527,l),
(347,527,l),
(347,492,l),
(166,492,l),
(166,170,ls),
(166,102,o),
(176,29,o),
(270,29,cs),
(294,29,o),
(324,36,o),
(343,49,c),
(358,16,l),
(331,-1,o),
(301,-7,o),
(264,-7,cs),
(158,-7,o),
(124,57,o),
(124,158,cs),
(124,492,l),
(31,492,l),
(31,527,l),
(124,527,l),
(124,685,l),
(166,685,l)
);
}
);
width = 379;
}
);
},
{
glyphname = f_alt;
layers = (
{
layerId = "C985D1D4-6D1D-43A7-B614-37C5E085729D";
shapes = (
{
closed = 1;
nodes = (
(128,0,l),
(128,492,l),
(35,492,l),
(35,527,l),
(128,527,l),
(128,597,ls),
(128,698,o),
(161,774,o),
(278,774,cs),
(313,774,o),
(337,767,o),
(358,756,c),
(343,723,l),
(324,732,o),
(301,739,o),
(274,739,cs),
(184,738,o),
(170,668,o),
(170,601,cs),
(170,527,l),
(348,527,l),
(348,492,l),
(170,492,l),
(170,0,l)
);
}
);
width = 366;
}
);
},
{
glyphname = hyphen.uc;
layers = (
{
layerId = "C985D1D4-6D1D-43A7-B614-37C5E085729D";
shapes = (
{
closed = 1;
nodes = (
(80,355,l),
(360,355,l),
(360,318,l),
(80,318,l)
);
}
);
width = 440;
}
);
},
{
glyphname = uni00AD.uc;
layers = (
{
layerId = "C985D1D4-6D1D-43A7-B614-37C5E085729D";
shapes = (
{
closed = 1;
nodes = (
(80,355,l),
(360,355,l),
(360,318,l),
(80,318,l)
);
}
);
width = 440;
}
);
},
{
glyphname = endash.uc;
layers = (
{
layerId = "C985D1D4-6D1D-43A7-B614-37C5E085729D";
shapes = (
{
closed = 1;
nodes = (
(80,355,l),
(488,355,l),
(488,318,l),
(80,318,l)
);
}
);
width = 568;
}
);
},
{
glyphname = emdash.uc;
layers = (
{
layerId = "C985D1D4-6D1D-43A7-B614-37C5E085729D";
shapes = (
{
closed = 1;
nodes = (
(80,355,l),
(681,355,l),
(681,318,l),
(80,318,l)
);
}
);
width = 761;
}
);
},
{
glyphname = a_alt;
kernLeft = _kern27;
kernRight = _kern27;
layers = (
{
layerId = "C985D1D4-6D1D-43A7-B614-37C5E085729D";
shapes = (
{
closed = 1;
nodes = (
(95,55,o),
(169,28,o),
(230,28,cs),
(339,28,o),
(440,89,o),
(440,215,cs),
(440,265,l),
(359,262,o),
(239,259,o),
(170,233,cs),
(125,216,o),
(95,180,o),
(95,135,cs)
);
},
{
closed = 1;
nodes = (
(438,87,l),
(383,11,o),
(294,-7,o),
(226,-7,cs),
(133,-7,o),
(53,34,o),
(53,134,cs),
(53,244,o),
(160,275,o),
(246,288,cs),
(291,295,o),
(355,298,o),
(438,301,c),
(438,415,o),
(396,498,o),
(276,498,cs),
(220,498,o),
(162,485,o),
(131,432,c),
(84,432,l),
(113,507,o),
(197,534,o),
(278,534,cs),
(430,534,o),
(482,422,o),
(482,287,cs),
(482,0,l),
(438,0,l)
);
}
);
width = 552;
}
);
},
{
glyphname = uni0490;
kernLeft = _kern23;
kernRight = _kern23;
layers = (
{
layerId = "C985D1D4-6D1D-43A7-B614-37C5E085729D";
shapes = (
{
closed = 1;
nodes = (
(93,0,l),
(93,707,l),
(485,707,l),
(485,861,l),
(528,861,l),
(528,669,l),
(135,669,l),
(135,0,l)
);
}
);
width = 561;
}
);
unicode = 1168;
},
{
glyphname = uni0491;
kernLeft = _kern24;
kernRight = _kern24;
layers = (
{
layerId = "C985D1D4-6D1D-43A7-B614-37C5E085729D";
shapes = (
{
closed = 1;
nodes = (
(73,0,l),
(73,527,l),
(380,527,l),
(380,672,l),
(420,672,l),
(420,492,l),
(115,492,l),
(115,0,l)
);
}
);
width = 449;
}
);
unicode = 1169;
},
{
glyphname = uni0406;
layers = (
{
layerId = "C985D1D4-6D1D-43A7-B614-37C5E085729D";
shapes = (
{
closed = 1;
nodes = (
(135,0,l),
(93,0,l),
(93,707,l),
(135,707,l)
);
}
);
width = 228;
}
);
unicode = 1030;
},
{
glyphname = uni0456;
layers = (
{
layerId = "C985D1D4-6D1D-43A7-B614-37C5E085729D";
shapes = (
{
closed = 1;
nodes = (
(129,726,o),
(145,710,o),
(145,687,cs),
(145,663,o),
(129,648,o),
(105,648,cs),
(82,648,o),
(65,663,o),
(65,687,cs),
(65,712,o),
(82,726,o),
(105,726,cs)
);
},
{
closed = 1;
nodes = (
(83,527,l),
(125,527,l),
(125,0,l),
(83,0,l)
);
}
);
width = 210;
}
);
unicode = 1110;
},
{
glyphname = uni0404;
layers = (
{
layerId = "C985D1D4-6D1D-43A7-B614-37C5E085729D";
shapes = (
{
closed = 1;
nodes = (
(194,679,o),
(101,540,o),
(96,373,c),
(473,373,l),
(473,335,l),
(96,335,l),
(104,167,o),
(191,28,o),
(379,28,cs),
(466,28,o),
(565,63,o),
(602,149,c),
(651,149,l),
(606,40,o),
(492,-8,o),
(378,-8,cs),
(157,-8,o),
(54,146,o),
(54,353,cs),
(54,560,o),
(164,715,o),
(379,715,cs),
(492,715,o),
(598,670,o),
(638,558,c),
(594,558,l),
(555,641,o),
(475,679,o),
(383,679,cs)
);
}
);
width = 699;
}
);
unicode = 1028;
},
{
glyphname = uni0454;
layers = (
{
layerId = "C985D1D4-6D1D-43A7-B614-37C5E085729D";
shapes = (
{
closed = 1;
nodes = (
(136,-7,o),
(53,106,o),
(53,262,cs),
(53,418,o),
(139,534,o),
(304,534,cs),
(393,534,o),
(466,492,o),
(497,408,c),
(451,408,l),
(428,471,o),
(367,498,o),
(300,498,cs),
(167,498,o),
(100,402,o),
(95,279,c),
(368,279,l),
(368,244,l),
(95,244,l),
(100,125,o),
(168,29,o),
(303,29,cs),
(374,29,o),
(433,55,o),
(460,118,c),
(506,118,l),
(471,33,o),
(389,-7,o),
(300,-7,cs)
);
}
);
width = 551;
}
);
unicode = 1108;
},
{
glyphname = uni0407;
layers = (
{
layerId = "C985D1D4-6D1D-43A7-B614-37C5E085729D";
shapes = (
{
closed = 1;
nodes = (
(137,0,l),
(95,0,l),
(95,707,l),
(137,707,l)
);
},
{
closed = 1;
nodes = (
(67,847,o),
(82,831,o),
(82,812,cs),
(82,792,o),
(69,776,o),
(46,776,cs),
(23,776,o),
(10,792,o),
(10,812,cs),
(10,832,o),
(23,847,o),
(46,847,cs)
);
},
{
closed = 1;
nodes = (
(207,847,o),
(222,831,o),
(222,812,cs),
(222,792,o),
(207,776,o),
(186,776,cs),
(163,776,o),
(149,792,o),
(149,812,cs),
(149,833,o),
(162,847,o),
(186,847,cs)
);
}
);
width = 233;
}
);
unicode = 1031;
},
{
glyphname = uni0457;
layers = (
{
layerId = "C985D1D4-6D1D-43A7-B614-37C5E085729D";
shapes = (
{
closed = 1;
nodes = (
(87,527,l),
(129,527,l),
(129,0,l),
(87,0,l)
);
},
{
closed = 1;
nodes = (
(64,713,o),
(81,699,o),
(81,676,cs),
(81,656,o),
(66,638,o),
(43,638,cs),
(20,638,o),
(5,653,o),
(5,676,cs),
(5,699,o),
(20,713,o),
(43,713,cs)
);
},
{
closed = 1;
nodes = (
(195,713,o),
(211,699,o),
(211,676,cs),
(211,653,o),
(197,638,o),
(174,638,cs),
(151,638,o),
(136,656,o),
(136,676,cs),
(136,700,o),
(153,713,o),
(174,713,cs)
);
}
);
width = 217;
}
);
unicode = 1111;
},
{
glyphname = logo;
layers = (
{
layerId = "C985D1D4-6D1D-43A7-B614-37C5E085729D";
shapes = (
{
closed = 1;
nodes = (
(797,499,o),
(793,495,o),
(786,493,c),
(786,482,o),
(777,474,o),
(766,474,c),
(764,464,o),
(758,459,o),
(747,459,cs),
(742,459,o),
(738,461,o),
(733,464,c),
(721,477,ls),
(717,481,o),
(715,486,o),
(715,491,cs),
(715,517,l),
(690,537,l),
(572,537,l),
(546,511,l),
(546,475,l),
(690,475,ls),
(696,475,o),
(701,473,o),
(704,470,cs),
(729,444,ls),
(733,440,o),
(735,435,o),
(735,430,cs),
(735,419,o),
(727,411,o),
(716,411,cs),
(678,411,ls),
(673,411,o),
(668,413,o),
(664,417,cs),
(644,436,l),
(535,436,l),
(441,342,l),
(438,342,o),
(433,335,o),
(426,335,cs),
(418,335,o),
(413,342,o),
(410,342,c),
(317,436,l),
(207,436,l),
(187,417,l),
(184,413,o),
(179,411,o),
(173,411,cs),
(136,411,ls),
(125,411,o),
(115,419,o),
(115,430,cs),
(115,435,o),
(117,439,o),
(122,444,cs),
(147,470,l),
(152,473,o),
(156,475,o),
(161,475,cs),
(198,475,l),
(199,475,l),
(305,475,l),
(305,511,l),
(279,537,l),
(161,537,l),
(136,517,l),
(136,491,ls),
(136,486,o),
(134,481,o),
(130,477,cs),
(118,464,l),
(113,461,o),
(109,459,o),
(104,459,cs),
(93,459,o),
(86,464,o),
(85,474,c),
(74,474,o),
(66,482,o),
(66,493,c),
(57,496,o),
(49,501,o),
(49,512,cs),
(49,517,o),
(51,521,o),
(56,526,cs),
(68,539,ls),
(72,543,o),
(77,545,o),
(82,545,cs),
(109,545,l),
(109,545,o),
(110,546,o),
(111,547,c),
(142,572,ls),
(145,575,o),
(149,576,o),
(154,576,cs),
(193,576,l),
(196,585,o),
(202,589,o),
(211,589,cs),
(216,589,o),
(221,587,o),
(225,583,cs),
(232,576,l),
(287,576,ls),
(292,576,o),
(296,574,o),
(301,571,c),
(305,566,l),
(305,586,l),
(279,613,l),
(144,613,l),
(124,593,l),
(119,590,o),
(115,588,o),
(110,588,cs),
(98,588,ls),
(93,588,o),
(89,590,o),
(84,593,c),
(71,606,l),
(68,611,o),
(66,615,o),
(66,620,cs),
(66,625,o),
(67,629,o),
(70,632,c),
(67,635,o),
(66,640,o),
(66,645,cs),
(66,650,o),
(68,654,o),
(71,659,c),
(84,671,ls),
(88,675,o),
(93,677,o),
(98,677,cs),
(110,677,ls),
(115,677,o),
(120,675,o),
(124,671,cs),
(144,652,l),
(179,652,l),
(179,680,l),
(163,680,o),
(154,706,o),
(154,721,cs),
(154,758,ls),
(154,769,o),
(162,778,o),
(173,778,cs),
(224,778,ls),
(235,778,o),
(243,769,o),
(243,758,cs),
(243,721,ls),
(243,706,o),
(234,680,o),
(218,680,c),
(218,652,l),
(243,652,l),
(242,653,o),
(242,655,o),
(242,657,cs),
(242,668,o),
(250,677,o),
(262,677,cs),
(267,677,o),
(272,675,o),
(276,671,cs),
(312,635,l),
(315,638,o),
(320,639,o),
(325,639,cs),
(336,639,o),
(344,631,o),
(344,620,cs),
(344,464,l),
(406,402,l),
(406,473,l),
(374,505,ls),
(370,509,o),
(368,514,o),
(368,519,cs),
(368,530,o),
(377,538,o),
(388,538,cs),
(393,538,o),
(397,536,o),
(402,533,c),
(406,528,l),
(406,612,l),
(311,707,l),
(307,710,o),
(305,714,o),
(305,721,cs),
(305,739,l),
(299,739,ls),
(288,739,o),
(280,747,o),
(280,758,cs),
(280,769,o),
(288,778,o),
(299,778,cs),
(305,778,l),
(305,784,ls),
(305,795,o),
(314,803,o),
(325,803,cs),
(336,803,o),
(344,795,o),
(344,784,cs),
(344,778,l),
(350,778,ls),
(361,778,o),
(369,769,o),
(369,758,cs),
(369,747,o),
(361,739,o),
(350,739,cs),
(344,739,l),
(344,729,l),
(406,667,l),
(406,787,l),
(405,788,o),
(404,789,o),
(404,790,c),
(349,845,ls),
(345,849,o),
(343,854,o),
(343,859,cs),
(343,864,o),
(345,869,o),
(349,873,cs),
(361,886,ls),
(364,889,o),
(365,889,o),
(368,890,c),
(368,910,ls),
(368,915,o),
(370,920,o),
(374,924,cs),
(387,936,l),
(390,940,o),
(394,942,o),
(400,942,cs),
(404,942,o),
(408,941,o),
(411,939,c),
(415,943,o),
(420,945,o),
(426,945,cs),
(431,945,o),
(436,943,o),
(440,939,c),
(443,941,o),
(446,942,o),
(451,942,cs),
(456,942,o),
(461,940,o),
(465,936,cs),
(477,924,ls),
(481,920,o),
(483,915,o),
(483,910,cs),
(483,890,l),
(486,889,o),
(488,887,o),
(490,886,c),
(502,873,ls),
(506,869,o),
(508,864,o),
(508,859,cs),
(508,854,o),
(506,849,o),
(502,845,cs),
(447,790,l),
(447,789,o),
(446,788,o),
(445,787,c),
(445,667,l),
(507,729,l),
(507,739,l),
(501,739,ls),
(490,739,o),
(482,747,o),
(482,758,cs),
(482,769,o),
(490,778,o),
(501,778,cs),
(507,778,l),
(507,784,ls),
(507,795,o),
(515,803,o),
(526,803,cs),
(537,803,o),
(546,795,o),
(546,784,cs),
(546,778,l),
(552,778,ls),
(563,778,o),
(571,769,o),
(571,758,cs),
(571,747,o),
(563,739,o),
(552,739,cs),
(546,739,l),
(546,721,ls),
(546,714,o),
(544,710,o),
(540,707,c),
(445,612,l),
(445,528,l),
(450,533,ls),
(453,536,o),
(458,538,o),
(463,538,cs),
(478,538,o),
(483,528,o),
(483,519,cs),
(483,514,o),
(481,509,o),
(477,505,cs),
(445,473,l),
(445,402,l),
(507,464,l),
(507,620,ls),
(507,631,o),
(515,639,o),
(526,639,cs),
(531,639,o),
(536,638,o),
(539,635,c),
(576,671,l),
(579,675,o),
(583,677,o),
(590,677,cs),
(601,677,o),
(609,668,o),
(609,657,c),
(609,656,o),
(608,655,o),
(608,652,c),
(633,652,l),
(633,680,l),
(617,680,o),
(608,706,o),
(608,721,cs),
(608,758,ls),
(608,769,o),
(616,778,o),
(627,778,cs),
(678,778,ls),
(689,778,o),
(697,769,o),
(697,758,cs),
(697,721,ls),
(697,706,o),
(688,680,o),
(672,680,c),
(672,652,l),
(708,652,l),
(727,671,ls),
(731,675,o),
(736,677,o),
(741,677,cs),
(753,677,ls),
(758,677,o),
(763,675,o),
(767,671,cs),
(780,659,ls),
(784,655,o),
(786,650,o),
(786,645,cs),
(786,641,o),
(784,637,o),
(781,632,c),
(784,629,o),
(786,625,o),
(786,620,cs),
(786,615,o),
(784,610,o),
(780,606,cs),
(767,593,l),
(762,590,o),
(758,588,o),
(753,588,cs),
(741,588,ls),
(736,588,o),
(732,590,o),
(727,593,c),
(708,613,l),
(572,613,l),
(546,586,l),
(546,566,l),
(550,571,l),
(555,574,o),
(559,576,o),
(564,576,cs),
(619,576,l),
(626,583,ls),
(630,587,o),
(635,589,o),
(640,589,cs),
(649,589,o),
(655,585,o),
(658,576,c),
(697,576,ls),
(702,576,o),
(706,575,o),
(709,572,cs),
(740,547,l),
(741,546,o),
(742,546,o),
(743,545,c),
(769,545,ls),
(774,545,o),
(779,543,o),
(783,539,cs),
(795,526,ls),
(799,522,o),
(801,517,o),
(801,512,cs),
(801,509,o),
(801,506,o),
(800,505,c)
);
},
{
closed = 1;
nodes = (
(277,13,ls),
(277,4,o),
(273,0,o),
(265,0,cs),
(204,0,ls),
(196,0,o),
(192,4,o),
(192,13,cs),
(192,362,ls),
(192,371,o),
(196,375,o),
(204,375,cs),
(265,375,ls),
(273,375,o),
(280,372,o),
(286,366,cs),
(418,234,ls),
(419,233,o),
(421,232,o),
(424,232,cs),
(427,232,o),
(430,233,o),
(431,234,cs),
(563,366,ls),
(569,372,o),
(576,375,o),
(584,375,cs),
(645,375,ls),
(653,375,o),
(657,371,o),
(657,362,cs),
(657,13,ls),
(657,4,o),
(653,0,o),
(645,0,cs),
(584,0,ls),
(575,0,o),
(571,4,o),
(571,13,cs),
(571,232,ls),
(571,234,o),
(570,235,o),
(567,235,c),
(566,235,o),
(566,235,o),
(565,234,cs),
(447,116,l),
(440,110,o),
(432,107,o),
(425,107,c),
(424,107,l),
(417,107,o),
(409,110,o),
(402,116,c),
(284,234,ls),
(283,235,o),
(282,235,o),
(281,235,c),
(278,235,o),
(277,234,o),
(277,232,cs)
);
},
{
closed = 1;
nodes = (
(1019,381,o),
(1103,307,o),
(1103,188,cs),
(1103,74,o),
(1019,-6,o),
(904,-6,cs),
(789,-6,o),
(705,68,o),
(705,188,cs),
(705,296,o),
(785,381,o),
(904,381,cs)
);
},
{
closed = 1;
nodes = (
(975,74,o),
(1012,125,o),
(1012,188,cs),
(1012,256,o),
(964,301,o),
(904,301,cs),
(841,301,o),
(796,256,o),
(796,188,cs),
(796,123,o),
(844,74,o),
(904,74,cs)
);
},
{
closed = 1;
nodes = (
(1147,366,ls),
(1147,372,o),
(1150,375,o),
(1156,375,cs),
(1223,375,ls),
(1229,375,o),
(1232,372,o),
(1232,366,cs),
(1232,85,ls),
(1232,82,o),
(1234,81,o),
(1237,81,cs),
(1376,81,ls),
(1382,81,o),
(1385,78,o),
(1385,72,cs),
(1385,9,ls),
(1385,3,o),
(1382,0,o),
(1376,0,cs),
(1156,0,ls),
(1150,0,o),
(1147,3,o),
(1147,9,cs)
);
},
{
closed = 1;
nodes = (
(1433,366,ls),
(1433,372,o),
(1436,375,o),
(1442,375,cs),
(1463,375,o),
(1528,376,o),
(1551,376,cs),
(1701,376,o),
(1761,290,o),
(1761,191,cs),
(1761,86,o),
(1688,-1,o),
(1547,-1,cs),
(1527,-1,o),
(1478,0,o),
(1442,0,cs),
(1436,0,o),
(1433,3,o),
(1433,9,cs)
);
},
{
closed = 1;
nodes = (
(1520,295,o),
(1518,293,o),
(1518,290,cs),
(1518,85,ls),
(1518,77,o),
(1538,80,o),
(1549,80,cs),
(1624,80,o),
(1670,119,o),
(1670,191,cs),
(1670,260,o),
(1619,296,o),
(1550,296,cs),
(1542,296,o),
(1532,296,o),
(1523,295,c)
);
},
{
closed = 1;
nodes = (
(2118,381,o),
(2202,307,o),
(2202,188,cs),
(2202,74,o),
(2118,-6,o),
(2003,-6,cs),
(1888,-6,o),
(1804,68,o),
(1804,188,cs),
(1804,296,o),
(1884,381,o),
(2003,381,cs)
);
},
{
closed = 1;
nodes = (
(2074,74,o),
(2111,125,o),
(2111,188,cs),
(2111,256,o),
(2063,301,o),
(2003,301,cs),
(1940,301,o),
(1895,256,o),
(1895,188,cs),
(1895,123,o),
(1943,74,o),
(2003,74,cs)
);
},
{
closed = 1;
nodes = (
(2420,9,l),
(2417,3,o),
(2413,0,o),
(2407,0,cs),
(2358,0,ls),
(2353,0,o),
(2349,3,o),
(2346,9,cs),
(2200,366,l),
(2199,367,o),
(2199,368,o),
(2199,369,c),
(2199,373,o),
(2201,375,o),
(2205,375,cs),
(2281,375,ls),
(2286,375,o),
(2290,372,o),
(2293,366,c),
(2384,132,l),
(2384,131,o),
(2385,130,o),
(2386,130,c),
(2387,131,o),
(2387,131,o),
(2387,132,c),
(2474,366,l),
(2477,372,o),
(2481,375,o),
(2487,375,cs),
(2557,375,ls),
(2561,375,o),
(2563,373,o),
(2563,369,c),
(2563,368,o),
(2562,367,o),
(2562,366,c)
);
},
{
closed = 1;
nodes = (
(2633,367,l),
(2636,372,o),
(2640,375,o),
(2645,375,cs),
(2701,375,ls),
(2706,375,o),
(2710,372,o),
(2713,367,c),
(2854,9,l),
(2854,8,o),
(2855,7,o),
(2855,6,c),
(2855,2,o),
(2853,0,o),
(2849,0,cs),
(2779,0,ls),
(2773,0,o),
(2769,3,o),
(2768,9,c),
(2743,75,ls),
(2742,78,o),
(2740,79,o),
(2737,79,cs),
(2604,79,ls),
(2601,79,o),
(2599,78,o),
(2598,75,cs),
(2574,9,l),
(2571,3,o),
(2567,0,o),
(2562,0,cs),
(2497,0,ls),
(2493,0,o),
(2491,2,o),
(2491,6,c),
(2491,7,o),
(2491,8,o),
(2492,9,c)
);
},
{
closed = 1;
nodes = (
(2632,163,l),
(2632,162,l),
(2632,160,o),
(2633,159,o),
(2635,159,cs),
(2706,159,ls),
(2708,159,o),
(2709,160,o),
(2709,162,c),
(2709,163,l),
(2672,261,l),
(2671,262,l),
(2670,261,o),
(2669,261,o),
(2669,261,c)
);
}
);
width = 2944;
}
);
},
{
glyphname = map;
layers = (
{
layerId = "C985D1D4-6D1D-43A7-B614-37C5E085729D";
shapes = (
{
closed = 1;
nodes = (
(66,684,ls),
(67,685,o),
(69,686,o),
(70,686,c),
(109,686,ls),
(111,686,o),
(112,686,o),
(113,687,cs),
(132,706,ls),
(133,707,o),
(135,708,o),
(136,708,c),
(232,708,l),
(233,708,o),
(235,707,o),
(236,706,cs),
(282,660,ls),
(283,659,o),
(284,659,o),
(285,659,c),
(318,659,ls),
(321,659,o),
(323,657,o),
(323,654,cs),
(323,629,ls),
(323,626,o),
(325,624,o),
(329,624,cs),
(335,624,ls),
(337,624,o),
(338,624,o),
(339,625,c),
(355,642,l),
(356,643,o),
(357,643,o),
(359,643,cs),
(391,643,ls),
(394,643,o),
(396,641,o),
(396,638,cs),
(396,612,l),
(396,611,o),
(397,609,o),
(398,608,cs),
(418,588,l),
(420,585,o),
(422,585,o),
(425,588,cs),
(435,598,ls),
(436,599,o),
(437,599,o),
(439,599,cs),
(445,599,ls),
(449,599,o),
(451,597,o),
(451,594,cs),
(451,515,l),
(451,514,o),
(450,512,o),
(449,511,cs),
(443,505,ls),
(440,502,o),
(440,500,o),
(443,497,cs),
(502,438,ls),
(503,437,o),
(504,437,o),
(505,437,c),
(517,437,ls),
(520,437,o),
(522,435,o),
(522,432,cs),
(522,398,l),
(522,361,l),
(522,360,o),
(523,358,o),
(524,357,cs),
(546,335,ls),
(547,334,o),
(549,333,o),
(550,333,c),
(562,333,ls),
(564,333,o),
(565,333,o),
(566,332,c),
(582,315,l),
(583,314,o),
(584,312,o),
(584,311,c),
(584,274,l),
(584,273,o),
(583,271,o),
(582,270,c),
(576,265,ls),
(573,262,o),
(573,260,o),
(576,257,cs),
(597,237,ls),
(598,236,o),
(598,235,o),
(598,233,cs),
(598,230,o),
(596,228,o),
(593,228,cs),
(574,228,l),
(560,228,l),
(559,228,o),
(558,228,o),
(557,229,cs),
(548,238,l),
(545,240,o),
(543,240,o),
(541,238,cs),
(530,227,l),
(527,225,o),
(524,225,o),
(522,227,cs),
(507,242,ls),
(505,244,o),
(502,244,o),
(499,242,c),
(472,215,ls),
(471,214,o),
(470,213,o),
(469,213,c),
(460,213,ls),
(457,213,o),
(455,215,o),
(455,219,cs),
(455,253,ls),
(455,258,o),
(449,260,o),
(446,257,cs),
(424,235,ls),
(423,234,o),
(423,233,o),
(423,232,c),
(423,205,ls),
(423,203,o),
(423,202,o),
(424,201,cs),
(434,191,l),
(436,188,o),
(436,186,o),
(434,184,cs),
(414,164,ls),
(413,163,o),
(413,162,o),
(413,160,cs),
(413,135,l),
(413,134,o),
(412,132,o),
(411,131,cs),
(389,109,ls),
(388,108,o),
(388,107,o),
(388,106,c),
(388,94,l),
(388,93,o),
(387,91,o),
(386,90,cs),
(374,78,ls),
(373,77,o),
(372,76,o),
(371,76,c),
(362,76,l),
(361,76,o),
(360,76,o),
(359,75,cs),
(349,65,ls),
(348,64,o),
(347,62,o),
(347,61,c),
(347,23,ls),
(347,19,o),
(345,17,o),
(342,17,cs),
(322,17,ls),
(320,17,o),
(319,17,o),
(318,16,c),
(304,1,l),
(303,1,o),
(303,0,o),
(300,0,cs),
(297,0,ls),
(294,0,o),
(292,2,o),
(292,5,cs),
(292,28,l),
(292,29,o),
(291,31,o),
(290,32,cs),
(281,41,l),
(278,43,o),
(278,45,o),
(281,48,cs),
(293,60,l),
(297,63,o),
(297,65,o),
(293,68,c),
(281,80,ls),
(280,81,o),
(280,82,o),
(280,84,cs),
(280,169,ls),
(280,171,o),
(280,172,o),
(281,173,c),
(295,186,l),
(296,187,o),
(296,188,o),
(296,190,cs),
(296,309,ls),
(296,311,o),
(296,312,o),
(295,313,c),
(282,325,l),
(281,326,o),
(281,327,o),
(281,329,cs),
(281,352,ls),
(281,354,o),
(280,355,o),
(279,355,c),
(233,402,ls),
(232,403,o),
(231,405,o),
(231,406,c),
(231,427,ls),
(231,429,o),
(231,430,o),
(230,431,cs),
(184,477,ls),
(183,478,o),
(182,479,o),
(182,480,c),
(182,506,ls),
(182,508,o),
(182,509,o),
(181,510,cs),
(150,540,ls),
(149,541,o),
(149,542,o),
(149,544,cs),
(149,573,l),
(149,574,o),
(148,576,o),
(147,577,cs),
(126,598,ls),
(125,599,o),
(124,601,o),
(124,602,c),
(124,628,ls),
(124,630,o),
(124,631,o),
(123,632,cs),
(100,655,ls),
(99,656,o),
(97,657,o),
(96,657,c),
(54,657,ls),
(51,657,o),
(49,659,o),
(49,662,cs),
(49,664,ls),
(49,666,o),
(49,667,o),
(50,668,cs)
);
}
);
width = 687;
}
);
},
{
glyphname = t0163.alt;
layers = (
{
layerId = "C985D1D4-6D1D-43A7-B614-37C5E085729D";
shapes = (
{
closed = 1;
nodes = (
(166,527,l),
(347,527,l),
(347,492,l),
(166,492,l),
(166,170,ls),
(166,102,o),
(173,29,o),
(269,29,cs),
(293,29,o),
(324,36,o),
(343,49,c),
(358,16,l),
(331,-1,o),
(301,-7,o),
(264,-7,cs),
(251,-7,o),
(240,-6,o),
(230,-4,c),
(205,-79,l),
(220,-76,o),
(225,-76,o),
(240,-76,cs),
(280,-77,o),
(314,-101,o),
(314,-153,cs),
(314,-232,o),
(234,-256,o),
(166,-248,c),
(166,-222,l),
(205,-225,o),
(284,-220,o),
(284,-151,cs),
(284,-112,o),
(260,-100,o),
(224,-100,cs),
(209,-100,o),
(183,-103,o),
(168,-108,c),
(204,2,l),
(144,23,o),
(124,78,o),
(124,158,cs),
(124,492,l),
(31,492,l),
(31,527,l),
(124,527,l),
(124,685,l),
(166,685,l)
);
}
);
width = 379;
}
);
},
{
glyphname = t021b.alt;
layers = (
{
layerId = "C985D1D4-6D1D-43A7-B614-37C5E085729D";
shapes = (
{
closed = 1;
nodes = (
(254,-119,o),
(265,-147,o),
(265,-174,cs),
(265,-229,o),
(235,-275,o),
(190,-300,c),
(175,-280,l),
(198,-267,o),
(225,-238,o),
(230,-198,c),
(213,-204,o),
(179,-195,o),
(179,-159,cs),
(179,-136,o),
(196,-119,o),
(221,-119,cs)
);
},
{
closed = 1;
nodes = (
(166,527,l),
(347,527,l),
(347,492,l),
(166,492,l),
(166,170,ls),
(166,102,o),
(176,29,o),
(269,29,cs),
(293,29,o),
(323,36,o),
(342,49,c),
(358,16,l),
(331,-1,o),
(301,-7,o),
(264,-7,cs),
(158,-7,o),
(124,57,o),
(124,158,cs),
(124,492,l),
(31,492,l),
(31,527,l),
(124,527,l),
(124,685,l),
(166,685,l)
);
}
);
width = 379;
}
);
},
{
glyphname = a00E2.alt;
kernLeft = _kern27;
kernRight = _kern27;
layers = (
{
layerId = "C985D1D4-6D1D-43A7-B614-37C5E085729D";
shapes = (
{
closed = 1;
nodes = (
(284,748,l),
(201,647,l),
(161,647,l),
(268,773,l),
(301,773,l),
(406,647,l),
(368,647,l)
);
},
{
closed = 1;
nodes = (
(95,55,o),
(169,28,o),
(230,28,cs),
(339,28,o),
(440,89,o),
(440,215,cs),
(440,265,l),
(359,262,o),
(239,259,o),
(170,233,cs),
(125,216,o),
(95,180,o),
(95,135,cs)
);
},
{
closed = 1;
nodes = (
(438,87,l),
(383,11,o),
(294,-7,o),
(226,-7,cs),
(133,-7,o),
(53,34,o),
(53,134,cs),
(53,244,o),
(160,275,o),
(246,288,cs),
(291,295,o),
(355,298,o),
(438,301,c),
(438,413,o),
(396,498,o),
(276,498,cs),
(220,498,o),
(162,485,o),
(131,432,c),
(84,432,l),
(113,507,o),
(197,534,o),
(278,534,cs),
(430,534,o),
(482,422,o),
(482,287,cs),
(482,0,l),
(438,0,l)
);
}
);
width = 552;
}
);
},
{
glyphname = a00E4.alt;
kernLeft = _kern27;
kernRight = _kern27;
layers = (
{
layerId = "C985D1D4-6D1D-43A7-B614-37C5E085729D";
shapes = (
{
closed = 1;
nodes = (
(424,714,o),
(439,698,o),
(439,675,cs),
(439,652,o),
(424,636,o),
(399,636,cs),
(375,636,o),
(359,654,o),
(359,675,cs),
(359,696,o),
(375,714,o),
(399,714,cs)
);
},
{
closed = 1;
nodes = (
(204,714,o),
(219,698,o),
(219,675,cs),
(219,652,o),
(204,636,o),
(179,636,cs),
(155,636,o),
(139,654,o),
(139,675,cs),
(139,696,o),
(155,714,o),
(179,714,cs)
);
},
{
closed = 1;
nodes = (
(95,55,o),
(169,28,o),
(230,28,cs),
(339,28,o),
(440,89,o),
(440,215,cs),
(440,265,l),
(359,262,o),
(239,259,o),
(170,233,cs),
(125,216,o),
(95,180,o),
(95,135,cs)
);
},
{
closed = 1;
nodes = (
(438,87,l),
(383,11,o),
(294,-7,o),
(226,-7,cs),
(133,-7,o),
(53,34,o),
(53,134,cs),
(53,244,o),
(160,275,o),
(246,288,cs),
(291,295,o),
(355,298,o),
(438,301,c),
(438,413,o),
(396,498,o),
(276,498,cs),
(220,498,o),
(162,485,o),
(131,432,c),
(84,432,l),
(113,507,o),
(197,534,o),
(278,534,cs),
(430,534,o),
(482,422,o),
(482,287,cs),
(482,0,l),
(438,0,l)
);
}
);
width = 552;
}
);
},
{
glyphname = a0103.alt;
kernLeft = _kern27;
kernRight = _kern27;
layers = (
{
layerId = "C985D1D4-6D1D-43A7-B614-37C5E085729D";
shapes = (
{
closed = 1;
nodes = (
(333,663,o),
(391,676,o),
(407,738,c),
(446,738,l),
(430,660,o),
(357,632,o),
(282,632,cs),
(207,632,o),
(138,660,o),
(124,738,c),
(162,738,l),
(178,676,o),
(234,663,o),
(284,663,cs)
);
},
{
closed = 1;
nodes = (
(95,55,o),
(169,28,o),
(230,28,cs),
(339,28,o),
(440,89,o),
(440,215,cs),
(440,265,l),
(359,262,o),
(239,259,o),
(170,233,cs),
(125,216,o),
(95,180,o),
(95,135,cs)
);
},
{
closed = 1;
nodes = (
(438,87,l),
(383,11,o),
(294,-7,o),
(226,-7,cs),
(133,-7,o),
(53,34,o),
(53,134,cs),
(53,244,o),
(160,275,o),
(246,288,cs),
(291,295,o),
(355,298,o),
(438,301,c),
(438,413,o),
(396,498,o),
(276,498,cs),
(220,498,o),
(162,485,o),
(131,432,c),
(84,432,l),
(113,507,o),
(197,534,o),
(278,534,cs),
(430,534,o),
(482,422,o),
(482,287,cs),
(482,0,l),
(438,0,l)
);
}
);
width = 552;
}
);
},
{
glyphname = a2_alt;
kernLeft = _kern9;
layers = (
{
layerId = "C985D1D4-6D1D-43A7-B614-37C5E085729D";
shapes = (
{
closed = 1;
nodes = (
(494,527,l),
(536,527,l),
(536,0,l),
(494,0,l),
(494,107,l),
(454,35,o),
(388,-7,o),
(289,-7,cs),
(102,-7,o),
(53,141,o),
(53,264,cs),
(53,408,o),
(141,534,o),
(294,534,cs),
(390,534,o),
(456,490,o),
(493,426,c)
);
},
{
closed = 1;
nodes = (
(157,498,o),
(95,385,o),
(95,265,cs),
(95,136,o),
(151,29,o),
(295,29,cs),
(428,29,o),
(496,145,o),
(496,265,cs),
(496,393,o),
(431,498,o),
(295,498,cs)
);
}
);
width = 609;
}
);
},
{
glyphname = logom;
layers = (
{
layerId = "C985D1D4-6D1D-43A7-B614-37C5E085729D";
shapes = (
{
closed = 1;
nodes = (
(798,502,o),
(793,498,o),
(786,496,c),
(786,485,o),
(778,477,o),
(767,477,c),
(766,470,o),
(762,465,o),
(754,463,cs),
(738,458,o),
(727,474,o),
(722,479,cs),
(713,488,o),
(715,493,o),
(715,520,c),
(690,540,l),
(572,540,l),
(545,514,l),
(545,478,l),
(691,478,ls),
(696,478,o),
(701,476,o),
(705,472,cs),
(730,447,ls),
(742,435,o),
(733,413,o),
(716,413,cs),
(662,413,o),
(676,407,o),
(644,439,c),
(534,439,l),
(439,344,l),
(430,333,o),
(417,333,o),
(409,344,c),
(314,439,l),
(204,439,l),
(184,419,ls),
(180,415,o),
(175,413,o),
(170,413,cs),
(132,413,ls),
(115,413,o),
(106,434,o),
(118,447,c),
(143,472,ls),
(147,476,o),
(152,478,o),
(157,478,cs),
(303,478,l),
(303,514,l),
(276,540,l),
(158,540,l),
(133,520,l),
(133,493,o),
(135,488,o),
(126,479,cs),
(123,476,o),
(119,472,o),
(114,467,cs),
(103,456,o),
(84,461,o),
(81,477,c),
(70,477,o),
(62,485,o),
(62,496,c),
(54,498,o),
(49,502,o),
(47,510,cs),
(43,525,o),
(59,536,o),
(64,541,cs),
(73,550,o),
(78,548,o),
(105,548,c),
(139,575,ls),
(142,578,o),
(146,580,o),
(151,580,cs),
(190,580,l),
(195,593,o),
(211,596,o),
(222,587,c),
(229,580,l),
(284,580,ls),
(293,580,o),
(296,576,o),
(303,569,c),
(303,590,l),
(276,616,l),
(140,616,l),
(114,590,o),
(120,591,o),
(94,591,cs),
(83,591,o),
(76,600,o),
(67,609,c),
(60,618,o),
(59,627,o),
(66,636,c),
(52,653,o),
(71,666,o),
(80,675,cs),
(87,683,o),
(96,681,o),
(107,681,cs),
(112,681,o),
(117,679,o),
(121,675,cs),
(140,656,l),
(176,656,l),
(176,684,l),
(160,691,o),
(150,706,o),
(150,725,cs),
(150,763,ls),
(150,774,o),
(159,783,o),
(170,783,cs),
(221,783,ls),
(232,783,o),
(241,774,o),
(241,763,cs),
(241,725,ls),
(241,706,o),
(231,691,o),
(215,684,c),
(215,656,l),
(240,656,l),
(235,675,o),
(259,692,o),
(273,675,c),
(310,639,l),
(311,640,o),
(312,640,o),
(313,641,c),
(316,642,o),
(319,643,o),
(322,643,cs),
(333,643,o),
(342,634,o),
(342,623,cs),
(342,467,l),
(404,404,l),
(404,476,l),
(372,508,ls),
(354,526,o),
(381,555,o),
(400,536,c),
(404,531,l),
(404,615,l),
(309,711,ls),
(301,719,o),
(303,730,o),
(303,743,c),
(297,743,ls),
(270,743,o),
(270,783,o),
(297,783,cs),
(303,783,l),
(303,788,ls),
(303,814,o),
(342,814,o),
(342,788,cs),
(342,783,l),
(348,783,ls),
(374,783,o),
(374,743,o),
(348,743,cs),
(342,743,l),
(342,733,l),
(404,671,l),
(404,792,ls),
(404,795,o),
(354,844,o),
(347,851,cs),
(339,858,o),
(339,871,o),
(347,879,cs),
(352,884,o),
(359,893,o),
(366,896,c),
(366,927,o),
(363,920,o),
(385,942,cs),
(392,950,o),
(400,951,o),
(409,945,c),
(420,954,o),
(434,952,o),
(439,945,c),
(454,955,o),
(466,939,o),
(476,929,cs),
(484,921,o),
(482,909,o),
(482,896,c),
(489,893,o),
(496,884,o),
(501,879,cs),
(509,871,o),
(509,858,o),
(501,851,cs),
(494,844,o),
(444,795,o),
(444,792,cs),
(444,671,l),
(506,733,l),
(506,743,l),
(500,743,ls),
(473,743,o),
(473,783,o),
(500,783,cs),
(506,783,l),
(506,788,ls),
(506,814,o),
(545,814,o),
(545,788,cs),
(545,783,l),
(551,783,ls),
(577,783,o),
(577,743,o),
(551,743,cs),
(545,743,l),
(545,730,o),
(547,719,o),
(540,711,c),
(444,615,l),
(444,531,l),
(449,538,o),
(453,542,o),
(462,542,cs),
(481,542,o),
(488,520,o),
(476,508,cs),
(444,476,l),
(444,404,l),
(506,467,l),
(506,623,ls),
(506,640,o),
(525,650,o),
(538,639,c),
(575,675,l),
(589,692,o),
(613,675,o),
(608,656,c),
(633,656,l),
(633,684,l),
(617,691,o),
(607,706,o),
(607,725,cs),
(607,763,ls),
(607,774,o),
(616,783,o),
(627,783,cs),
(678,783,ls),
(689,783,o),
(698,774,o),
(698,763,cs),
(698,725,ls),
(698,706,o),
(688,691,o),
(672,684,c),
(672,656,l),
(708,656,l),
(734,682,o),
(728,681,o),
(754,681,cs),
(765,681,o),
(772,672,o),
(781,663,c),
(788,654,o),
(789,645,o),
(782,636,c),
(795,620,o),
(777,606,o),
(768,597,cs),
(761,590,o),
(752,591,o),
(741,591,cs),
(736,591,o),
(731,593,o),
(727,597,cs),
(708,616,l),
(572,616,l),
(545,590,l),
(545,569,l),
(552,576,o),
(555,580,o),
(564,580,cs),
(619,580,l),
(626,587,o),
(629,592,o),
(640,592,cs),
(649,592,o),
(655,588,o),
(658,580,c),
(697,580,ls),
(702,580,o),
(706,578,o),
(709,575,cs),
(743,548,l),
(782,548,o),
(774,551,o),
(796,529,cs),
(803,523,o),
(804,516,o),
(801,508,cs)
);
},
{
closed = 1;
nodes = (
(275,13,ls),
(275,4,o),
(271,0,o),
(262,0,cs),
(201,0,ls),
(192,0,o),
(188,4,o),
(188,13,cs),
(188,364,ls),
(188,373,o),
(192,377,o),
(201,377,cs),
(262,377,ls),
(269,377,o),
(277,374,o),
(284,368,c),
(416,235,l),
(421,231,o),
(425,231,o),
(429,235,cs),
(562,368,l),
(569,374,o),
(577,377,o),
(584,377,cs),
(645,377,ls),
(653,377,o),
(657,373,o),
(657,364,cs),
(657,13,ls),
(657,4,o),
(653,0,o),
(645,0,cs),
(584,0,ls),
(575,0,o),
(571,4,o),
(571,13,cs),
(571,233,ls),
(571,236,o),
(567,239,o),
(564,236,cs),
(445,116,l),
(433,105,o),
(413,105,o),
(401,116,c),
(281,236,ls),
(278,239,o),
(275,236,o),
(275,233,cs)
);
}
);
width = 849;
}
);
},
{
glyphname = plusminus;
layers = (
{
associatedMasterId = "C985D1D4-6D1D-43A7-B614-37C5E085729D";
layerId = "BBA471A4-2228-454C-841A-56A92F7EAA24";
name = img;
width = 498;
},
{
layerId = "C985D1D4-6D1D-43A7-B614-37C5E085729D";
shapes = (
{
closed = 1;
nodes = (
(269,630,l),
(269,468,l),
(423,468,l),
(423,430,l),
(269,430,l),
(269,265,l),
(226,265,l),
(226,430,l),
(75,430,l),
(75,468,l),
(226,468,l),
(226,630,l)
);
},
{
closed = 1;
nodes = (
(423,151,l),
(75,151,l),
(75,189,l),
(423,189,l)
);
}
);
width = 498;
}
);
unicode = 177;
},
{
glyphname = greaterequal;
layers = (
{
associatedMasterId = "C985D1D4-6D1D-43A7-B614-37C5E085729D";
layerId = "BBA471A4-2228-454C-841A-56A92F7EAA24";
name = img;
width = 529;
},
{
layerId = "C985D1D4-6D1D-43A7-B614-37C5E085729D";
shapes = (
{
closed = 1;
nodes = (
(454,423,l),
(75,214,l),
(75,257,l),
(398,434,l),
(75,612,l),
(75,655,l),
(454,445,l)
);
},
{
closed = 1;
nodes = (
(75,168,l),
(454,168,l),
(454,131,l),
(75,131,l)
);
}
);
width = 529;
}
);
unicode = 8805;
},
{
glyphname = lessequal;
layers = (
{
associatedMasterId = "C985D1D4-6D1D-43A7-B614-37C5E085729D";
layerId = "BBA471A4-2228-454C-841A-56A92F7EAA24";
name = img;
width = 529;
},
{
layerId = "C985D1D4-6D1D-43A7-B614-37C5E085729D";
shapes = (
{
closed = 1;
nodes = (
(75,446,l),
(454,655,l),
(454,612,l),
(131,435,l),
(454,257,l),
(454,214,l),
(75,424,l)
);
},
{
closed = 1;
nodes = (
(75,168,l),
(454,168,l),
(454,131,l),
(75,131,l)
);
}
);
width = 529;
}
);
unicode = 8804;
},
{
glyphname = notequal;
layers = (
{
associatedMasterId = "C985D1D4-6D1D-43A7-B614-37C5E085729D";
layerId = "BBA471A4-2228-454C-841A-56A92F7EAA24";
name = img;
width = 529;
},
{
layerId = "C985D1D4-6D1D-43A7-B614-37C5E085729D";
shapes = (
{
closed = 1;
nodes = (
(75,495,l),
(312,495,l),
(411,703,l),
(454,703,l),
(354,495,l),
(454,495,l),
(454,458,l),
(337,458,l),
(233,240,l),
(454,240,l),
(454,203,l),
(215,203,l),
(118,0,l),
(75,0,l),
(172,203,l),
(75,203,l),
(75,240,l),
(190,240,l),
(294,458,l),
(75,458,l)
);
}
);
width = 529;
}
);
unicode = 8800;
},
{
glyphname = approxequal;
layers = (
{
associatedMasterId = "C985D1D4-6D1D-43A7-B614-37C5E085729D";
layerId = "BBA471A4-2228-454C-841A-56A92F7EAA24";
name = img;
width = 602;
},
{
layerId = "C985D1D4-6D1D-43A7-B614-37C5E085729D";
shapes = (
{
closed = 1;
nodes = (
(473,429,o),
(489,476,o),
(489,528,c),
(527,528,l),
(524,453,o),
(496,397,o),
(409,397,cs),
(312,397,o),
(270,504,o),
(192,504,cs),
(133,504,o),
(114,455,o),
(114,405,c),
(75,405,l),
(78,482,o),
(111,536,o),
(195,536,cs),
(290,536,o),
(333,429,o),
(412,429,cs)
);
},
{
closed = 1;
nodes = (
(473,218,o),
(489,265,o),
(489,317,c),
(527,317,l),
(524,240,o),
(496,186,o),
(409,186,cs),
(312,186,o),
(270,292,o),
(192,292,cs),
(133,292,o),
(114,244,o),
(114,193,c),
(75,193,l),
(78,272,o),
(111,325,o),
(195,325,cs),
(290,325,o),
(333,218,o),
(412,218,cs)
);
}
);
width = 602;
}
);
unicode = 8776;
},
{
glyphname = twosuperior;
layers = (
{
associatedMasterId = "C985D1D4-6D1D-43A7-B614-37C5E085729D";
layerId = "BBA471A4-2228-454C-841A-56A92F7EAA24";
name = img;
width = 349;
},
{
layerId = "C985D1D4-6D1D-43A7-B614-37C5E085729D";
shapes = (
{
closed = 1;
nodes = (
(60,444,l),
(155,525,ls),
(192,556,o),
(247,596,o),
(247,650,cs),
(247,693,o),
(219,716,o),
(178,716,cs),
(150,716,o),
(119,706,o),
(110,677,c),
(69,677,l),
(80,728,o),
(130,751,o),
(179,751,cs),
(239,751,o),
(285,718,o),
(285,654,cs),
(285,594,o),
(244,557,o),
(202,521,cs),
(114,446,l),
(289,446,l),
(289,412,l),
(60,412,l)
);
}
);
width = 349;
}
);
unicode = 178;
},
{
glyphname = threesuperior;
layers = (
{
associatedMasterId = "C985D1D4-6D1D-43A7-B614-37C5E085729D";
layerId = "BBA471A4-2228-454C-841A-56A92F7EAA24";
name = img;
width = 359;
},
{
layerId = "C985D1D4-6D1D-43A7-B614-37C5E085729D";
shapes = (
{
closed = 1;
nodes = (
(145,599,l),
(158,599,ls),
(188,599,o),
(246,607,o),
(247,658,cs),
(247,702,o),
(218,717,o),
(178,717,cs),
(150,717,o),
(118,705,o),
(109,676,c),
(71,676,l),
(80,729,o),
(131,751,o),
(182,751,cs),
(238,751,o),
(284,725,o),
(284,662,cs),
(284,623,o),
(264,604,o),
(229,589,c),
(273,581,o),
(299,554,o),
(299,506,cs),
(299,437,o),
(244,408,o),
(181,408,cs),
(129,408,o),
(71,425,o),
(60,484,c),
(99,484,l),
(111,452,o),
(151,442,o),
(182,442,cs),
(223,442,o),
(260,457,o),
(260,505,cs),
(260,557,o),
(219,565,o),
(176,565,cs),
(145,565,l)
);
}
);
width = 359;
}
);
unicode = 179;
},
{
glyphname = I_alt;
layers = (
{
layerId = "C985D1D4-6D1D-43A7-B614-37C5E085729D";
shapes = (
{
closed = 1;
nodes = (
(540,669,l),
(313,669,l),
(313,38,l),
(540,38,l),
(540,0,l),
(45,0,l),
(45,38,l),
(271,38,l),
(271,669,l),
(45,669,l),
(45,707,l),
(540,707,l)
);
}
);
width = 585;
}
);
},
{
glyphname = tab_1;
layers = (
{
layerId = "C985D1D4-6D1D-43A7-B614-37C5E085729D";
shapes = (
{
closed = 1;
nodes = (
(544,0,l),
(116,0,l),
(116,38,l),
(312,38,l),
(312,600,l),
(147,600,l),
(147,632,l),
(223,632,ls),
(240,632,o),
(261,633,o),
(277,640,cs),
(302,651,o),
(317,675,o),
(322,707,c),
(355,707,l),
(355,38,l),
(544,38,l)
);
}
);
width = 664;
}
);
},
{
glyphname = l_alt;
layers = (
{
layerId = "C985D1D4-6D1D-43A7-B614-37C5E085729D";
shapes = (
{
closed = 1;
nodes = (
(117,171,ls),
(117,125,o),
(126,91,o),
(144,69,cs),
(163,47,o),
(197,36,o),
(245,36,cs),
(270,36,l),
(270,0,l),
(237,0,ls),
(181,0,o),
(140,13,o),
(114,39,cs),
(88,66,o),
(75,108,o),
(75,167,cs),
(75,707,l),
(117,707,l)
);
}
);
width = 307;
}
);
},
{
glyphname = l2_alt;
layers = (
{
layerId = "C985D1D4-6D1D-43A7-B614-37C5E085729D";
shapes = (
{
closed = 1;
nodes = (
(117,170,ls),
(117,98,o),
(125,29,o),
(213,29,cs),
(236,29,o),
(266,35,o),
(285,50,c),
(301,16,l),
(273,-3,o),
(242,-7,o),
(209,-7,cs),
(102,-7,o),
(75,61,o),
(75,158,cs),
(75,707,l),
(117,707,l)
);
}
);
width = 321;
}
);
},
{
glyphname = uniE000;
layers = (
{
layerId = "C985D1D4-6D1D-43A7-B614-37C5E085729D";
shapes = (
{
closed = 1;
nodes = (
(601,173,o),
(539,-8,o),
(331,-8,cs),
(123,-8,o),
(63,172,o),
(63,353,cs),
(63,532,o),
(124,715,o),
(331,715,cs),
(539,715,o),
(601,532,o),
(601,353,cs)
);
},
{
closed = 1;
nodes = (
(107,202,o),
(145,28,o),
(331,28,cs),
(518,28,o),
(556,202,o),
(556,353,cs),
(556,501,o),
(518,679,o),
(331,679,cs),
(145,679,o),
(107,501,o),
(107,353,cs)
);
}
);
width = 664;
}
);
unicode = 57344;
},
{
glyphname = uniE001;
layers = (
{
layerId = "C985D1D4-6D1D-43A7-B614-37C5E085729D";
shapes = (
{
closed = 1;
nodes = (
(358,0,l),
(315,0,l),
(315,602,l),
(172,602,l),
(172,631,l),
(267,631,o),
(316,634,o),
(326,707,c),
(358,707,l)
);
}
);
width = 664;
}
);
unicode = 57345;
},
{
glyphname = uniE002;
layers = (
{
layerId = "C985D1D4-6D1D-43A7-B614-37C5E085729D";
shapes = (
{
closed = 1;
nodes = (
(511,624,o),
(436,679,o),
(337,679,cs),
(269,679,o),
(197,656,o),
(170,591,c),
(121,591,l),
(154,676,o),
(232,715,o),
(337,715,cs),
(467,715,o),
(555,648,o),
(555,520,cs),
(555,394,o),
(467,317,o),
(376,234,cs),
(159,38,l),
(563,38,l),
(563,0,l),
(95,0,l),
(95,35,l),
(326,243,ls),
(406,315,o),
(511,405,o),
(511,518,cs)
);
}
);
width = 664;
}
);
unicode = 57346;
},
{
glyphname = uniE003;
layers = (
{
layerId = "C985D1D4-6D1D-43A7-B614-37C5E085729D";
shapes = (
{
closed = 1;
nodes = (
(142,121,l),
(171,46,o),
(264,28,o),
(336,28,cs),
(434,28,o),
(538,69,o),
(538,188,cs),
(538,320,o),
(425,342,o),
(319,342,cs),
(248,342,l),
(248,379,l),
(299,379,ls),
(390,379,o),
(509,422,o),
(509,537,cs),
(509,641,o),
(426,679,o),
(335,679,cs),
(263,679,o),
(186,660,o),
(162,588,c),
(116,588,l),
(140,697,o),
(253,715,o),
(336,715,cs),
(445,715,o),
(550,670,o),
(550,545,cs),
(550,472,o),
(512,392,o),
(411,368,c),
(525,360,o),
(583,280,o),
(583,188,cs),
(583,44,o),
(462,-8,o),
(335,-8,cs),
(235,-8,o),
(123,21,o),
(96,121,c)
);
}
);
width = 664;
}
);
unicode = 57347;
},
{
glyphname = uniE004;
layers = (
{
layerId = "C985D1D4-6D1D-43A7-B614-37C5E085729D";
shapes = (
{
closed = 1;
nodes = (
(438,707,l),
(502,707,l),
(502,189,l),
(593,189,l),
(593,151,l),
(502,151,l),
(502,0,l),
(460,0,l),
(460,151,l),
(66,151,l),
(66,190,l)
);
},
{
closed = 1;
nodes = (
(460,189,l),
(460,671,l),
(113,189,l)
);
}
);
width = 664;
}
);
unicode = 57348;
},
{
glyphname = uniE005;
layers = (
{
layerId = "C985D1D4-6D1D-43A7-B614-37C5E085729D";
shapes = (
{
closed = 1;
nodes = (
(112,316,l),
(145,707,l),
(547,707,l),
(547,669,l),
(183,669,l),
(155,357,l),
(211,416,o),
(281,437,o),
(350,437,cs),
(481,437,o),
(574,351,o),
(574,220,cs),
(574,66,o),
(462,-8,o),
(328,-8,cs),
(257,-8,o),
(132,14,o),
(97,123,c),
(144,123,l),
(176,53,o),
(258,28,o),
(325,28,cs),
(441,28,o),
(529,89,o),
(529,214,cs),
(529,335,o),
(460,400,o),
(343,400,cs),
(267,400,o),
(203,360,o),
(167,316,c)
);
}
);
width = 664;
}
);
unicode = 57349;
},
{
glyphname = uniE006;
layers = (
{
layerId = "C985D1D4-6D1D-43A7-B614-37C5E085729D";
shapes = (
{
closed = 1;
nodes = (
(459,436,o),
(558,347,o),
(558,219,cs),
(558,70,o),
(456,-8,o),
(327,-8,cs),
(128,-8,o),
(66,166,o),
(66,334,cs),
(66,522,o),
(130,715,o),
(342,715,cs),
(429,715,o),
(502,675,o),
(541,599,c),
(495,599,l),
(462,652,o),
(400,679,o),
(340,679,cs),
(131,679,o),
(104,444,o),
(108,295,c),
(127,346,o),
(167,385,o),
(207,407,cs),
(247,429,o),
(291,436,o),
(334,436,cs)
);
},
{
closed = 1;
nodes = (
(517,322,o),
(441,398,o),
(330,398,cs),
(232,398,o),
(133,332,o),
(133,212,cs),
(133,103,o),
(224,28,o),
(326,28,cs),
(443,28,o),
(517,108,o),
(517,210,cs)
);
}
);
width = 664;
}
);
unicode = 57350;
},
{
glyphname = uniE007;
layers = (
{
layerId = "C985D1D4-6D1D-43A7-B614-37C5E085729D";
shapes = (
{
closed = 1;
nodes = (
(221,0,l),
(524,669,l),
(118,669,l),
(118,707,l),
(570,707,l),
(570,665,l),
(269,0,l)
);
}
);
width = 664;
}
);
unicode = 57351;
},
{
glyphname = uniE008;
layers = (
{
layerId = "C985D1D4-6D1D-43A7-B614-37C5E085729D";
shapes = (
{
closed = 1;
nodes = (
(575,46,o),
(458,-8,o),
(331,-8,cs),
(204,-8,o),
(89,44,o),
(89,187,cs),
(89,270,o),
(146,353,o),
(244,364,c),
(160,385,o),
(117,452,o),
(117,535,cs),
(118,660,o),
(221,715,o),
(333,715,cs),
(443,715,o),
(546,657,o),
(548,535,cs),
(550,452,o),
(506,390,o),
(415,366,c),
(522,353,o),
(575,270,o),
(575,187,cs)
);
},
{
closed = 1;
nodes = (
(245,679,o),
(156,638,o),
(156,531,cs),
(156,426,o),
(246,381,o),
(334,381,cs),
(411,381,o),
(509,428,o),
(509,527,cs),
(509,636,o),
(422,679,o),
(333,679,cs)
);
},
{
closed = 1;
nodes = (
(236,346,o),
(130,301,o),
(130,185,cs),
(130,68,o),
(233,28,o),
(333,28,cs),
(431,28,o),
(533,68,o),
(533,185,cs),
(533,301,o),
(428,346,o),
(333,346,cs)
);
}
);
width = 664;
}
);
unicode = 57352;
},
{
glyphname = uniE009;
layers = (
{
layerId = "C985D1D4-6D1D-43A7-B614-37C5E085729D";
shapes = (
{
closed = 1;
nodes = (
(202,273,o),
(104,351,o),
(104,489,cs),
(104,628,o),
(200,715,o),
(336,715,cs),
(441,715,o),
(508,661,o),
(545,589,cs),
(582,517,o),
(595,423,o),
(595,339,cs),
(595,159,o),
(540,-8,o),
(331,-8,cs),
(246,-8,o),
(156,25,o),
(121,108,c),
(169,108,l),
(201,52,o),
(269,28,o),
(334,28,cs),
(524,28,o),
(553,211,o),
(553,354,cs),
(553,371,o),
(552,391,o),
(548,426,c),
(519,319,o),
(430,273,o),
(323,273,cs)
);
},
{
closed = 1;
nodes = (
(146,382,o),
(217,312,o),
(333,312,cs),
(433,312,o),
(522,382,o),
(522,487,cs),
(522,596,o),
(445,679,o),
(334,679,cs),
(231,679,o),
(146,603,o),
(146,498,cs)
);
}
);
width = 664;
}
);
unicode = 57353;
},
{
glyphname = arrowright;
layers = (
{
layerId = "C985D1D4-6D1D-43A7-B614-37C5E085729D";
shapes = (
{
closed = 1;
nodes = (
(17,313,l),
(17,348,l),
(607,348,l),
(330,587,l),
(352,614,l),
(680,331,l),
(352,47,l),
(329,74,l),
(607,313,l)
);
}
);
width = 697;
}
);
unicode = 8594;
},
{
glyphname = arrowleft;
layers = (
{
layerId = "C985D1D4-6D1D-43A7-B614-37C5E085729D";
shapes = (
{
closed = 1;
nodes = (
(679,349,l),
(679,314,l),
(89,314,l),
(366,75,l),
(344,48,l),
(16,331,l),
(344,615,l),
(367,588,l),
(89,349,l)
);
}
);
width = 697;
}
);
unicode = 8592;
},
{
glyphname = uni2197;
layers = (
{
layerId = "C985D1D4-6D1D-43A7-B614-37C5E085729D";
shapes = (
{
closed = 1;
nodes = (
(127,84,l),
(102,109,l),
(519,526,l),
(154,499,l),
(151,534,l),
(583,566,l),
(552,133,l),
(516,136,l),
(544,501,l)
);
}
);
width = 697;
}
);
unicode = 8599;
},
{
glyphname = uni2196;
layers = (
{
layerId = "C985D1D4-6D1D-43A7-B614-37C5E085729D";
shapes = (
{
closed = 1;
nodes = (
(595,110,l),
(570,85,l),
(153,502,l),
(180,137,l),
(145,134,l),
(113,566,l),
(546,535,l),
(543,499,l),
(178,527,l)
);
}
);
width = 697;
}
);
unicode = 8598;
},
{
glyphname = uni2198;
layers = (
{
layerId = "C985D1D4-6D1D-43A7-B614-37C5E085729D";
shapes = (
{
closed = 1;
nodes = (
(101,552,l),
(126,577,l),
(543,160,l),
(516,525,l),
(551,528,l),
(583,96,l),
(150,127,l),
(153,163,l),
(518,135,l)
);
}
);
width = 697;
}
);
unicode = 8600;
},
{
glyphname = uni2199;
layers = (
{
layerId = "C985D1D4-6D1D-43A7-B614-37C5E085729D";
shapes = (
{
closed = 1;
nodes = (
(569,578,l),
(594,553,l),
(177,136,l),
(542,163,l),
(545,128,l),
(113,96,l),
(144,529,l),
(180,526,l),
(152,161,l)
);
}
);
width = 697;
}
);
unicode = 8601;
},
{
glyphname = uniE010;
layers = (
{
layerId = "C985D1D4-6D1D-43A7-B614-37C5E085729D";
shapes = (
{
closed = 1;
nodes = (
(139,73,o),
(155,57,o),
(155,33,cs),
(155,10,o),
(140,-8,o),
(115,-8,cs),
(90,-8,o),
(75,10,o),
(75,33,cs),
(75,57,o),
(91,73,o),
(115,73,cs)
);
}
);
width = 230;
}
);
unicode = 57360;
},
{
glyphname = uniE011;
layers = (
{
layerId = "C985D1D4-6D1D-43A7-B614-37C5E085729D";
shapes = (
{
closed = 1;
nodes = (
(147,73,o),
(158,45,o),
(158,18,cs),
(158,-37,o),
(128,-83,o),
(83,-108,c),
(68,-88,l),
(91,-75,o),
(118,-46,o),
(123,-6,c),
(106,-12,o),
(72,-3,o),
(72,33,cs),
(72,56,o),
(89,73,o),
(114,73,cs)
);
}
);
width = 234;
}
);
unicode = 57361;
},
{
glyphname = uniE012;
layers = (
{
layerId = "C985D1D4-6D1D-43A7-B614-37C5E085729D";
shapes = (
{
closed = 1;
nodes = (
(140,450,o),
(155,433,o),
(155,409,cs),
(155,385,o),
(142,368,o),
(115,368,cs),
(88,368,o),
(75,385,o),
(75,409,cs),
(75,433,o),
(90,450,o),
(115,450,cs)
);
},
{
closed = 1;
nodes = (
(140,73,o),
(155,56,o),
(155,32,cs),
(155,9,o),
(140,-8,o),
(115,-8,cs),
(90,-8,o),
(75,9,o),
(75,32,cs),
(75,56,o),
(90,73,o),
(115,73,cs)
);
}
);
width = 230;
}
);
unicode = 57362;
},
{
glyphname = uniE013;
layers = (
{
layerId = "C985D1D4-6D1D-43A7-B614-37C5E085729D";
shapes = (
{
closed = 1;
nodes = (
(140,450,o),
(157,433,o),
(157,409,cs),
(157,385,o),
(142,368,o),
(115,368,cs),
(91,368,o),
(75,385,o),
(75,409,cs),
(75,433,o),
(91,450,o),
(115,450,cs)
);
},
{
closed = 1;
nodes = (
(148,73,o),
(159,45,o),
(159,18,cs),
(159,-37,o),
(129,-83,o),
(84,-108,c),
(69,-88,l),
(92,-75,o),
(119,-46,o),
(124,-6,c),
(107,-12,o),
(73,-3,o),
(73,33,cs),
(73,56,o),
(90,73,o),
(115,73,cs)
);
}
);
width = 234;
}
);
unicode = 57363;
},
{
glyphname = uniE014;
layers = (
{
layerId = "C985D1D4-6D1D-43A7-B614-37C5E085729D";
shapes = (
{
closed = 1;
nodes = (
(132,503,l),
(97,503,l),
(91,707,l),
(137,707,l)
);
}
);
width = 228;
}
);
unicode = 57364;
},
{
glyphname = uniE015;
layers = (
{
layerId = "C985D1D4-6D1D-43A7-B614-37C5E085729D";
shapes = (
{
closed = 1;
nodes = (
(91,503,l),
(56,503,l),
(50,707,l),
(96,707,l)
);
},
{
closed = 1;
nodes = (
(218,503,l),
(183,503,l),
(176,707,l),
(223,707,l)
);
}
);
width = 273;
}
);
unicode = 57365;
},
{
glyphname = uniE016;
layers = (
{
layerId = "C985D1D4-6D1D-43A7-B614-37C5E085729D";
shapes = (
{
closed = 1;
nodes = (
(147,732,o),
(158,704,o),
(158,677,cs),
(158,622,o),
(128,576,o),
(83,551,c),
(68,571,l),
(91,584,o),
(118,613,o),
(123,653,c),
(106,647,o),
(72,656,o),
(72,692,cs),
(72,715,o),
(89,732,o),
(114,732,cs)
);
}
);
width = 233;
}
);
unicode = 57366;
},
{
glyphname = uniE017;
layers = (
{
layerId = "C985D1D4-6D1D-43A7-B614-37C5E085729D";
shapes = (
{
closed = 1;
nodes = (
(101,732,o),
(112,704,o),
(112,677,cs),
(112,622,o),
(82,576,o),
(37,551,c),
(22,571,l),
(45,584,o),
(72,613,o),
(77,653,c),
(60,647,o),
(26,656,o),
(26,692,cs),
(26,715,o),
(43,732,o),
(68,732,cs)
);
},
{
closed = 1;
nodes = (
(251,732,o),
(262,704,o),
(262,677,cs),
(262,622,o),
(232,576,o),
(187,551,c),
(172,571,l),
(195,584,o),
(222,613,o),
(227,653,c),
(210,647,o),
(176,656,o),
(176,692,cs),
(176,715,o),
(193,732,o),
(218,732,cs)
);
}
);
width = 285;
}
);
unicode = 57367;
},
{
glyphname = uniE018;
layers = (
{
layerId = "C985D1D4-6D1D-43A7-B614-37C5E085729D";
shapes = (
{
closed = 1;
nodes = (
(80,551,o),
(69,579,o),
(69,606,cs),
(69,661,o),
(99,707,o),
(144,732,c),
(159,712,l),
(136,699,o),
(109,670,o),
(104,630,c),
(121,633,o),
(155,629,o),
(155,591,cs),
(155,568,o),
(138,551,o),
(113,551,cs)
);
}
);
width = 234;
}
);
unicode = 57368;
},
{
glyphname = uniE019;
layers = (
{
layerId = "C985D1D4-6D1D-43A7-B614-37C5E085729D";
shapes = (
{
closed = 1;
nodes = (
(183,551,o),
(172,579,o),
(172,606,cs),
(172,661,o),
(202,707,o),
(247,732,c),
(262,712,l),
(239,699,o),
(212,670,o),
(207,630,c),
(224,633,o),
(258,629,o),
(258,591,cs),
(258,568,o),
(241,551,o),
(216,551,cs)
);
},
{
closed = 1;
nodes = (
(33,551,o),
(22,579,o),
(22,606,cs),
(22,661,o),
(52,707,o),
(97,732,c),
(112,712,l),
(89,699,o),
(62,670,o),
(57,630,c),
(74,633,o),
(108,629,o),
(108,591,cs),
(108,568,o),
(91,551,o),
(66,551,cs)
);
}
);
width = 285;
}
);
unicode = 57369;
},
{
glyphname = uniE020;
layers = (
{
layerId = "C985D1D4-6D1D-43A7-B614-37C5E085729D";
shapes = (
{
closed = 1;
nodes = (
(147,73,o),
(158,45,o),
(158,18,cs),
(158,-37,o),
(128,-83,o),
(83,-108,c),
(68,-88,l),
(91,-75,o),
(118,-46,o),
(123,-6,c),
(106,-12,o),
(72,-3,o),
(72,33,cs),
(72,56,o),
(89,73,o),
(114,73,cs)
);
}
);
width = 234;
}
);
unicode = 57376;
},
{
glyphname = uniE021;
layers = (
{
layerId = "C985D1D4-6D1D-43A7-B614-37C5E085729D";
shapes = (
{
closed = 1;
nodes = (
(101,73,o),
(112,45,o),
(112,18,cs),
(112,-37,o),
(82,-83,o),
(37,-108,c),
(22,-88,l),
(45,-75,o),
(72,-46,o),
(77,-6,c),
(60,-12,o),
(26,-3,o),
(26,33,cs),
(26,56,o),
(43,73,o),
(68,73,cs)
);
},
{
closed = 1;
nodes = (
(251,73,o),
(262,45,o),
(262,18,cs),
(262,-37,o),
(232,-83,o),
(187,-108,c),
(172,-88,l),
(195,-75,o),
(222,-46,o),
(227,-6,c),
(210,-12,o),
(176,-3,o),
(176,33,cs),
(176,56,o),
(193,73,o),
(218,73,cs)
);
}
);
width = 285;
}
);
unicode = 57377;
},
{
glyphname = uniE022;
layers = (
{
layerId = "C985D1D4-6D1D-43A7-B614-37C5E085729D";
shapes = (
{
closed = 1;
nodes = (
(140,572,o),
(155,556,o),
(155,532,cs),
(155,508,o),
(140,490,o),
(115,490,cs),
(90,490,o),
(75,508,o),
(75,532,cs),
(75,556,o),
(90,572,o),
(115,572,cs)
);
},
{
closed = 1;
nodes = (
(140,195,o),
(155,179,o),
(155,155,cs),
(155,132,o),
(140,114,o),
(115,114,cs),
(90,114,o),
(75,132,o),
(75,155,cs),
(75,179,o),
(90,195,o),
(115,195,cs)
);
}
);
width = 230;
}
);
unicode = 57378;
},
{
glyphname = caron;
layers = (
{
associatedMasterId = "C985D1D4-6D1D-43A7-B614-37C5E085729D";
layerId = "BBA471A4-2228-454C-841A-56A92F7EAA24";
name = img;
width = 506;
},
{
layerId = "C985D1D4-6D1D-43A7-B614-37C5E085729D";
shapes = (
{
closed = 1;
nodes = (
(169,763,l),
(254,666,l),
(336,763,l),
(380,763,l),
(269,636,l),
(237,636,l),
(126,763,l)
);
}
);
width = 506;
}
);
unicode = 711;
},
{
glyphname = ordfeminine;
layers = (
{
associatedMasterId = "C985D1D4-6D1D-43A7-B614-37C5E085729D";
layerId = "BBA471A4-2228-454C-841A-56A92F7EAA24";
name = img;
width = 352;
},
{
layerId = "C985D1D4-6D1D-43A7-B614-37C5E085729D";
shapes = (
{
closed = 1;
nodes = (
(197,455,o),
(225,468,o),
(240,494,cs),
(253,515,o),
(255,536,o),
(255,559,c),
(182,559,ls),
(146,559,o),
(89,562,o),
(89,510,cs),
(89,471,o),
(123,455,o),
(158,455,cs)
);
},
{
closed = 1;
nodes = (
(258,434,l),
(256,473,l),
(232,441,o),
(196,431,o),
(156,431,cs),
(107,431,o),
(60,453,o),
(60,508,cs),
(60,569,o),
(109,583,o),
(160,583,cs),
(255,583,l),
(252,639,o),
(241,681,o),
(178,682,cs),
(150,682,o),
(117,676,o),
(106,651,c),
(74,651,l),
(90,694,o),
(132,707,o),
(176,707,cs),
(262,707,o),
(282,654,o),
(282,581,cs),
(282,434,l)
);
}
);
width = 352;
}
);
unicode = 170;
},
{
glyphname = ordmasculine;
layers = (
{
associatedMasterId = "C985D1D4-6D1D-43A7-B614-37C5E085729D";
layerId = "BBA471A4-2228-454C-841A-56A92F7EAA24";
name = img;
width = 373;
},
{
layerId = "C985D1D4-6D1D-43A7-B614-37C5E085729D";
shapes = (
{
closed = 1;
nodes = (
(303,493,o),
(270,431,o),
(186,431,cs),
(102,431,o),
(70,492,o),
(70,569,cs),
(70,645,o),
(102,708,o),
(186,708,cs),
(269,708,o),
(303,645,o),
(303,569,cs)
);
},
{
closed = 1;
nodes = (
(271,630,o),
(246,682,o),
(186,682,cs),
(125,682,o),
(102,630,o),
(102,569,cs),
(102,508,o),
(125,457,o),
(186,457,cs),
(247,457,o),
(271,508,o),
(271,569,cs)
);
}
);
width = 373;
}
);
unicode = 186;
},
{
glyphname = paragraph;
layers = (
{
associatedMasterId = "C985D1D4-6D1D-43A7-B614-37C5E085729D";
layerId = "BBA471A4-2228-454C-841A-56A92F7EAA24";
name = img;
width = 514;
},
{
layerId = "C985D1D4-6D1D-43A7-B614-37C5E085729D";
shapes = (
{
closed = 1;
nodes = (
(479,669,l),
(397,669,l),
(397,0,l),
(355,0,l),
(355,669,l),
(235,669,l),
(235,0,l),
(193,0,l),
(193,419,l),
(177,419,ls),
(86,419,o),
(35,473,o),
(35,565,cs),
(35,653,o),
(97,707,o),
(182,707,cs),
(479,707,l)
);
}
);
width = 514;
}
);
unicode = 182;
},
{
glyphname = germandbls;
kernLeft = _kern1;
layers = (
{
associatedMasterId = "C985D1D4-6D1D-43A7-B614-37C5E085729D";
layerId = "BBA471A4-2228-454C-841A-56A92F7EAA24";
name = img;
width = 578;
},
{
layerId = "C985D1D4-6D1D-43A7-B614-37C5E085729D";
shapes = (
{
closed = 1;
nodes = (
(384,270,o),
(411,262,o),
(442,252,cs),
(495,234,o),
(533,202,o),
(533,137,cs),
(533,37,o),
(470,-7,o),
(375,-7,cs),
(296,-7,o),
(235,28,o),
(216,108,c),
(261,108,l),
(274,57,o),
(321,29,o),
(372,29,cs),
(437,29,o),
(491,56,o),
(491,128,cs),
(491,184,o),
(459,206,o),
(411,223,cs),
(384,232,o),
(359,238,o),
(334,247,cs),
(285,266,o),
(252,296,o),
(252,357,cs),
(252,437,o),
(368,508,o),
(368,584,cs),
(368,648,o),
(304,683,o),
(246,683,cs),
(165,683,o),
(117,630,o),
(117,546,cs),
(117,0,l),
(75,0,l),
(75,547,ls),
(75,648,o),
(132,719,o),
(251,719,cs),
(331,719,o),
(410,674,o),
(410,587,cs),
(410,538,o),
(381,492,o),
(350,456,c),
(322,421,o),
(294,389,o),
(294,354,c),
(291,314,o),
(322,294,o),
(357,281,cs)
);
}
);
width = 578;
}
);
unicode = 223;
},
{
glyphname = periodcentered;
layers = (
{
associatedMasterId = "C985D1D4-6D1D-43A7-B614-37C5E085729D";
layerId = "BBA471A4-2228-454C-841A-56A92F7EAA24";
name = img;
width = 229;
},
{
layerId = "C985D1D4-6D1D-43A7-B614-37C5E085729D";
shapes = (
{
closed = 1;
nodes = (
(140,392,o),
(154,377,o),
(154,354,cs),
(154,330,o),
(140,315,o),
(115,315,cs),
(91,315,o),
(75,329,o),
(75,354,cs),
(75,377,o),
(90,392,o),
(115,392,cs)
);
}
);
width = 229;
}
);
unicode = 183;
},
{
glyphname = questiondown;
layers = (
{
associatedMasterId = "C985D1D4-6D1D-43A7-B614-37C5E085729D";
layerId = "BBA471A4-2228-454C-841A-56A92F7EAA24";
name = img;
width = 498;
},
{
layerId = "C985D1D4-6D1D-43A7-B614-37C5E085729D";
shapes = (
{
closed = 1;
nodes = (
(251,323,l),
(299,323,l),
(299,308,ls),
(299,240,o),
(250,190,o),
(203,146,cs),
(158,104,o),
(103,46,o),
(103,-19,cs),
(103,-107,o),
(174,-152,o),
(252,-152,cs),
(317,-152,o),
(386,-128,o),
(407,-67,c),
(455,-67,l),
(423,-162,o),
(329,-188,o),
(252,-188,cs),
(148,-188,o),
(61,-133,o),
(61,-22,cs),
(61,54,o),
(103,106,o),
(168,167,cs),
(213,209,o),
(251,244,o),
(251,308,cs)
);
},
{
closed = 1;
nodes = (
(252,454,o),
(234,468,o),
(234,495,cs),
(234,519,o),
(250,534,o),
(273,534,cs),
(298,534,o),
(314,518,o),
(314,494,cs),
(314,469,o),
(298,454,o),
(273,454,cs)
);
}
);
width = 498;
}
);
unicode = 191;
},
{
glyphname = exclamdown;
layers = (
{
associatedMasterId = "C985D1D4-6D1D-43A7-B614-37C5E085729D";
layerId = "BBA471A4-2228-454C-841A-56A92F7EAA24";
name = img;
width = 244;
},
{
layerId = "C985D1D4-6D1D-43A7-B614-37C5E085729D";
shapes = (
{
closed = 1;
nodes = (
(100,454,o),
(82,468,o),
(82,495,cs),
(82,519,o),
(98,534,o),
(121,534,cs),
(146,534,o),
(162,518,o),
(162,494,cs),
(162,469,o),
(146,454,o),
(121,454,cs)
);
},
{
closed = 1;
nodes = (
(140,349,l),
(142,-181,l),
(101,-181,l),
(103,349,l)
);
}
);
width = 244;
}
);
unicode = 161;
},
{
glyphname = dotaccent;
layers = (
{
associatedMasterId = "C985D1D4-6D1D-43A7-B614-37C5E085729D";
layerId = "BBA471A4-2228-454C-841A-56A92F7EAA24";
name = img;
width = 559;
},
{
layerId = "C985D1D4-6D1D-43A7-B614-37C5E085729D";
shapes = (
{
closed = 1;
nodes = (
(303,714,o),
(319,700,o),
(319,676,cs),
(319,651,o),
(302,636,o),
(279,636,cs),
(256,636,o),
(240,649,o),
(240,676,cs),
(240,701,o),
(257,714,o),
(280,714,cs)
);
}
);
width = 559;
}
);
unicode = 729;
},
{
glyphname = ring;
layers = (
{
associatedMasterId = "C985D1D4-6D1D-43A7-B614-37C5E085729D";
layerId = "BBA471A4-2228-454C-841A-56A92F7EAA24";
name = img;
width = 562;
},
{
layerId = "C985D1D4-6D1D-43A7-B614-37C5E085729D";
shapes = (
{
closed = 1;
nodes = (
(333,781,o),
(366,745,o),
(366,696,cs),
(366,645,o),
(331,616,o),
(280,616,cs),
(229,616,o),
(196,647,o),
(196,696,cs),
(196,745,o),
(230,781,o),
(281,781,cs)
);
},
{
closed = 1;
nodes = (
(246,754,o),
(227,730,o),
(227,697,cs),
(227,662,o),
(247,642,o),
(280,642,cs),
(315,642,o),
(335,662,o),
(335,697,cs),
(335,730,o),
(316,754,o),
(281,754,cs)
);
}
);
width = 562;
}
);
unicode = 730;
},
{
glyphname = tilde;
layers = (
{
associatedMasterId = "C985D1D4-6D1D-43A7-B614-37C5E085729D";
layerId = "BBA471A4-2228-454C-841A-56A92F7EAA24";
name = img;
width = 537;
},
{
layerId = "C985D1D4-6D1D-43A7-B614-37C5E085729D";
shapes = (
{
closed = 1;
nodes = (
(267,738,o),
(289,662,o),
(334,662,cs),
(374,662,o),
(378,701,o),
(378,734,c),
(415,734,l),
(415,675,o),
(393,632,o),
(332,632,cs),
(269,632,o),
(247,708,o),
(202,708,cs),
(164,708,o),
(156,667,o),
(159,636,c),
(122,636,l),
(122,694,o),
(142,738,o),
(205,738,cs)
);
}
);
width = 537;
}
);
unicode = 732;
},
{
glyphname = macron;
layers = (
{
associatedMasterId = "C985D1D4-6D1D-43A7-B614-37C5E085729D";
layerId = "BBA471A4-2228-454C-841A-56A92F7EAA24";
name = img;
width = 553;
},
{
layerId = "C985D1D4-6D1D-43A7-B614-37C5E085729D";
shapes = (
{
closed = 1;
nodes = (
(127,697,l),
(426,697,l),
(426,662,l),
(127,662,l)
);
}
);
width = 553;
}
);
unicode = 175;
},
{
glyphname = hungarumlaut;
layers = (
{
associatedMasterId = "C985D1D4-6D1D-43A7-B614-37C5E085729D";
layerId = "BBA471A4-2228-454C-841A-56A92F7EAA24";
name = img;
width = 405;
},
{
layerId = "C985D1D4-6D1D-43A7-B614-37C5E085729D";
shapes = (
{
closed = 1;
nodes = (
(225,763,l),
(137,636,l),
(99,636,l),
(175,763,l)
);
},
{
closed = 1;
nodes = (
(345,763,l),
(257,636,l),
(219,636,l),
(295,763,l)
);
}
);
width = 405;
}
);
unicode = 733;
},
{
glyphname = ogonek;
layers = (
{
associatedMasterId = "C985D1D4-6D1D-43A7-B614-37C5E085729D";
layerId = "BBA471A4-2228-454C-841A-56A92F7EAA24";
name = img;
width = 504;
},
{
layerId = "C985D1D4-6D1D-43A7-B614-37C5E085729D";
shapes = (
{
closed = 1;
nodes = (
(334,-191,l),
(318,-198,o),
(300,-201,o),
(281,-201,cs),
(220,-201,o),
(170,-172,o),
(170,-105,cs),
(170,-57,o),
(208,-12,o),
(248,9,c),
(271,1,l),
(238,-23,o),
(209,-57,o),
(209,-97,cs),
(209,-145,o),
(239,-167,o),
(286,-168,cs),
(298,-168,o),
(315,-165,o),
(326,-161,c)
);
}
);
width = 504;
}
);
unicode = 731;
},
{
glyphname = gravecomb;
layers = (
{
associatedMasterId = "C985D1D4-6D1D-43A7-B614-37C5E085729D";
layerId = "BBA471A4-2228-454C-841A-56A92F7EAA24";
name = img;
width = 0;
},
{
layerId = "C985D1D4-6D1D-43A7-B614-37C5E085729D";
shapes = (
{
closed = 1;
nodes = (
(-310,763,l),
(-234,636,l),
(-272,636,l),
(-360,763,l)
);
}
);
width = 0;
}
);
unicode = 768;
},
{
glyphname = acutecomb;
layers = (
{
associatedMasterId = "C985D1D4-6D1D-43A7-B614-37C5E085729D";
layerId = "BBA471A4-2228-454C-841A-56A92F7EAA24";
name = img;
width = 0;
},
{
layerId = "C985D1D4-6D1D-43A7-B614-37C5E085729D";
shapes = (
{
closed = 1;
nodes = (
(-174,763,l),
(-262,636,l),
(-300,636,l),
(-224,763,l)
);
}
);
width = 0;
}
);
unicode = 769;
},
{
glyphname = uni0302;
layers = (
{
associatedMasterId = "C985D1D4-6D1D-43A7-B614-37C5E085729D";
layerId = "BBA471A4-2228-454C-841A-56A92F7EAA24";
name = img;
width = 0;
},
{
layerId = "C985D1D4-6D1D-43A7-B614-37C5E085729D";
shapes = (
{
closed = 1;
nodes = (
(-184,636,l),
(-269,734,l),
(-351,636,l),
(-395,636,l),
(-284,763,l),
(-252,763,l),
(-141,636,l)
);
}
);
width = 0;
}
);
unicode = 770;
},
{
glyphname = tildecomb;
layers = (
{
associatedMasterId = "C985D1D4-6D1D-43A7-B614-37C5E085729D";
layerId = "BBA471A4-2228-454C-841A-56A92F7EAA24";
name = img;
width = 0;
},
{
layerId = "C985D1D4-6D1D-43A7-B614-37C5E085729D";
shapes = (
{
closed = 1;
nodes = (
(-270,738,o),
(-248,662,o),
(-203,662,cs),
(-163,662,o),
(-159,701,o),
(-159,734,c),
(-122,734,l),
(-122,675,o),
(-144,632,o),
(-205,632,cs),
(-268,632,o),
(-290,708,o),
(-335,708,cs),
(-373,708,o),
(-381,667,o),
(-378,636,c),
(-415,636,l),
(-415,694,o),
(-395,738,o),
(-332,738,cs)
);
}
);
width = 0;
}
);
unicode = 771;
},
{
glyphname = uni0304;
layers = (
{
associatedMasterId = "C985D1D4-6D1D-43A7-B614-37C5E085729D";
layerId = "BBA471A4-2228-454C-841A-56A92F7EAA24";
name = img;
width = 0;
},
{
layerId = "C985D1D4-6D1D-43A7-B614-37C5E085729D";
shapes = (
{
closed = 1;
nodes = (
(-420,697,l),
(-121,697,l),
(-121,662,l),
(-420,662,l)
);
}
);
width = 0;
}
);
unicode = 772;
},
{
glyphname = uni0306;
layers = (
{
associatedMasterId = "C985D1D4-6D1D-43A7-B614-37C5E085729D";
layerId = "BBA471A4-2228-454C-841A-56A92F7EAA24";
name = img;
width = 0;
},
{
layerId = "C985D1D4-6D1D-43A7-B614-37C5E085729D";
shapes = (
{
closed = 1;
nodes = (
(-371,735,l),
(-360,680,o),
(-316,669,o),
(-263,669,cs),
(-211,669,o),
(-166,680,o),
(-155,735,c),
(-116,735,l),
(-127,658,o),
(-192,636,o),
(-264,636,cs),
(-337,636,o),
(-399,657,o),
(-410,735,c)
);
}
);
width = 0;
}
);
unicode = 774;
},
{
glyphname = uni0307;
layers = (
{
associatedMasterId = "C985D1D4-6D1D-43A7-B614-37C5E085729D";
layerId = "BBA471A4-2228-454C-841A-56A92F7EAA24";
name = img;
width = 0;
},
{
layerId = "C985D1D4-6D1D-43A7-B614-37C5E085729D";
shapes = (
{
closed = 1;
nodes = (
(-252,714,o),
(-236,700,o),
(-236,676,cs),
(-236,651,o),
(-253,636,o),
(-276,636,cs),
(-299,636,o),
(-315,649,o),
(-315,676,cs),
(-315,701,o),
(-298,714,o),
(-275,714,cs)
);
}
);
width = 0;
}
);
unicode = 775;
},
{
glyphname = uni0308;
layers = (
{
associatedMasterId = "C985D1D4-6D1D-43A7-B614-37C5E085729D";
layerId = "BBA471A4-2228-454C-841A-56A92F7EAA24";
name = img;
width = 0;
},
{
layerId = "C985D1D4-6D1D-43A7-B614-37C5E085729D";
shapes = (
{
closed = 1;
nodes = (
(-135,714,o),
(-119,698,o),
(-119,675,cs),
(-119,652,o),
(-135,636,o),
(-160,636,cs),
(-184,636,o),
(-199,654,o),
(-199,675,cs),
(-199,696,o),
(-184,714,o),
(-160,714,cs)
);
},
{
closed = 1;
nodes = (
(-346,714,o),
(-330,698,o),
(-330,675,cs),
(-330,652,o),
(-346,636,o),
(-371,636,cs),
(-395,636,o),
(-410,654,o),
(-410,675,cs),
(-410,696,o),
(-395,714,o),
(-371,714,cs)
);
}
);
width = 0;
}
);
unicode = 776;
},
{
glyphname = uni030A;
layers = (
{
associatedMasterId = "C985D1D4-6D1D-43A7-B614-37C5E085729D";
layerId = "BBA471A4-2228-454C-841A-56A92F7EAA24";
name = img;
width = 0;
},
{
layerId = "C985D1D4-6D1D-43A7-B614-37C5E085729D";
shapes = (
{
closed = 1;
nodes = (
(-218,781,o),
(-185,745,o),
(-185,696,cs),
(-185,645,o),
(-220,616,o),
(-271,616,cs),
(-322,616,o),
(-355,647,o),
(-355,696,cs),
(-355,745,o),
(-321,781,o),
(-270,781,cs)
);
},
{
closed = 1;
nodes = (
(-305,754,o),
(-324,730,o),
(-324,697,cs),
(-324,662,o),
(-304,642,o),
(-271,642,cs),
(-236,642,o),
(-216,662,o),
(-216,697,cs),
(-216,730,o),
(-235,754,o),
(-270,754,cs)
);
}
);
width = 0;
}
);
unicode = 778;
},
{
glyphname = uni030B;
layers = (
{
associatedMasterId = "C985D1D4-6D1D-43A7-B614-37C5E085729D";
layerId = "BBA471A4-2228-454C-841A-56A92F7EAA24";
name = img;
width = 0;
},
{
layerId = "C985D1D4-6D1D-43A7-B614-37C5E085729D";
shapes = (
{
closed = 1;
nodes = (
(-234,763,l),
(-322,636,l),
(-360,636,l),
(-284,763,l)
);
},
{
closed = 1;
nodes = (
(-114,763,l),
(-202,636,l),
(-240,636,l),
(-164,763,l)
);
}
);
width = 0;
}
);
unicode = 779;
},
{
glyphname = uni030C;
layers = (
{
associatedMasterId = "C985D1D4-6D1D-43A7-B614-37C5E085729D";
layerId = "BBA471A4-2228-454C-841A-56A92F7EAA24";
name = img;
width = 0;
},
{
layerId = "C985D1D4-6D1D-43A7-B614-37C5E085729D";
shapes = (
{
closed = 1;
nodes = (
(-342,763,l),
(-257,666,l),
(-175,763,l),
(-131,763,l),
(-242,636,l),
(-274,636,l),
(-385,763,l)
);
}
);
width = 0;
}
);
unicode = 780;
},
{
glyphname = uni0312;
layers = (
{
associatedMasterId = "C985D1D4-6D1D-43A7-B614-37C5E085729D";
layerId = "BBA471A4-2228-454C-841A-56A92F7EAA24";
name = img;
width = 0;
},
{
layerId = "C985D1D4-6D1D-43A7-B614-37C5E085729D";
shapes = (
{
closed = 1;
nodes = (
(-307,636,o),
(-320,664,o),
(-320,692,cs),
(-320,745,o),
(-292,790,o),
(-245,817,c),
(-230,797,l),
(-261,780,o),
(-281,750,o),
(-285,715,c),
(-280,716,o),
(-275,717,o),
(-270,716,cs),
(-246,713,o),
(-234,699,o),
(-234,676,cs),
(-234,651,o),
(-251,636,o),
(-275,636,cs)
);
}
);
width = 0;
}
);
unicode = 786;
},
{
glyphname = uni0327;
layers = (
{
associatedMasterId = "C985D1D4-6D1D-43A7-B614-37C5E085729D";
layerId = "BBA471A4-2228-454C-841A-56A92F7EAA24";
name = img;
width = 0;
},
{
layerId = "C985D1D4-6D1D-43A7-B614-37C5E085729D";
shapes = (
{
closed = 1;
nodes = (
(-291,-78,l),
(-276,-75,o),
(-268,-75,o),
(-256,-75,c),
(-213,-76,o),
(-182,-102,o),
(-182,-153,cs),
(-182,-233,o),
(-264,-256,o),
(-330,-248,c),
(-330,-221,l),
(-291,-226,o),
(-212,-219,o),
(-212,-151,cs),
(-212,-118,o),
(-235,-100,o),
(-271,-100,cs),
(-287,-100,o),
(-312,-105,o),
(-327,-109,c),
(-287,18,l),
(-261,18,l)
);
}
);
width = 0;
}
);
unicode = 807;
},
{
glyphname = uni0328;
layers = (
{
associatedMasterId = "C985D1D4-6D1D-43A7-B614-37C5E085729D";
layerId = "BBA471A4-2228-454C-841A-56A92F7EAA24";
name = img;
width = 0;
},
{
layerId = "C985D1D4-6D1D-43A7-B614-37C5E085729D";
shapes = (
{
closed = 1;
nodes = (
(-176,-191,l),
(-192,-198,o),
(-210,-201,o),
(-229,-201,cs),
(-290,-201,o),
(-340,-172,o),
(-340,-105,cs),
(-340,-57,o),
(-302,-12,o),
(-262,9,c),
(-239,1,l),
(-272,-23,o),
(-301,-57,o),
(-301,-97,cs),
(-301,-145,o),
(-271,-167,o),
(-224,-168,cs),
(-212,-168,o),
(-195,-165,o),
(-184,-161,c)
);
}
);
width = 0;
}
);
unicode = 808;
},
{
glyphname = AE;
layers = (
{
associatedMasterId = "C985D1D4-6D1D-43A7-B614-37C5E085729D";
layerId = "BBA471A4-2228-454C-841A-56A92F7EAA24";
name = img;
width = 929;
},
{
layerId = "C985D1D4-6D1D-43A7-B614-37C5E085729D";
shapes = (
{
closed = 1;
nodes = (
(875,707,l),
(875,669,l),
(481,669,l),
(481,370,l),
(833,370,l),
(833,332,l),
(481,332,l),
(481,38,l),
(875,38,l),
(875,0,l),
(439,0,l),
(439,166,l),
(157,166,l),
(66,0,l),
(16,0,l),
(405,707,l)
);
},
{
closed = 1;
nodes = (
(177,203,l),
(439,203,l),
(439,669,l),
(431,669,l)
);
}
);
width = 929;
}
);
unicode = 198;
},
{
glyphname = Eth;
kernLeft = _kern1;
kernRight = _kern4;
layers = (
{
associatedMasterId = "C985D1D4-6D1D-43A7-B614-37C5E085729D";
layerId = "BBA471A4-2228-454C-841A-56A92F7EAA24";
name = img;
width = 720;
},
{
layerId = "C985D1D4-6D1D-43A7-B614-37C5E085729D";
shapes = (
{
closed = 1;
nodes = (
(135,669,l),
(135,372,l),
(318,372,l),
(318,334,l),
(135,334,l),
(135,38,l),
(328,38,ls),
(523,38,o),
(621,166,o),
(621,353,cs),
(621,537,o),
(528,669,o),
(335,669,cs)
);
},
{
closed = 1;
nodes = (
(7,372,l),
(93,372,l),
(93,707,l),
(336,707,ls),
(555,707,o),
(665,563,o),
(665,353,cs),
(665,145,o),
(552,0,o),
(336,0,cs),
(93,0,l),
(93,334,l),
(7,334,l)
);
}
);
width = 720;
}
);
unicode = 208;
},
{
glyphname = Oslash;
kernLeft = _kern3;
kernRight = _kern4;
layers = (
{
associatedMasterId = "C985D1D4-6D1D-43A7-B614-37C5E085729D";
layerId = "BBA471A4-2228-454C-841A-56A92F7EAA24";
name = img;
width = 767;
},
{
layerId = "C985D1D4-6D1D-43A7-B614-37C5E085729D";
shapes = (
{
closed = 1;
nodes = (
(165,-110,l),
(222,27,l),
(99,91,o),
(54,222,o),
(54,353,cs),
(54,560,o),
(166,715,o),
(384,715,cs),
(427,715,o),
(467,709,o),
(503,697,c),
(553,816,l),
(602,816,l),
(544,679,l),
(667,615,o),
(713,485,o),
(713,353,cs),
(713,148,o),
(601,-8,o),
(384,-8,cs),
(339,-8,o),
(299,-2,o),
(264,10,c),
(214,-110,l)
);
},
{
closed = 1;
nodes = (
(279,45,l),
(311,34,o),
(346,28,o),
(384,28,cs),
(577,28,o),
(668,174,o),
(668,353,cs),
(668,468,o),
(633,581,o),
(529,642,c)
);
},
{
closed = 1;
nodes = (
(488,662,l),
(456,673,o),
(421,679,o),
(384,679,cs),
(192,679,o),
(98,531,o),
(98,353,cs),
(98,241,o),
(137,124,o),
(238,65,c)
);
}
);
width = 767;
}
);
unicode = 216;
},
{
glyphname = Thorn;
kernLeft = _kern1;
layers = (
{
associatedMasterId = "C985D1D4-6D1D-43A7-B614-37C5E085729D";
layerId = "BBA471A4-2228-454C-841A-56A92F7EAA24";
name = img;
width = 624;
},
{
layerId = "C985D1D4-6D1D-43A7-B614-37C5E085729D";
shapes = (
{
closed = 1;
nodes = (
(135,582,l),
(328,582,ls),
(479,582,o),
(569,511,o),
(569,355,cs),
(569,199,o),
(456,125,o),
(309,125,cs),
(135,125,l),
(135,0,l),
(93,0,l),
(93,707,l),
(135,707,l)
);
},
{
closed = 1;
nodes = (
(305,162,ls),
(434,162,o),
(525,221,o),
(525,359,cs),
(525,492,o),
(447,544,o),
(322,544,cs),
(135,544,l),
(135,162,l)
);
}
);
width = 624;
}
);
unicode = 222;
},
{
glyphname = ae;
layers = (
{
associatedMasterId = "C985D1D4-6D1D-43A7-B614-37C5E085729D";
layerId = "BBA471A4-2228-454C-841A-56A92F7EAA24";
name = img;
width = 963;
},
{
layerId = "C985D1D4-6D1D-43A7-B614-37C5E085729D";
shapes = (
{
closed = 1;
nodes = (
(867,287,l),
(862,400,o),
(802,498,o),
(679,498,cs),
(558,498,o),
(486,398,o),
(481,287,c)
);
},
{
closed = 1;
nodes = (
(273,252,ls),
(196,252,o),
(95,249,o),
(95,147,cs),
(95,62,o),
(176,29,o),
(250,29,cs),
(354,29,o),
(440,85,o),
(440,201,cs),
(440,252,l)
);
},
{
closed = 1;
nodes = (
(154,-7,o),
(53,37,o),
(53,142,cs),
(53,259,o),
(148,287,o),
(248,287,cs),
(440,287,l),
(440,395,o),
(401,498,o),
(278,498,cs),
(222,498,o),
(162,484,o),
(133,432,c),
(88,432,l),
(117,509,o),
(200,534,o),
(276,534,cs),
(367,534,o),
(440,489,o),
(467,401,c),
(507,488,o),
(587,534,o),
(683,534,cs),
(846,534,o),
(909,396,o),
(909,252,c),
(480,252,l),
(480,129,o),
(546,29,o),
(689,29,cs),
(748,29,o),
(817,49,o),
(847,106,c),
(894,106,l),
(859,26,o),
(765,-7,o),
(684,-7,cs),
(588,-7,o),
(508,30,o),
(465,121,c),
(423,18,o),
(338,-7,o),
(247,-7,cs)
);
}
);
width = 963;
}
);
unicode = 230;
},
{
glyphname = oslash;
kernLeft = _kern5;
kernRight = _kern6;
layers = (
{
associatedMasterId = "C985D1D4-6D1D-43A7-B614-37C5E085729D";
layerId = "BBA471A4-2228-454C-841A-56A92F7EAA24";
name = img;
width = 605;
},
{
layerId = "C985D1D4-6D1D-43A7-B614-37C5E085729D";
shapes = (
{
closed = 1;
nodes = (
(122,-110,l),
(176,21,l),
(85,69,o),
(53,165,o),
(53,263,cs),
(53,421,o),
(136,534,o),
(302,534,cs),
(333,534,o),
(361,530,o),
(386,522,c),
(434,636,l),
(483,636,l),
(428,505,l),
(519,457,o),
(552,360,o),
(552,263,cs),
(552,106,o),
(466,-7,o),
(302,-7,cs),
(272,-7,o),
(244,-3,o),
(218,4,c),
(171,-110,l)
);
},
{
closed = 1;
nodes = (
(232,38,l),
(253,32,o),
(276,29,o),
(302,29,cs),
(444,29,o),
(510,131,o),
(510,263,cs),
(510,343,o),
(485,426,o),
(413,469,c)
);
},
{
closed = 1;
nodes = (
(372,488,l),
(352,495,o),
(329,498,o),
(302,498,cs),
(161,498,o),
(95,395,o),
(95,263,cs),
(95,183,o),
(118,99,o),
(191,56,c)
);
}
);
width = 605;
}
);
unicode = 248;
},
{
glyphname = thorn;
layers = (
{
associatedMasterId = "C985D1D4-6D1D-43A7-B614-37C5E085729D";
layerId = "BBA471A4-2228-454C-841A-56A92F7EAA24";
name = img;
width = 609;
},
{
layerId = "C985D1D4-6D1D-43A7-B614-37C5E085729D";
shapes = (
{
closed = 1;
nodes = (
(115,-206,l),
(73,-206,l),
(73,707,l),
(115,707,l),
(115,422,l),
(166,499,o),
(231,534,o),
(323,534,cs),
(483,534,o),
(556,406,o),
(556,259,cs),
(556,107,o),
(483,-7,o),
(320,-7,cs),
(235,-7,o),
(159,21,o),
(115,98,c)
);
},
{
closed = 1;
nodes = (
(461,29,o),
(514,138,o),
(514,262,cs),
(514,391,o),
(457,498,o),
(315,498,cs),
(183,498,o),
(113,382,o),
(113,262,cs),
(113,131,o),
(184,29,o),
(323,29,cs)
);
}
);
width = 609;
}
);
unicode = 254;
},
{
glyphname = eth;
kernLeft = _kern5;
kernRight = _kern6;
layers = (
{
associatedMasterId = "C985D1D4-6D1D-43A7-B614-37C5E085729D";
layerId = "BBA471A4-2228-454C-841A-56A92F7EAA24";
name = img;
width = 548;
},
{
layerId = "C985D1D4-6D1D-43A7-B614-37C5E085729D";
shapes = (
{
closed = 1;
nodes = (
(455,694,l),
(354,630,l),
(461,531,o),
(493,427,o),
(493,280,cs),
(493,216,o),
(483,135,o),
(446,82,cs),
(411,31,o),
(356,-7,o),
(275,-7,cs),
(135,-7,o),
(53,91,o),
(53,227,cs),
(53,353,o),
(132,457,o),
(263,457,cs),
(354,457,o),
(425,412,o),
(458,327,c),
(451,438,o),
(416,540,o),
(323,609,c),
(214,534,l),
(196,561,l),
(298,627,l),
(250,658,o),
(207,671,o),
(152,683,c),
(157,713,l),
(213,702,o),
(277,682,o),
(326,647,c),
(437,721,l)
);
},
{
closed = 1;
nodes = (
(377,29,o),
(447,115,o),
(447,219,cs),
(447,327,o),
(381,421,o),
(264,421,cs),
(159,421,o),
(95,326,o),
(95,227,cs),
(95,124,o),
(157,29,o),
(272,29,cs)
);
}
);
width = 548;
}
);
unicode = 240;
},
{
glyphname = Agrave;
kernLeft = _kern30;
kernRight = _kern30;
layers = (
{
associatedMasterId = "C985D1D4-6D1D-43A7-B614-37C5E085729D";
layerId = "BBA471A4-2228-454C-841A-56A92F7EAA24";
name = img;
width = 638;
},
{
layerId = "C985D1D4-6D1D-43A7-B614-37C5E085729D";
shapes = (
{
closed = 1;
nodes = (
(294,707,l),
(341,707,l),
(622,0,l),
(573,0,l),
(509,163,l),
(127,163,l),
(64,0,l),
(16,0,l)
);
},
{
closed = 1;
nodes = (
(141,200,l),
(494,200,l),
(318,657,l)
);
},
{
closed = 1;
nodes = (
(266,923,l),
(342,796,l),
(304,796,l),
(216,923,l)
);
}
);
width = 638;
}
);
unicode = 192;
},
{
glyphname = Aacute;
kernLeft = _kern30;
kernRight = _kern30;
layers = (
{
associatedMasterId = "C985D1D4-6D1D-43A7-B614-37C5E085729D";
layerId = "BBA471A4-2228-454C-841A-56A92F7EAA24";
name = img;
width = 638;
},
{
layerId = "C985D1D4-6D1D-43A7-B614-37C5E085729D";
shapes = (
{
closed = 1;
nodes = (
(294,707,l),
(341,707,l),
(622,0,l),
(573,0,l),
(509,163,l),
(127,163,l),
(64,0,l),
(16,0,l)
);
},
{
closed = 1;
nodes = (
(141,200,l),
(494,200,l),
(318,657,l)
);
},
{
closed = 1;
nodes = (
(427,923,l),
(339,796,l),
(301,796,l),
(377,923,l)
);
}
);
width = 638;
}
);
unicode = 193;
},
{
glyphname = Acircumflex;
kernLeft = _kern30;
kernRight = _kern30;
layers = (
{
associatedMasterId = "C985D1D4-6D1D-43A7-B614-37C5E085729D";
layerId = "BBA471A4-2228-454C-841A-56A92F7EAA24";
name = img;
width = 638;
},
{
layerId = "C985D1D4-6D1D-43A7-B614-37C5E085729D";
shapes = (
{
closed = 1;
nodes = (
(294,707,l),
(341,707,l),
(622,0,l),
(573,0,l),
(509,163,l),
(127,163,l),
(64,0,l),
(16,0,l)
);
},
{
closed = 1;
nodes = (
(141,200,l),
(494,200,l),
(318,657,l)
);
},
{
closed = 1;
nodes = (
(403,796,l),
(318,894,l),
(236,796,l),
(192,796,l),
(303,923,l),
(335,923,l),
(446,796,l)
);
}
);
width = 638;
}
);
unicode = 194;
},
{
glyphname = Atilde;
kernLeft = _kern30;
kernRight = _kern30;
layers = (
{
associatedMasterId = "C985D1D4-6D1D-43A7-B614-37C5E085729D";
layerId = "BBA471A4-2228-454C-841A-56A92F7EAA24";
name = img;
width = 638;
},
{
layerId = "C985D1D4-6D1D-43A7-B614-37C5E085729D";
shapes = (
{
closed = 1;
nodes = (
(294,707,l),
(341,707,l),
(622,0,l),
(573,0,l),
(509,163,l),
(127,163,l),
(64,0,l),
(16,0,l)
);
},
{
closed = 1;
nodes = (
(141,200,l),
(494,200,l),
(318,657,l)
);
},
{
closed = 1;
nodes = (
(319,898,o),
(341,822,o),
(386,822,cs),
(426,822,o),
(430,861,o),
(430,894,c),
(467,894,l),
(467,835,o),
(445,792,o),
(384,792,cs),
(321,792,o),
(299,868,o),
(254,868,cs),
(216,868,o),
(208,827,o),
(211,796,c),
(174,796,l),
(174,854,o),
(194,898,o),
(257,898,cs)
);
}
);
width = 638;
}
);
unicode = 195;
},
{
glyphname = Adieresis;
kernLeft = _kern30;
kernRight = _kern30;
layers = (
{
associatedMasterId = "C985D1D4-6D1D-43A7-B614-37C5E085729D";
layerId = "BBA471A4-2228-454C-841A-56A92F7EAA24";
name = img;
width = 638;
},
{
layerId = "C985D1D4-6D1D-43A7-B614-37C5E085729D";
shapes = (
{
closed = 1;
nodes = (
(294,707,l),
(341,707,l),
(622,0,l),
(573,0,l),
(509,163,l),
(127,163,l),
(64,0,l),
(16,0,l)
);
},
{
closed = 1;
nodes = (
(141,200,l),
(494,200,l),
(318,657,l)
);
},
{
closed = 1;
nodes = (
(448,874,o),
(464,858,o),
(464,835,cs),
(464,812,o),
(448,796,o),
(423,796,cs),
(399,796,o),
(384,814,o),
(384,835,cs),
(384,856,o),
(399,874,o),
(423,874,cs)
);
},
{
closed = 1;
nodes = (
(237,874,o),
(253,858,o),
(253,835,cs),
(253,812,o),
(237,796,o),
(212,796,cs),
(188,796,o),
(173,814,o),
(173,835,cs),
(173,856,o),
(188,874,o),
(212,874,cs)
);
}
);
width = 638;
}
);
unicode = 196;
},
{
glyphname = Aring;
kernLeft = _kern30;
kernRight = _kern30;
layers = (
{
associatedMasterId = "C985D1D4-6D1D-43A7-B614-37C5E085729D";
layerId = "BBA471A4-2228-454C-841A-56A92F7EAA24";
name = img;
width = 638;
},
{
layerId = "C985D1D4-6D1D-43A7-B614-37C5E085729D";
shapes = (
{
closed = 1;
nodes = (
(294,707,l),
(341,707,l),
(622,0,l),
(573,0,l),
(509,163,l),
(127,163,l),
(64,0,l),
(16,0,l)
);
},
{
closed = 1;
nodes = (
(141,200,l),
(494,200,l),
(318,657,l)
);
},
{
closed = 1;
nodes = (
(371,941,o),
(404,905,o),
(404,856,cs),
(404,805,o),
(369,776,o),
(318,776,cs),
(267,776,o),
(234,807,o),
(234,856,cs),
(234,905,o),
(268,941,o),
(319,941,cs)
);
},
{
closed = 1;
nodes = (
(284,914,o),
(265,890,o),
(265,857,cs),
(265,822,o),
(285,802,o),
(318,802,cs),
(353,802,o),
(373,822,o),
(373,857,cs),
(373,890,o),
(354,914,o),
(319,914,cs)
);
}
);
width = 638;
}
);
unicode = 197;
},
{
glyphname = Egrave;
layers = (
{
associatedMasterId = "C985D1D4-6D1D-43A7-B614-37C5E085729D";
layerId = "BBA471A4-2228-454C-841A-56A92F7EAA24";
name = img;
width = 603;
},
{
layerId = "C985D1D4-6D1D-43A7-B614-37C5E085729D";
shapes = (
{
closed = 1;
nodes = (
(93,707,l),
(549,707,l),
(549,669,l),
(135,669,l),
(135,370,l),
(507,370,l),
(507,332,l),
(135,332,l),
(135,38,l),
(549,38,l),
(549,0,l),
(93,0,l)
);
},
{
closed = 1;
nodes = (
(280,923,l),
(356,796,l),
(318,796,l),
(230,923,l)
);
}
);
width = 603;
}
);
unicode = 200;
},
{
glyphname = Eacute;
layers = (
{
associatedMasterId = "C985D1D4-6D1D-43A7-B614-37C5E085729D";
layerId = "BBA471A4-2228-454C-841A-56A92F7EAA24";
name = img;
width = 603;
},
{
layerId = "C985D1D4-6D1D-43A7-B614-37C5E085729D";
shapes = (
{
closed = 1;
nodes = (
(93,707,l),
(549,707,l),
(549,669,l),
(135,669,l),
(135,370,l),
(507,370,l),
(507,332,l),
(135,332,l),
(135,38,l),
(549,38,l),
(549,0,l),
(93,0,l)
);
},
{
closed = 1;
nodes = (
(423,923,l),
(335,796,l),
(297,796,l),
(373,923,l)
);
}
);
width = 603;
}
);
unicode = 201;
},
{
glyphname = Ecircumflex;
layers = (
{
associatedMasterId = "C985D1D4-6D1D-43A7-B614-37C5E085729D";
layerId = "BBA471A4-2228-454C-841A-56A92F7EAA24";
name = img;
width = 603;
},
{
layerId = "C985D1D4-6D1D-43A7-B614-37C5E085729D";
shapes = (
{
closed = 1;
nodes = (
(93,707,l),
(549,707,l),
(549,669,l),
(135,669,l),
(135,370,l),
(507,370,l),
(507,332,l),
(135,332,l),
(135,38,l),
(549,38,l),
(549,0,l),
(93,0,l)
);
},
{
closed = 1;
nodes = (
(405,796,l),
(320,894,l),
(238,796,l),
(194,796,l),
(305,923,l),
(337,923,l),
(448,796,l)
);
}
);
width = 603;
}
);
unicode = 202;
},
{
glyphname = Edieresis;
layers = (
{
associatedMasterId = "C985D1D4-6D1D-43A7-B614-37C5E085729D";
layerId = "BBA471A4-2228-454C-841A-56A92F7EAA24";
name = img;
width = 603;
},
{
layerId = "C985D1D4-6D1D-43A7-B614-37C5E085729D";
shapes = (
{
closed = 1;
nodes = (
(93,707,l),
(549,707,l),
(549,669,l),
(135,669,l),
(135,370,l),
(507,370,l),
(507,332,l),
(135,332,l),
(135,38,l),
(549,38,l),
(549,0,l),
(93,0,l)
);
},
{
closed = 1;
nodes = (
(456,894,o),
(472,878,o),
(472,855,cs),
(472,832,o),
(456,816,o),
(431,816,cs),
(407,816,o),
(392,834,o),
(392,855,cs),
(392,876,o),
(407,894,o),
(431,894,cs)
);
},
{
closed = 1;
nodes = (
(245,894,o),
(261,878,o),
(261,855,cs),
(261,832,o),
(245,816,o),
(220,816,cs),
(196,816,o),
(181,834,o),
(181,855,cs),
(181,876,o),
(196,894,o),
(220,894,cs)
);
}
);
width = 603;
}
);
unicode = 203;
},
{
glyphname = Igrave;
kernLeft = _kern1;
kernRight = _kern2;
layers = (
{
associatedMasterId = "C985D1D4-6D1D-43A7-B614-37C5E085729D";
layerId = "BBA471A4-2228-454C-841A-56A92F7EAA24";
name = img;
width = 228;
},
{
layerId = "C985D1D4-6D1D-43A7-B614-37C5E085729D";
shapes = (
{
closed = 1;
nodes = (
(135,0,l),
(93,0,l),
(93,707,l),
(135,707,l)
);
},
{
closed = 1;
nodes = (
(71,923,l),
(147,796,l),
(109,796,l),
(21,923,l)
);
}
);
width = 228;
}
);
unicode = 204;
},
{
glyphname = Iacute;
kernLeft = _kern1;
kernRight = _kern2;
layers = (
{
associatedMasterId = "C985D1D4-6D1D-43A7-B614-37C5E085729D";
layerId = "BBA471A4-2228-454C-841A-56A92F7EAA24";
name = img;
width = 228;
},
{
layerId = "C985D1D4-6D1D-43A7-B614-37C5E085729D";
shapes = (
{
closed = 1;
nodes = (
(135,0,l),
(93,0,l),
(93,707,l),
(135,707,l)
);
},
{
closed = 1;
nodes = (
(216,923,l),
(128,796,l),
(90,796,l),
(166,923,l)
);
}
);
width = 228;
}
);
unicode = 205;
},
{
glyphname = Icircumflex;
kernLeft = _kern1;
kernRight = _kern2;
layers = (
{
associatedMasterId = "C985D1D4-6D1D-43A7-B614-37C5E085729D";
layerId = "BBA471A4-2228-454C-841A-56A92F7EAA24";
name = img;
width = 228;
},
{
layerId = "C985D1D4-6D1D-43A7-B614-37C5E085729D";
shapes = (
{
closed = 1;
nodes = (
(135,0,l),
(93,0,l),
(93,707,l),
(135,707,l)
);
},
{
closed = 1;
nodes = (
(198,796,l),
(113,894,l),
(31,796,l),
(-13,796,l),
(98,923,l),
(130,923,l),
(241,796,l)
);
}
);
width = 228;
}
);
unicode = 206;
},
{
glyphname = Idieresis;
kernLeft = _kern1;
kernRight = _kern2;
layers = (
{
associatedMasterId = "C985D1D4-6D1D-43A7-B614-37C5E085729D";
layerId = "BBA471A4-2228-454C-841A-56A92F7EAA24";
name = img;
width = 228;
},
{
layerId = "C985D1D4-6D1D-43A7-B614-37C5E085729D";
shapes = (
{
closed = 1;
nodes = (
(135,0,l),
(93,0,l),
(93,707,l),
(135,707,l)
);
},
{
closed = 1;
nodes = (
(243,874,o),
(259,858,o),
(259,835,cs),
(259,812,o),
(243,796,o),
(218,796,cs),
(194,796,o),
(179,814,o),
(179,835,cs),
(179,856,o),
(194,874,o),
(218,874,cs)
);
},
{
closed = 1;
nodes = (
(32,874,o),
(48,858,o),
(48,835,cs),
(48,812,o),
(32,796,o),
(7,796,cs),
(-17,796,o),
(-32,814,o),
(-32,835,cs),
(-32,856,o),
(-17,874,o),
(7,874,cs)
);
}
);
width = 228;
}
);
unicode = 207;
},
{
glyphname = Ntilde;
kernLeft = _kern1;
kernRight = _kern2;
layers = (
{
associatedMasterId = "C985D1D4-6D1D-43A7-B614-37C5E085729D";
layerId = "BBA471A4-2228-454C-841A-56A92F7EAA24";
name = img;
width = 744;
},
{
layerId = "C985D1D4-6D1D-43A7-B614-37C5E085729D";
shapes = (
{
closed = 1;
nodes = (
(93,707,l),
(154,707,l),
(609,49,l),
(609,707,l),
(651,707,l),
(651,0,l),
(593,0,l),
(135,659,l),
(135,0,l),
(93,0,l)
);
},
{
closed = 1;
nodes = (
(381,898,o),
(403,822,o),
(448,822,cs),
(488,822,o),
(492,861,o),
(492,894,c),
(529,894,l),
(529,835,o),
(507,792,o),
(446,792,cs),
(383,792,o),
(361,868,o),
(316,868,cs),
(278,868,o),
(270,827,o),
(273,796,c),
(236,796,l),
(236,854,o),
(256,898,o),
(319,898,cs)
);
}
);
width = 744;
}
);
unicode = 209;
},
{
glyphname = Ograve;
kernLeft = _kern3;
kernRight = _kern4;
layers = (
{
associatedMasterId = "C985D1D4-6D1D-43A7-B614-37C5E085729D";
layerId = "BBA471A4-2228-454C-841A-56A92F7EAA24";
name = img;
width = 767;
},
{
layerId = "C985D1D4-6D1D-43A7-B614-37C5E085729D";
shapes = (
{
closed = 1;
nodes = (
(166,-8,o),
(54,145,o),
(54,353,cs),
(54,561,o),
(166,715,o),
(384,715,cs),
(601,715,o),
(713,560,o),
(713,353,cs),
(713,146,o),
(601,-8,o),
(384,-8,cs)
);
},
{
closed = 1;
nodes = (
(191,679,o),
(98,531,o),
(98,353,cs),
(98,174,o),
(195,28,o),
(384,28,cs),
(576,28,o),
(668,173,o),
(668,353,cs),
(668,531,o),
(577,679,o),
(384,679,cs)
);
},
{
closed = 1;
nodes = (
(350,923,l),
(426,796,l),
(388,796,l),
(300,923,l)
);
}
);
width = 767;
}
);
unicode = 210;
},
{
glyphname = Oacute;
kernLeft = _kern3;
kernRight = _kern4;
layers = (
{
associatedMasterId = "C985D1D4-6D1D-43A7-B614-37C5E085729D";
layerId = "BBA471A4-2228-454C-841A-56A92F7EAA24";
name = img;
width = 767;
},
{
layerId = "C985D1D4-6D1D-43A7-B614-37C5E085729D";
shapes = (
{
closed = 1;
nodes = (
(166,-8,o),
(54,145,o),
(54,353,cs),
(54,561,o),
(166,715,o),
(384,715,cs),
(601,715,o),
(713,560,o),
(713,353,cs),
(713,146,o),
(601,-8,o),
(384,-8,cs)
);
},
{
closed = 1;
nodes = (
(191,679,o),
(98,531,o),
(98,353,cs),
(98,174,o),
(195,28,o),
(384,28,cs),
(576,28,o),
(668,173,o),
(668,353,cs),
(668,531,o),
(577,679,o),
(384,679,cs)
);
},
{
closed = 1;
nodes = (
(476,923,l),
(388,796,l),
(350,796,l),
(426,923,l)
);
}
);
width = 767;
}
);
unicode = 211;
},
{
glyphname = Ocircumflex;
kernLeft = _kern3;
kernRight = _kern4;
layers = (
{
associatedMasterId = "C985D1D4-6D1D-43A7-B614-37C5E085729D";
layerId = "BBA471A4-2228-454C-841A-56A92F7EAA24";
name = img;
width = 767;
},
{
layerId = "C985D1D4-6D1D-43A7-B614-37C5E085729D";
shapes = (
{
closed = 1;
nodes = (
(166,-8,o),
(54,145,o),
(54,353,cs),
(54,561,o),
(166,715,o),
(384,715,cs),
(601,715,o),
(713,560,o),
(713,353,cs),
(713,146,o),
(601,-8,o),
(384,-8,cs)
);
},
{
closed = 1;
nodes = (
(191,679,o),
(98,531,o),
(98,353,cs),
(98,174,o),
(195,28,o),
(384,28,cs),
(576,28,o),
(668,173,o),
(668,353,cs),
(668,531,o),
(577,679,o),
(384,679,cs)
);
},
{
closed = 1;
nodes = (
(467,796,l),
(382,894,l),
(300,796,l),
(256,796,l),
(367,923,l),
(399,923,l),
(510,796,l)
);
}
);
width = 767;
}
);
unicode = 212;
},
{
glyphname = Otilde;
kernLeft = _kern3;
kernRight = _kern4;
layers = (
{
associatedMasterId = "C985D1D4-6D1D-43A7-B614-37C5E085729D";
layerId = "BBA471A4-2228-454C-841A-56A92F7EAA24";
name = img;
width = 767;
},
{
layerId = "C985D1D4-6D1D-43A7-B614-37C5E085729D";
shapes = (
{
closed = 1;
nodes = (
(166,-8,o),
(54,145,o),
(54,353,cs),
(54,561,o),
(166,715,o),
(384,715,cs),
(601,715,o),
(713,560,o),
(713,353,cs),
(713,146,o),
(601,-8,o),
(384,-8,cs)
);
},
{
closed = 1;
nodes = (
(191,679,o),
(98,531,o),
(98,353,cs),
(98,174,o),
(195,28,o),
(384,28,cs),
(576,28,o),
(668,173,o),
(668,353,cs),
(668,531,o),
(577,679,o),
(384,679,cs)
);
},
{
closed = 1;
nodes = (
(386,898,o),
(408,822,o),
(453,822,cs),
(493,822,o),
(497,861,o),
(497,894,c),
(534,894,l),
(534,835,o),
(512,792,o),
(451,792,cs),
(388,792,o),
(366,868,o),
(321,868,cs),
(283,868,o),
(275,827,o),
(278,796,c),
(241,796,l),
(241,854,o),
(261,898,o),
(324,898,cs)
);
}
);
width = 767;
}
);
unicode = 213;
},
{
glyphname = Odieresis;
kernLeft = _kern3;
kernRight = _kern4;
layers = (
{
associatedMasterId = "C985D1D4-6D1D-43A7-B614-37C5E085729D";
layerId = "BBA471A4-2228-454C-841A-56A92F7EAA24";
name = img;
width = 767;
},
{
layerId = "C985D1D4-6D1D-43A7-B614-37C5E085729D";
shapes = (
{
closed = 1;
nodes = (
(166,-8,o),
(54,145,o),
(54,353,cs),
(54,561,o),
(166,715,o),
(384,715,cs),
(601,715,o),
(713,560,o),
(713,353,cs),
(713,146,o),
(601,-8,o),
(384,-8,cs)
);
},
{
closed = 1;
nodes = (
(191,679,o),
(98,531,o),
(98,353,cs),
(98,174,o),
(195,28,o),
(384,28,cs),
(576,28,o),
(668,173,o),
(668,353,cs),
(668,531,o),
(577,679,o),
(384,679,cs)
);
},
{
closed = 1;
nodes = (
(513,874,o),
(529,858,o),
(529,835,cs),
(529,812,o),
(513,796,o),
(488,796,cs),
(464,796,o),
(449,814,o),
(449,835,cs),
(449,856,o),
(464,874,o),
(488,874,cs)
);
},
{
closed = 1;
nodes = (
(302,874,o),
(318,858,o),
(318,835,cs),
(318,812,o),
(302,796,o),
(277,796,cs),
(253,796,o),
(238,814,o),
(238,835,cs),
(238,856,o),
(253,874,o),
(277,874,cs)
);
}
);
width = 767;
}
);
unicode = 214;
},
{
glyphname = Ugrave;
kernLeft = _kern1;
kernRight = _kern2;
layers = (
{
associatedMasterId = "C985D1D4-6D1D-43A7-B614-37C5E085729D";
layerId = "BBA471A4-2228-454C-841A-56A92F7EAA24";
name = img;
width = 718;
},
{
layerId = "C985D1D4-6D1D-43A7-B614-37C5E085729D";
shapes = (
{
closed = 1;
nodes = (
(630,707,l),
(630,299,ls),
(630,119,o),
(551,-8,o),
(359,-8,cs),
(168,-8,o),
(88,119,o),
(88,299,cs),
(88,707,l),
(131,707,l),
(131,303,ls),
(131,149,o),
(195,28,o),
(360,28,cs),
(528,28,o),
(588,151,o),
(588,303,cs),
(588,707,l)
);
},
{
closed = 1;
nodes = (
(336,923,l),
(412,796,l),
(374,796,l),
(286,923,l)
);
}
);
width = 718;
}
);
unicode = 217;
},
